<?xml version="1.0" encoding="UTF-8" standalone="no"?>
<svg width="2977.2px" height="900px" viewBox="0 0 2977.2 900"
 xmlns="http://www.w3.org/2000/svg" xmlns:xlink="http://www.w3.org/1999/xlink" version="1.2" baseProfile="tiny">
<title>Untitled score</title>
<desc>Generated by MuseScore 4.1.0</desc>
<path class="" fill="#ffffff" fill-rule="evenodd" d="M0,0 L2977.2,0 L2977.2,900 L0,900 L0,0 "/>
<polyline class="StaffLines" fill="none" stroke="#000000" stroke-width="2.73" stroke-linejoin="bevel" points="525.992,386.198 2764.6,386.198"/>
<polyline class="StaffLines" fill="none" stroke="#000000" stroke-width="2.73" stroke-linejoin="bevel" points="525.992,575.097 2764.6,575.097"/>
<path class="InstrumentName" d="M240.814,382.223 L240.814,393.423 C240.814,395.973 240.814,396.073 240.514,396.523 C240.114,397.023 239.164,397.223 236.314,397.223 L235.414,397.223 L235.414,399.573 L251.814,399.573 L251.814,397.223 L250.914,397.223 C248.064,397.223 247.114,397.023 246.714,396.523 C246.414,396.073 246.414,396.023 246.414,393.423 L246.414,369.623 C246.414,367.023 246.414,366.973 246.714,366.523 C247.164,365.973 248.064,365.823 250.914,365.823 L251.814,365.823 L251.814,363.473 L235.614,363.473 L235.614,365.823 L236.314,365.823 C239.164,365.823 240.064,365.973 240.514,366.523 C240.814,366.973 240.814,367.073 240.814,369.623 L240.814,379.523 L224.064,379.523 L224.064,369.623 C224.064,367.073 224.064,366.973 224.414,366.523 C224.814,365.973 225.714,365.823 228.564,365.823 L229.514,365.823 L229.514,363.473 L213.064,363.473 L213.064,365.823 L213.964,365.823 C216.814,365.823 217.714,365.973 218.164,366.523 C218.464,366.973 218.464,367.073 218.464,369.623 L218.464,393.423 C218.464,395.923 218.464,396.073 218.164,396.523 C217.764,397.023 216.814,397.223 213.964,397.223 L213.064,397.223 L213.064,399.573 L229.514,399.573 L229.514,397.223 L228.564,397.223 C225.714,397.173 224.814,397.023 224.414,396.523 C224.064,396.073 224.064,395.973 224.064,393.423 L224.064,382.223 L240.814,382.223 M275.808,383.473 C275.808,380.323 275.258,378.723 273.808,377.523 C272.158,376.173 269.708,375.523 266.508,375.523 C260.858,375.523 256.758,378.173 256.758,381.823 C256.758,383.673 257.908,384.873 259.658,384.873 C261.258,384.873 262.358,383.823 262.358,382.323 C262.358,381.673 262.108,380.973 261.608,380.273 C261.308,379.923 261.258,379.823 261.258,379.573 C261.258,378.573 263.258,377.673 265.658,377.673 C267.258,377.673 269.008,378.173 269.808,378.923 C270.758,379.723 271.108,380.923 271.108,383.173 L271.108,385.123 C265.908,386.023 264.258,386.423 261.808,387.373 C257.458,388.973 255.408,391.273 255.408,394.473 C255.408,398.073 258.208,400.323 262.658,400.323 C266.108,400.323 269.208,398.923 271.358,396.373 C272.158,398.923 273.408,399.923 275.758,399.923 C278.008,399.923 280.358,398.473 280.358,397.023 C280.358,396.673 280.158,396.423 279.858,396.423 C279.658,396.423 279.458,396.473 279.108,396.623 C278.408,396.923 278.108,396.973 277.708,396.973 C276.308,396.973 275.808,396.073 275.808,393.523 L275.808,383.473 M271.108,389.573 C271.108,392.573 270.958,393.273 270.108,394.573 C268.858,396.423 266.608,397.673 264.408,397.673 C262.108,397.673 260.458,396.023 260.458,393.773 C260.458,391.673 261.508,390.173 263.708,389.123 C265.258,388.423 267.208,387.923 271.108,387.273 L271.108,389.573 M291.005,376.273 L282.355,376.823 L282.355,378.973 L284.155,378.973 C286.055,379.023 286.305,379.323 286.305,381.473 L286.305,395.773 C286.255,396.523 286.205,396.823 286.005,397.073 C285.655,397.523 284.705,397.723 282.555,397.773 L282.355,397.773 L282.355,399.573 L295.005,399.573 L295.005,397.773 L294.805,397.773 C291.455,397.673 291.005,397.423 291.005,395.623 L291.005,388.223 C291.005,385.773 291.355,383.523 291.905,382.373 C292.955,380.123 295.205,378.573 297.355,378.573 C298.655,378.573 300.155,379.273 300.905,380.323 C301.655,381.423 302.005,382.923 302.005,385.323 L302.005,395.773 C301.955,396.523 301.905,396.823 301.705,397.073 C301.355,397.523 300.355,397.723 298.205,397.773 L298.005,397.773 L298.005,399.573 L310.655,399.573 L310.655,397.773 L310.455,397.773 C307.155,397.673 306.705,397.423 306.705,395.623 L306.705,385.573 C306.705,381.973 306.555,381.073 305.655,379.373 C304.405,376.973 301.905,375.523 298.905,375.523 C295.655,375.523 293.205,377.023 291.005,380.323 L291.005,376.273 M330.552,399.923 L339.252,399.573 L339.252,397.423 L338.352,397.423 C335.502,397.273 335.252,396.973 335.252,393.773 L335.252,362.723 L325.452,363.273 L325.452,365.423 L328.402,365.423 C330.302,365.473 330.552,365.773 330.552,367.923 L330.552,379.223 C328.702,376.673 326.552,375.523 323.652,375.523 C318.002,375.523 313.702,380.973 313.702,388.173 C313.702,395.273 317.852,400.323 323.652,400.323 C326.802,400.323 328.952,398.973 330.552,395.973 L330.552,399.923 M324.652,378.223 C326.702,378.223 328.652,379.723 329.552,382.023 C330.202,383.523 330.502,385.573 330.502,388.023 C330.502,393.873 328.202,397.623 324.602,397.623 C321.052,397.623 318.952,394.323 318.952,388.773 C318.952,385.773 319.252,383.523 319.902,381.873 C320.752,379.623 322.602,378.223 324.652,378.223 M386.08,363.123 L384.18,363.123 L382.18,366.073 C378.53,363.423 376.68,362.723 373.23,362.723 C368.48,362.723 364.43,364.723 361.08,368.723 C357.88,372.523 356.38,376.723 356.38,381.873 C356.38,392.673 363.43,400.323 373.28,400.323 C381.28,400.323 386.38,395.623 387.53,387.223 L385.18,386.823 C383.83,394.273 380.03,397.973 373.88,397.973 C366.48,397.973 362.98,392.873 362.98,382.073 C362.98,376.373 363.73,372.623 365.43,369.623 C366.98,366.823 370.03,365.073 373.28,365.073 C376.78,365.073 379.88,366.923 381.78,370.123 C382.73,371.773 383.43,373.623 384.63,377.573 L386.83,377.573 L386.08,363.123 M400.423,362.723 L391.173,363.273 L391.173,365.423 L393.623,365.423 C395.473,365.473 395.723,365.773 395.723,367.923 L395.723,395.773 C395.673,396.523 395.623,396.823 395.423,397.073 C395.073,397.523 394.123,397.723 391.973,397.773 L391.623,397.773 L391.623,399.573 L404.573,399.573 L404.573,397.773 L404.223,397.773 C400.873,397.673 400.423,397.423 400.423,395.623 L400.423,362.723 M428.573,383.473 C428.573,380.323 428.023,378.723 426.573,377.523 C424.923,376.173 422.473,375.523 419.273,375.523 C413.623,375.523 409.523,378.173 409.523,381.823 C409.523,383.673 410.673,384.873 412.423,384.873 C414.023,384.873 415.123,383.823 415.123,382.323 C415.123,381.673 414.873,380.973 414.373,380.273 C414.073,379.923 414.023,379.823 414.023,379.573 C414.023,378.573 416.023,377.673 418.423,377.673 C420.023,377.673 421.773,378.173 422.573,378.923 C423.523,379.723 423.873,380.923 423.873,383.173 L423.873,385.123 C418.673,386.023 417.023,386.423 414.573,387.373 C410.223,388.973 408.173,391.273 408.173,394.473 C408.173,398.073 410.973,400.323 415.423,400.323 C418.873,400.323 421.973,398.923 424.123,396.373 C424.923,398.923 426.173,399.923 428.523,399.923 C430.773,399.923 433.123,398.473 433.123,397.023 C433.123,396.673 432.923,396.423 432.623,396.423 C432.423,396.423 432.223,396.473 431.873,396.623 C431.173,396.923 430.873,396.973 430.473,396.973 C429.073,396.973 428.573,396.073 428.573,393.523 L428.573,383.473 M423.873,389.573 C423.873,392.573 423.723,393.273 422.873,394.573 C421.623,396.423 419.373,397.673 417.173,397.673 C414.873,397.673 413.223,396.023 413.223,393.773 C413.223,391.673 414.273,390.173 416.473,389.123 C418.023,388.423 419.973,387.923 423.873,387.273 L423.873,389.573 M443.82,376.273 L435.17,376.823 L435.17,378.973 L436.97,378.973 C438.87,379.023 439.12,379.323 439.12,381.473 L439.12,405.923 C439.07,406.623 439.02,406.923 438.82,407.173 C438.47,407.623 437.52,407.823 435.37,407.873 L435.17,407.873 L435.17,409.673 L448.17,409.673 L448.17,407.873 L447.62,407.873 C444.27,407.773 443.82,407.523 443.82,405.723 L443.82,396.273 C445.47,399.173 447.32,400.323 450.42,400.323 C457.07,400.323 460.52,393.773 460.52,387.823 C460.52,382.173 457.07,375.523 450.72,375.523 C447.62,375.523 445.57,376.823 443.82,379.823 L443.82,376.273 M449.82,378.223 C453.27,378.223 455.27,381.673 455.27,387.523 C455.27,393.973 453.27,397.623 449.67,397.623 C446.07,397.623 443.77,393.923 443.77,388.173 C443.77,381.923 446.02,378.223 449.82,378.223 M492.448,364.373 C490.748,366.423 486.148,367.973 481.548,368.073 L481.548,370.223 L485.948,370.223 C488.848,370.273 489.148,370.573 489.048,373.373 L489.048,393.423 C489.048,395.973 489.048,396.073 488.748,396.523 C488.348,397.023 487.398,397.223 484.598,397.223 L481.348,397.223 L481.348,399.573 L501.148,399.573 L501.148,397.223 L498.398,397.223 C495.598,397.223 494.648,397.023 494.248,396.523 C493.898,396.073 493.898,396.023 493.898,393.423 L493.898,372.773 C493.898,369.973 493.998,367.623 494.248,364.373 L492.448,364.373 "/>
<path class="InstrumentName" d="M240.361,571.122 L240.361,582.322 C240.361,584.872 240.361,584.972 240.061,585.422 C239.661,585.922 238.711,586.122 235.861,586.122 L234.961,586.122 L234.961,588.472 L251.361,588.472 L251.361,586.122 L250.461,586.122 C247.611,586.122 246.661,585.922 246.261,585.422 C245.961,584.972 245.961,584.922 245.961,582.322 L245.961,558.522 C245.961,555.922 245.961,555.872 246.261,555.422 C246.711,554.872 247.611,554.722 250.461,554.722 L251.361,554.722 L251.361,552.372 L235.161,552.372 L235.161,554.722 L235.861,554.722 C238.711,554.722 239.611,554.872 240.061,555.422 C240.361,555.872 240.361,555.972 240.361,558.522 L240.361,568.422 L223.611,568.422 L223.611,558.522 C223.611,555.972 223.611,555.872 223.961,555.422 C224.361,554.872 225.261,554.722 228.111,554.722 L229.061,554.722 L229.061,552.372 L212.611,552.372 L212.611,554.722 L213.511,554.722 C216.361,554.722 217.261,554.872 217.711,555.422 C218.011,555.872 218.011,555.972 218.011,558.522 L218.011,582.322 C218.011,584.822 218.011,584.972 217.711,585.422 C217.311,585.922 216.361,586.122 213.511,586.122 L212.611,586.122 L212.611,588.472 L229.061,588.472 L229.061,586.122 L228.111,586.122 C225.261,586.072 224.361,585.922 223.961,585.422 C223.611,584.972 223.611,584.872 223.611,582.322 L223.611,571.122 L240.361,571.122 M275.355,572.372 C275.355,569.222 274.805,567.622 273.355,566.422 C271.705,565.072 269.255,564.422 266.055,564.422 C260.405,564.422 256.305,567.072 256.305,570.722 C256.305,572.572 257.455,573.772 259.205,573.772 C260.805,573.772 261.905,572.722 261.905,571.222 C261.905,570.572 261.655,569.872 261.155,569.172 C260.855,568.822 260.805,568.722 260.805,568.472 C260.805,567.472 262.805,566.572 265.205,566.572 C266.805,566.572 268.555,567.072 269.355,567.822 C270.305,568.622 270.655,569.822 270.655,572.072 L270.655,574.022 C265.455,574.922 263.805,575.322 261.355,576.272 C257.005,577.872 254.955,580.172 254.955,583.372 C254.955,586.972 257.755,589.222 262.205,589.222 C265.655,589.222 268.755,587.822 270.905,585.272 C271.705,587.822 272.955,588.822 275.305,588.822 C277.555,588.822 279.905,587.372 279.905,585.922 C279.905,585.572 279.705,585.322 279.405,585.322 C279.205,585.322 279.005,585.372 278.655,585.522 C277.955,585.822 277.655,585.872 277.255,585.872 C275.855,585.872 275.355,584.972 275.355,582.422 L275.355,572.372 M270.655,578.472 C270.655,581.472 270.505,582.172 269.655,583.472 C268.405,585.322 266.155,586.572 263.955,586.572 C261.655,586.572 260.005,584.922 260.005,582.672 C260.005,580.572 261.055,579.072 263.255,578.022 C264.805,577.322 266.755,576.822 270.655,576.172 L270.655,578.472 M290.552,565.172 L281.902,565.722 L281.902,567.872 L283.702,567.872 C285.602,567.922 285.852,568.222 285.852,570.372 L285.852,584.672 C285.802,585.422 285.752,585.722 285.552,585.972 C285.202,586.422 284.252,586.622 282.102,586.672 L281.902,586.672 L281.902,588.472 L294.552,588.472 L294.552,586.672 L294.352,586.672 C291.002,586.572 290.552,586.322 290.552,584.522 L290.552,577.122 C290.552,574.672 290.902,572.422 291.452,571.272 C292.502,569.022 294.752,567.472 296.902,567.472 C298.202,567.472 299.702,568.172 300.452,569.222 C301.202,570.322 301.552,571.822 301.552,574.222 L301.552,584.672 C301.502,585.422 301.452,585.722 301.252,585.972 C300.902,586.422 299.902,586.622 297.752,586.672 L297.552,586.672 L297.552,588.472 L310.202,588.472 L310.202,586.672 L310.002,586.672 C306.702,586.572 306.252,586.322 306.252,584.522 L306.252,574.472 C306.252,570.872 306.102,569.972 305.202,568.272 C303.952,565.872 301.452,564.422 298.452,564.422 C295.202,564.422 292.752,565.922 290.552,569.222 L290.552,565.172 M330.098,588.822 L338.798,588.472 L338.798,586.322 L337.898,586.322 C335.048,586.172 334.798,585.872 334.798,582.672 L334.798,551.622 L324.998,552.172 L324.998,554.322 L327.948,554.322 C329.848,554.372 330.098,554.672 330.098,556.822 L330.098,568.122 C328.248,565.572 326.098,564.422 323.198,564.422 C317.548,564.422 313.248,569.872 313.248,577.072 C313.248,584.172 317.398,589.222 323.198,589.222 C326.348,589.222 328.498,587.872 330.098,584.872 L330.098,588.822 M324.198,567.122 C326.248,567.122 328.198,568.622 329.098,570.922 C329.748,572.422 330.048,574.472 330.048,576.922 C330.048,582.772 327.748,586.522 324.148,586.522 C320.598,586.522 318.498,583.222 318.498,577.672 C318.498,574.672 318.798,572.422 319.448,570.772 C320.298,568.522 322.148,567.122 324.198,567.122 M385.627,552.022 L383.727,552.022 L381.727,554.972 C378.077,552.322 376.227,551.622 372.777,551.622 C368.027,551.622 363.977,553.622 360.627,557.622 C357.427,561.422 355.927,565.622 355.927,570.772 C355.927,581.572 362.977,589.222 372.827,589.222 C380.827,589.222 385.927,584.522 387.077,576.122 L384.727,575.722 C383.377,583.172 379.577,586.872 373.427,586.872 C366.027,586.872 362.527,581.772 362.527,570.972 C362.527,565.272 363.277,561.522 364.977,558.522 C366.527,555.722 369.577,553.972 372.827,553.972 C376.327,553.972 379.427,555.822 381.327,559.022 C382.277,560.672 382.977,562.522 384.177,566.472 L386.377,566.472 L385.627,552.022 M399.97,551.622 L390.72,552.172 L390.72,554.322 L393.17,554.322 C395.02,554.372 395.27,554.672 395.27,556.822 L395.27,584.672 C395.22,585.422 395.17,585.722 394.97,585.972 C394.62,586.422 393.67,586.622 391.52,586.672 L391.17,586.672 L391.17,588.472 L404.12,588.472 L404.12,586.672 L403.77,586.672 C400.42,586.572 399.97,586.322 399.97,584.522 L399.97,551.622 M428.12,572.372 C428.12,569.222 427.57,567.622 426.12,566.422 C424.47,565.072 422.02,564.422 418.82,564.422 C413.17,564.422 409.07,567.072 409.07,570.722 C409.07,572.572 410.22,573.772 411.97,573.772 C413.57,573.772 414.67,572.722 414.67,571.222 C414.67,570.572 414.42,569.872 413.92,569.172 C413.62,568.822 413.57,568.722 413.57,568.472 C413.57,567.472 415.57,566.572 417.97,566.572 C419.57,566.572 421.32,567.072 422.12,567.822 C423.07,568.622 423.42,569.822 423.42,572.072 L423.42,574.022 C418.22,574.922 416.57,575.322 414.12,576.272 C409.77,577.872 407.72,580.172 407.72,583.372 C407.72,586.972 410.52,589.222 414.97,589.222 C418.42,589.222 421.52,587.822 423.67,585.272 C424.47,587.822 425.72,588.822 428.07,588.822 C430.32,588.822 432.67,587.372 432.67,585.922 C432.67,585.572 432.47,585.322 432.17,585.322 C431.97,585.322 431.77,585.372 431.42,585.522 C430.72,585.822 430.42,585.872 430.02,585.872 C428.62,585.872 428.12,584.972 428.12,582.422 L428.12,572.372 M423.42,578.472 C423.42,581.472 423.27,582.172 422.42,583.472 C421.17,585.322 418.92,586.572 416.72,586.572 C414.42,586.572 412.77,584.922 412.77,582.672 C412.77,580.572 413.82,579.072 416.02,578.022 C417.57,577.322 419.52,576.822 423.42,576.172 L423.42,578.472 M443.367,565.172 L434.717,565.722 L434.717,567.872 L436.517,567.872 C438.417,567.922 438.667,568.222 438.667,570.372 L438.667,594.822 C438.617,595.522 438.567,595.822 438.367,596.072 C438.017,596.522 437.067,596.722 434.917,596.772 L434.717,596.772 L434.717,598.572 L447.717,598.572 L447.717,596.772 L447.167,596.772 C443.817,596.672 443.367,596.422 443.367,594.622 L443.367,585.172 C445.017,588.072 446.867,589.222 449.967,589.222 C456.617,589.222 460.067,582.672 460.067,576.722 C460.067,571.072 456.617,564.422 450.267,564.422 C447.167,564.422 445.117,565.722 443.367,568.722 L443.367,565.172 M449.367,567.122 C452.817,567.122 454.817,570.572 454.817,576.422 C454.817,582.872 452.817,586.522 449.217,586.522 C445.617,586.522 443.317,582.822 443.317,577.072 C443.317,570.822 445.567,567.122 449.367,567.122 M501.145,577.672 L498.945,577.672 L498.445,580.222 C497.795,583.472 497.395,583.772 494.295,583.772 L483.095,583.772 C486.545,580.172 487.695,579.122 490.895,576.622 C495.445,573.122 497.395,571.372 498.545,569.872 C500.145,567.672 500.945,565.472 500.945,563.022 C500.945,557.322 496.245,553.272 489.695,553.272 C483.345,553.272 478.495,557.322 478.495,562.672 C478.495,565.822 480.095,567.972 482.445,567.972 C484.295,567.972 485.545,566.722 485.545,564.922 C485.545,563.672 484.845,562.522 483.795,562.072 C481.945,561.322 481.845,561.222 481.845,560.572 C481.845,559.822 482.345,558.672 483.045,557.822 C484.295,556.272 486.345,555.422 488.695,555.422 C492.845,555.422 495.295,557.972 495.295,562.172 C495.295,565.872 493.545,569.222 489.395,573.622 C485.695,577.522 483.395,579.972 482.545,580.922 C480.745,583.022 479.845,584.172 477.645,587.072 L477.645,588.472 L500.195,588.472 L501.145,577.672 "/>
<polyline class="BarLine" fill="none" stroke="#000000" stroke-width="4.46" stroke-linejoin="bevel" points="528.224,335.234 528.224,575.097"/>
<path class="BarLine" transform="matrix(0.992,0,0,0.992,2717.83,373.798)" d="M10.4,0 C10.4,-2.9 8.1,-5.3 5.2,-5.3 C2.3,-5.3 0,-2.9 0,0 C0,2.9 2.3,5.3 5.2,5.3 C8.1,5.3 10.4,2.9 10.4,0"/>
<path class="BarLine" transform="matrix(0.992,0,0,0.992,2717.83,398.598)" d="M10.4,0 C10.4,-2.9 8.1,-5.3 5.2,-5.3 C2.3,-5.3 0,-2.9 0,0 C0,2.9 2.3,5.3 5.2,5.3 C8.1,5.3 10.4,2.9 10.4,0"/>
<polyline class="BarLine" fill="none" stroke="#000000" stroke-width="4.46" stroke-linejoin="bevel" points="2739.55,335.234 2739.55,437.162"/>
<polyline class="BarLine" fill="none" stroke="#000000" stroke-width="13.64" stroke-linejoin="bevel" points="2757.78,335.234 2757.78,437.162"/>
<polyline class="BarLine" fill="none" stroke="#000000" stroke-width="4.46" stroke-linejoin="bevel" points="1726.51,335.234 1726.51,437.162"/>
<polyline class="BarLine" fill="none" stroke="#000000" stroke-width="13.64" stroke-linejoin="bevel" points="695.244,335.234 695.244,437.162"/>
<polyline class="BarLine" fill="none" stroke="#000000" stroke-width="4.46" stroke-linejoin="bevel" points="713.472,335.234 713.472,437.162"/>
<path class="BarLine" transform="matrix(0.992,0,0,0.992,724.88,373.798)" d="M10.4,0 C10.4,-2.9 8.1,-5.3 5.2,-5.3 C2.3,-5.3 0,-2.9 0,0 C0,2.9 2.3,5.3 5.2,5.3 C8.1,5.3 10.4,2.9 10.4,0"/>
<path class="BarLine" transform="matrix(0.992,0,0,0.992,724.88,398.598)" d="M10.4,0 C10.4,-2.9 8.1,-5.3 5.2,-5.3 C2.3,-5.3 0,-2.9 0,0 C0,2.9 2.3,5.3 5.2,5.3 C8.1,5.3 10.4,2.9 10.4,0"/>
<polyline class="BarLine" fill="none" stroke="#000000" stroke-width="4.46" stroke-linejoin="bevel" points="1726.51,524.133 1726.51,626.061"/>
<polyline class="BarLine" fill="none" stroke="#000000" stroke-width="4.46" stroke-linejoin="bevel" points="528.224,524.133 528.224,626.061"/>
<path class="BarLine" transform="matrix(0.992,0,0,0.992,2717.83,562.697)" d="M10.4,0 C10.4,-2.9 8.1,-5.3 5.2,-5.3 C2.3,-5.3 0,-2.9 0,0 C0,2.9 2.3,5.3 5.2,5.3 C8.1,5.3 10.4,2.9 10.4,0"/>
<path class="BarLine" transform="matrix(0.992,0,0,0.992,2717.83,587.497)" d="M10.4,0 C10.4,-2.9 8.1,-5.3 5.2,-5.3 C2.3,-5.3 0,-2.9 0,0 C0,2.9 2.3,5.3 5.2,5.3 C8.1,5.3 10.4,2.9 10.4,0"/>
<polyline class="BarLine" fill="none" stroke="#000000" stroke-width="4.46" stroke-linejoin="bevel" points="2739.55,524.133 2739.55,626.061"/>
<polyline class="BarLine" fill="none" stroke="#000000" stroke-width="13.64" stroke-linejoin="bevel" points="2757.78,524.133 2757.78,626.061"/>
<polyline class="BarLine" fill="none" stroke="#000000" stroke-width="13.64" stroke-linejoin="bevel" points="695.244,524.133 695.244,626.061"/>
<polyline class="BarLine" fill="none" stroke="#000000" stroke-width="4.46" stroke-linejoin="bevel" points="713.472,524.133 713.472,626.061"/>
<path class="BarLine" transform="matrix(0.992,0,0,0.992,724.88,562.697)" d="M10.4,0 C10.4,-2.9 8.1,-5.3 5.2,-5.3 C2.3,-5.3 0,-2.9 0,0 C0,2.9 2.3,5.3 5.2,5.3 C8.1,5.3 10.4,2.9 10.4,0"/>
<path class="BarLine" transform="matrix(0.992,0,0,0.992,724.88,587.497)" d="M10.4,0 C10.4,-2.9 8.1,-5.3 5.2,-5.3 C2.3,-5.3 0,-2.9 0,0 C0,2.9 2.3,5.3 5.2,5.3 C8.1,5.3 10.4,2.9 10.4,0"/>
<polyline class="Stem" fill="none" stroke="#000000" stroke-width="2.48" stroke-linejoin="bevel" points="798.428,382.23 798.428,324.198"/>
<polyline class="Stem" fill="none" stroke="#000000" stroke-width="2.48" stroke-linejoin="bevel" points="2629.22,382.23 2629.22,324.198"/>
<polyline class="Stem" fill="none" stroke="#000000" stroke-width="2.48" stroke-linejoin="bevel" points="2509.61,382.23 2509.61,324.198"/>
<polyline class="Stem" fill="none" stroke="#000000" stroke-width="2.48" stroke-linejoin="bevel" points="2390.01,382.23 2390.01,324.198"/>
<polyline class="Stem" fill="none" stroke="#000000" stroke-width="2.48" stroke-linejoin="bevel" points="918.034,382.23 918.034,324.198"/>
<polyline class="Stem" fill="none" stroke="#000000" stroke-width="2.48" stroke-linejoin="bevel" points="1037.64,382.23 1037.64,324.198"/>
<polyline class="Stem" fill="none" stroke="#000000" stroke-width="2.48" stroke-linejoin="bevel" points="2270.4,382.23 2270.4,324.198"/>
<polyline class="Stem" fill="none" stroke="#000000" stroke-width="2.48" stroke-linejoin="bevel" points="2150.79,382.23 2150.79,324.198"/>
<polyline class="Stem" fill="none" stroke="#000000" stroke-width="2.48" stroke-linejoin="bevel" points="1157.24,382.23 1157.24,324.198"/>
<polyline class="Stem" fill="none" stroke="#000000" stroke-width="2.48" stroke-linejoin="bevel" points="1276.85,382.23 1276.85,324.198"/>
<polyline class="Stem" fill="none" stroke="#000000" stroke-width="2.48" stroke-linejoin="bevel" points="2031.19,382.23 2031.19,324.198"/>
<polyline class="Stem" fill="none" stroke="#000000" stroke-width="2.48" stroke-linejoin="bevel" points="1911.58,382.23 1911.58,324.198"/>
<polyline class="Stem" fill="none" stroke="#000000" stroke-width="2.48" stroke-linejoin="bevel" points="1396.46,382.23 1396.46,324.198"/>
<polyline class="Stem" fill="none" stroke="#000000" stroke-width="2.48" stroke-linejoin="bevel" points="1791.98,382.23 1791.98,324.198"/>
<polyline class="Stem" fill="none" stroke="#000000" stroke-width="2.48" stroke-linejoin="bevel" points="1516.06,382.23 1516.06,324.198"/>
<polyline class="Stem" fill="none" stroke="#000000" stroke-width="2.48" stroke-linejoin="bevel" points="1635.67,382.23 1635.67,324.198"/>
<polyline class="Stem" fill="none" stroke="#000000" stroke-width="2.48" stroke-linejoin="bevel" points="798.428,571.129 798.428,513.097"/>
<polyline class="Stem" fill="none" stroke="#000000" stroke-width="2.48" stroke-linejoin="bevel" points="2509.61,571.129 2509.61,513.097"/>
<polyline class="Stem" fill="none" stroke="#000000" stroke-width="2.48" stroke-linejoin="bevel" points="2270.4,571.129 2270.4,513.097"/>
<polyline class="Stem" fill="none" stroke="#000000" stroke-width="2.48" stroke-linejoin="bevel" points="1037.64,571.129 1037.64,513.097"/>
<polyline class="Stem" fill="none" stroke="#000000" stroke-width="2.48" stroke-linejoin="bevel" points="2031.19,571.129 2031.19,513.097"/>
<polyline class="Stem" fill="none" stroke="#000000" stroke-width="2.48" stroke-linejoin="bevel" points="1276.85,571.129 1276.85,513.097"/>
<polyline class="Stem" fill="none" stroke="#000000" stroke-width="2.48" stroke-linejoin="bevel" points="1791.98,571.129 1791.98,513.097"/>
<polyline class="Stem" fill="none" stroke="#000000" stroke-width="2.48" stroke-linejoin="bevel" points="1516.06,571.129 1516.06,513.097"/>
<path class="Note" transform="matrix(0.992,0,0,0.992,1604.68,386.198)" d="M0,4.2 C0,8.5 3.1,13.3 11.2,13.3 C21.6,13.3 32.5,4.8 32.5,-4 C32.5,-9.9 27.5,-13.2 21.3,-13.2 C11.6,-13.2 0,-5 0,4.2"/>
<path class="Note" transform="matrix(0.992,0,0,0.992,2598.22,386.198)" d="M0,4.2 C0,8.5 3.1,13.3 11.2,13.3 C21.6,13.3 32.5,4.8 32.5,-4 C32.5,-9.9 27.5,-13.2 21.3,-13.2 C11.6,-13.2 0,-5 0,4.2"/>
<path class="Note" transform="matrix(0.992,0,0,0.992,767.436,386.198)" d="M0,4.2 C0,8.5 3.1,13.3 11.2,13.3 C21.6,13.3 32.5,4.8 32.5,-4 C32.5,-9.9 27.5,-13.2 21.3,-13.2 C11.6,-13.2 0,-5 0,4.2"/>
<path class="Note" transform="matrix(0.992,0,0,0.992,2478.62,386.198)" d="M0,4.2 C0,8.5 3.1,13.3 11.2,13.3 C21.6,13.3 32.5,4.8 32.5,-4 C32.5,-9.9 27.5,-13.2 21.3,-13.2 C11.6,-13.2 0,-5 0,4.2"/>
<path class="Note" transform="matrix(0.992,0,0,0.992,1485.07,386.198)" d="M0,4.2 C0,8.5 3.1,13.3 11.2,13.3 C21.6,13.3 32.5,4.8 32.5,-4 C32.5,-9.9 27.5,-13.2 21.3,-13.2 C11.6,-13.2 0,-5 0,4.2"/>
<path class="Note" transform="matrix(0.992,0,0,0.992,1365.46,386.198)" d="M0,4.2 C0,8.5 3.1,13.3 11.2,13.3 C21.6,13.3 32.5,4.8 32.5,-4 C32.5,-9.9 27.5,-13.2 21.3,-13.2 C11.6,-13.2 0,-5 0,4.2"/>
<path class="Note" transform="matrix(0.992,0,0,0.992,1760.98,386.198)" d="M0,4.2 C0,8.5 3.1,13.3 11.2,13.3 C21.6,13.3 32.5,4.8 32.5,-4 C32.5,-9.9 27.5,-13.2 21.3,-13.2 C11.6,-13.2 0,-5 0,4.2"/>
<path class="Note" transform="matrix(0.992,0,0,0.992,2359.01,386.198)" d="M0,4.2 C0,8.5 3.1,13.3 11.2,13.3 C21.6,13.3 32.5,4.8 32.5,-4 C32.5,-9.9 27.5,-13.2 21.3,-13.2 C11.6,-13.2 0,-5 0,4.2"/>
<path class="Note" transform="matrix(0.992,0,0,0.992,887.041,386.198)" d="M0,4.2 C0,8.5 3.1,13.3 11.2,13.3 C21.6,13.3 32.5,4.8 32.5,-4 C32.5,-9.9 27.5,-13.2 21.3,-13.2 C11.6,-13.2 0,-5 0,4.2"/>
<path class="Note" transform="matrix(0.992,0,0,0.992,2239.41,386.198)" d="M0,4.2 C0,8.5 3.1,13.3 11.2,13.3 C21.6,13.3 32.5,4.8 32.5,-4 C32.5,-9.9 27.5,-13.2 21.3,-13.2 C11.6,-13.2 0,-5 0,4.2"/>
<path class="Note" transform="matrix(0.992,0,0,0.992,1006.65,386.198)" d="M0,4.2 C0,8.5 3.1,13.3 11.2,13.3 C21.6,13.3 32.5,4.8 32.5,-4 C32.5,-9.9 27.5,-13.2 21.3,-13.2 C11.6,-13.2 0,-5 0,4.2"/>
<path class="Note" transform="matrix(0.992,0,0,0.992,1880.59,386.198)" d="M0,4.2 C0,8.5 3.1,13.3 11.2,13.3 C21.6,13.3 32.5,4.8 32.5,-4 C32.5,-9.9 27.5,-13.2 21.3,-13.2 C11.6,-13.2 0,-5 0,4.2"/>
<path class="Note" transform="matrix(0.992,0,0,0.992,1245.86,386.198)" d="M0,4.2 C0,8.5 3.1,13.3 11.2,13.3 C21.6,13.3 32.5,4.8 32.5,-4 C32.5,-9.9 27.5,-13.2 21.3,-13.2 C11.6,-13.2 0,-5 0,4.2"/>
<path class="Note" transform="matrix(0.992,0,0,0.992,2000.2,386.198)" d="M0,4.2 C0,8.5 3.1,13.3 11.2,13.3 C21.6,13.3 32.5,4.8 32.5,-4 C32.5,-9.9 27.5,-13.2 21.3,-13.2 C11.6,-13.2 0,-5 0,4.2"/>
<path class="Note" transform="matrix(0.992,0,0,0.992,1126.25,386.198)" d="M0,4.2 C0,8.5 3.1,13.3 11.2,13.3 C21.6,13.3 32.5,4.8 32.5,-4 C32.5,-9.9 27.5,-13.2 21.3,-13.2 C11.6,-13.2 0,-5 0,4.2"/>
<path class="Note" transform="matrix(0.992,0,0,0.992,2119.8,386.198)" d="M0,4.2 C0,8.5 3.1,13.3 11.2,13.3 C21.6,13.3 32.5,4.8 32.5,-4 C32.5,-9.9 27.5,-13.2 21.3,-13.2 C11.6,-13.2 0,-5 0,4.2"/>
<path class="Note" transform="matrix(0.992,0,0,0.992,1006.65,575.097)" d="M0,4.2 C0,8.5 3.1,13.3 11.2,13.3 C21.6,13.3 32.5,4.8 32.5,-4 C32.5,-9.9 27.5,-13.2 21.3,-13.2 C11.6,-13.2 0,-5 0,4.2"/>
<path class="Note" transform="matrix(0.992,0,0,0.992,2000.2,575.097)" d="M0,4.2 C0,8.5 3.1,13.3 11.2,13.3 C21.6,13.3 32.5,4.8 32.5,-4 C32.5,-9.9 27.5,-13.2 21.3,-13.2 C11.6,-13.2 0,-5 0,4.2"/>
<path class="Note" transform="matrix(0.992,0,0,0.992,1760.98,575.097)" d="M0,4.2 C0,8.5 3.1,13.3 11.2,13.3 C21.6,13.3 32.5,4.8 32.5,-4 C32.5,-9.9 27.5,-13.2 21.3,-13.2 C11.6,-13.2 0,-5 0,4.2"/>
<path class="Note" transform="matrix(0.992,0,0,0.992,1245.86,575.097)" d="M0,4.2 C0,8.5 3.1,13.3 11.2,13.3 C21.6,13.3 32.5,4.8 32.5,-4 C32.5,-9.9 27.5,-13.2 21.3,-13.2 C11.6,-13.2 0,-5 0,4.2"/>
<path class="Note" transform="matrix(0.992,0,0,0.992,2239.41,575.097)" d="M0,4.2 C0,8.5 3.1,13.3 11.2,13.3 C21.6,13.3 32.5,4.8 32.5,-4 C32.5,-9.9 27.5,-13.2 21.3,-13.2 C11.6,-13.2 0,-5 0,4.2"/>
<path class="Note" transform="matrix(0.992,0,0,0.992,1485.07,575.097)" d="M0,4.2 C0,8.5 3.1,13.3 11.2,13.3 C21.6,13.3 32.5,4.8 32.5,-4 C32.5,-9.9 27.5,-13.2 21.3,-13.2 C11.6,-13.2 0,-5 0,4.2"/>
<path class="Note" transform="matrix(0.992,0,0,0.992,2478.62,575.097)" d="M0,4.2 C0,8.5 3.1,13.3 11.2,13.3 C21.6,13.3 32.5,4.8 32.5,-4 C32.5,-9.9 27.5,-13.2 21.3,-13.2 C11.6,-13.2 0,-5 0,4.2"/>
<path class="Note" transform="matrix(0.992,0,0,0.992,767.436,575.097)" d="M0,4.2 C0,8.5 3.1,13.3 11.2,13.3 C21.6,13.3 32.5,4.8 32.5,-4 C32.5,-9.9 27.5,-13.2 21.3,-13.2 C11.6,-13.2 0,-5 0,4.2"/>
<path class="Clef" transform="matrix(0.992,0,0,0.992,549.056,386.198)" d="M1.3,-25.2 C0.6,-25.2 0,-24.6 0,-23.9 L0,23.9 C0,24.6 0.6,25.2 1.3,25.2 L12.3,25.2 C13,25.2 13.6,24.6 13.6,23.9 L13.6,-23.9 C13.6,-24.6 13,-25.2 12.3,-25.2 L1.3,-25.2 M22.9,-25.2 C22.2,-25.2 21.6,-24.6 21.6,-23.9 L21.6,23.9 C21.6,24.6 22.2,25.2 22.9,25.2 L33.9,25.2 C34.6,25.2 35.2,24.6 35.2,23.9 L35.2,-23.9 C35.2,-24.6 34.6,-25.2 33.9,-25.2 L22.9,-25.2 "/>
<path class="Clef" transform="matrix(0.992,0,0,0.992,549.056,575.097)" d="M1.3,-25.2 C0.6,-25.2 0,-24.6 0,-23.9 L0,23.9 C0,24.6 0.6,25.2 1.3,25.2 L12.3,25.2 C13,25.2 13.6,24.6 13.6,23.9 L13.6,-23.9 C13.6,-24.6 13,-25.2 12.3,-25.2 L1.3,-25.2 M22.9,-25.2 C22.2,-25.2 21.6,-24.6 21.6,-23.9 L21.6,23.9 C21.6,24.6 22.2,25.2 22.9,25.2 L33.9,25.2 C34.6,25.2 35.2,24.6 35.2,23.9 L35.2,-23.9 C35.2,-24.6 34.6,-25.2 33.9,-25.2 L22.9,-25.2 "/>
<path class="TimeSig" transform="matrix(0.992,0,0,0.992,607.383,361.398)" d="M20.8,12.7 L20.8,20.1 L12.5,20.1 C11.8,20.1 11.1,20.7 11.1,21.5 L11.1,23.4 C11.1,24.2 11.8,24.8 12.5,24.8 L42.8,24.8 C43.6,24.8 44.2,24.2 44.2,23.4 L44.2,21.5 C44.2,20.7 43.6,20.1 42.8,20.1 L33.9,20.1 L33.9,12.7 L42.8,12.7 C43.6,12.7 44.2,12 44.2,11.2 L44.2,9.3 C44.2,8.6 43.6,7.9 42.8,7.9 L33.9,7.9 L33.9,-8 C33.9,-8.6 33.6,-9.1 33.1,-9.3 L31.9,-9.9 C31.7,-10 31.4,-10.1 31.2,-10.1 C30.9,-10 30.5,-9.9 30.3,-9.7 L21.2,-1.4 C20.9,-1.1 20.8,-0.7 20.8,-0.3 L20.8,7.9 L9.3,7.9 C9.3,7.9 20.4,-4.1 32.2,-19.9 C32.6,-20.4 32.7,-20.9 32.7,-21.3 C32.7,-21.8 32.5,-22.2 32.4,-22.3 L30.2,-24.5 C30,-24.7 29.6,-24.9 29.2,-24.9 C28.6,-24.9 15.1,-24.9 14.4,-24.9 C13.6,-24.9 13.1,-24.3 13,-23.7 C13,-23.7 12.5,-16.3 9.9,-8.2 C7.3,-0.1 4.3,4.9 1.7,8.6 C1.7,8.6 1.4,9.1 1.4,9.7 C1.4,9.9 1.4,10.1 1.5,10.3 C1.9,11 2.5,12.1 2.5,12.1 C2.5,12.1 2.7,12.7 3.6,12.7 L20.8,12.7 "/>
<path class="TimeSig" transform="matrix(0.992,0,0,0.992,607.383,410.998)" d="M20.8,12.7 L20.8,20.1 L12.5,20.1 C11.8,20.1 11.1,20.7 11.1,21.5 L11.1,23.4 C11.1,24.2 11.8,24.8 12.5,24.8 L42.8,24.8 C43.6,24.8 44.2,24.2 44.2,23.4 L44.2,21.5 C44.2,20.7 43.6,20.1 42.8,20.1 L33.9,20.1 L33.9,12.7 L42.8,12.7 C43.6,12.7 44.2,12 44.2,11.2 L44.2,9.3 C44.2,8.6 43.6,7.9 42.8,7.9 L33.9,7.9 L33.9,-8 C33.9,-8.6 33.6,-9.1 33.1,-9.3 L31.9,-9.9 C31.7,-10 31.4,-10.1 31.2,-10.1 C30.9,-10 30.5,-9.9 30.3,-9.7 L21.2,-1.4 C20.9,-1.1 20.8,-0.7 20.8,-0.3 L20.8,7.9 L9.3,7.9 C9.3,7.9 20.4,-4.1 32.2,-19.9 C32.6,-20.4 32.7,-20.9 32.7,-21.3 C32.7,-21.8 32.5,-22.2 32.4,-22.3 L30.2,-24.5 C30,-24.7 29.6,-24.9 29.2,-24.9 C28.6,-24.9 15.1,-24.9 14.4,-24.9 C13.6,-24.9 13.1,-24.3 13,-23.7 C13,-23.7 12.5,-16.3 9.9,-8.2 C7.3,-0.1 4.3,4.9 1.7,8.6 C1.7,8.6 1.4,9.1 1.4,9.7 C1.4,9.9 1.4,10.1 1.5,10.3 C1.9,11 2.5,12.1 2.5,12.1 C2.5,12.1 2.7,12.7 3.6,12.7 L20.8,12.7 "/>
<path class="TimeSig" transform="matrix(0.992,0,0,0.992,607.383,550.297)" d="M20.8,12.7 L20.8,20.1 L12.5,20.1 C11.8,20.1 11.1,20.7 11.1,21.5 L11.1,23.4 C11.1,24.2 11.8,24.8 12.5,24.8 L42.8,24.8 C43.6,24.8 44.2,24.2 44.2,23.4 L44.2,21.5 C44.2,20.7 43.6,20.1 42.8,20.1 L33.9,20.1 L33.9,12.7 L42.8,12.7 C43.6,12.7 44.2,12 44.2,11.2 L44.2,9.3 C44.2,8.6 43.6,7.9 42.8,7.9 L33.9,7.9 L33.9,-8 C33.9,-8.6 33.6,-9.1 33.1,-9.3 L31.9,-9.9 C31.7,-10 31.4,-10.1 31.2,-10.1 C30.9,-10 30.5,-9.9 30.3,-9.7 L21.2,-1.4 C20.9,-1.1 20.8,-0.7 20.8,-0.3 L20.8,7.9 L9.3,7.9 C9.3,7.9 20.4,-4.1 32.2,-19.9 C32.6,-20.4 32.7,-20.9 32.7,-21.3 C32.7,-21.8 32.5,-22.2 32.4,-22.3 L30.2,-24.5 C30,-24.7 29.6,-24.9 29.2,-24.9 C28.6,-24.9 15.1,-24.9 14.4,-24.9 C13.6,-24.9 13.1,-24.3 13,-23.7 C13,-23.7 12.5,-16.3 9.9,-8.2 C7.3,-0.1 4.3,4.9 1.7,8.6 C1.7,8.6 1.4,9.1 1.4,9.7 C1.4,9.9 1.4,10.1 1.5,10.3 C1.9,11 2.5,12.1 2.5,12.1 C2.5,12.1 2.7,12.7 3.6,12.7 L20.8,12.7 "/>
<path class="TimeSig" transform="matrix(0.992,0,0,0.992,607.383,599.897)" d="M20.8,12.7 L20.8,20.1 L12.5,20.1 C11.8,20.1 11.1,20.7 11.1,21.5 L11.1,23.4 C11.1,24.2 11.8,24.8 12.5,24.8 L42.8,24.8 C43.6,24.8 44.2,24.2 44.2,23.4 L44.2,21.5 C44.2,20.7 43.6,20.1 42.8,20.1 L33.9,20.1 L33.9,12.7 L42.8,12.7 C43.6,12.7 44.2,12 44.2,11.2 L44.2,9.3 C44.2,8.6 43.6,7.9 42.8,7.9 L33.9,7.9 L33.9,-8 C33.9,-8.6 33.6,-9.1 33.1,-9.3 L31.9,-9.9 C31.7,-10 31.4,-10.1 31.2,-10.1 C30.9,-10 30.5,-9.9 30.3,-9.7 L21.2,-1.4 C20.9,-1.1 20.8,-0.7 20.8,-0.3 L20.8,7.9 L9.3,7.9 C9.3,7.9 20.4,-4.1 32.2,-19.9 C32.6,-20.4 32.7,-20.9 32.7,-21.3 C32.7,-21.8 32.5,-22.2 32.4,-22.3 L30.2,-24.5 C30,-24.7 29.6,-24.9 29.2,-24.9 C28.6,-24.9 15.1,-24.9 14.4,-24.9 C13.6,-24.9 13.1,-24.3 13,-23.7 C13,-23.7 12.5,-16.3 9.9,-8.2 C7.3,-0.1 4.3,4.9 1.7,8.6 C1.7,8.6 1.4,9.1 1.4,9.7 C1.4,9.9 1.4,10.1 1.5,10.3 C1.9,11 2.5,12.1 2.5,12.1 C2.5,12.1 2.7,12.7 3.6,12.7 L20.8,12.7 "/>
<path class="Dynamic" d="M2612.27,460.417 C2612.27,460.417 2611.38,457.051 2608.5,456.358 C2608.01,456.259 2607.51,456.16 2607.02,456.16 C2603.06,456.16 2600.78,460.516 2599.79,463.783 L2601.28,464.575 C2601.28,464.575 2602.96,459.229 2605.14,459.229 C2605.34,459.229 2605.44,459.229 2605.63,459.328 C2606.13,459.526 2606.33,460.12 2606.33,460.912 C2606.33,462.595 2605.44,465.466 2604.35,468.931 L2600.98,479.722 C2600.98,479.821 2600.98,479.92 2600.98,480.118 C2600.98,480.811 2601.18,481.306 2601.97,481.306 L2607.42,481.306 C2607.91,481.306 2608.31,481.207 2608.5,480.118 C2608.5,480.019 2608.6,479.722 2608.6,479.425 C2610.58,465.466 2613.75,461.308 2616.23,460.318 L2616.33,460.219 C2616.42,460.219 2616.52,460.219 2616.52,460.219 L2616.62,460.318 C2616.92,460.417 2617.02,460.615 2617.12,461.011 C2617.12,463.882 2615.43,468.931 2614.44,471.505 C2613.85,472.99 2613.55,474.475 2613.55,475.762 C2613.55,478.831 2615.14,481.405 2618.5,481.405 C2622.96,481.405 2624.74,477.742 2626.13,474.178 L2626.13,473.881 C2626.23,473.881 2626.23,473.782 2626.23,473.782 L2624.54,472.99 C2624.54,472.99 2623.45,475.663 2622.76,476.851 C2622.27,477.742 2621.77,477.94 2621.28,477.94 C2621.08,477.94 2620.98,477.94 2620.78,477.841 C2620.19,477.643 2619.99,477.247 2619.99,476.653 C2619.99,475.762 2620.38,474.574 2620.78,473.386 C2622.07,469.624 2623.06,465.862 2623.06,461.803 C2623.06,461.308 2623.06,460.813 2622.96,460.417 C2622.46,457.744 2621.28,456.457 2619.2,456.457 C2616.62,456.457 2613.85,458.239 2612.56,460.021 L2612.27,460.417 "/>
<path class="Dynamic" d="M770.178,456.259 C772.95,446.062 773.742,444.28 775.227,443.092 C776.019,442.498 776.712,442.3 777.207,442.3 C777.405,442.3 777.603,442.399 777.702,442.399 C778.296,442.498 778.791,443.092 778.791,443.686 C778.791,444.181 778.593,444.676 778.197,444.874 C777.207,445.666 776.712,446.953 776.712,448.24 C776.712,448.735 776.811,449.23 776.91,449.725 C777.207,450.616 777.999,451.606 778.989,452.002 C779.385,452.2 779.979,452.299 780.573,452.299 C782.751,452.299 784.83,450.814 785.424,448.735 C785.622,448.141 785.721,447.448 785.721,446.854 C785.721,445.666 785.424,444.478 784.731,443.389 C783.345,440.716 779.385,439.528 776.514,439.528 C767.406,439.528 763.347,449.032 760.872,456.358 L760.773,456.556 L753.249,456.556 C752.655,456.556 752.259,456.952 752.259,457.546 L752.259,459.724 C752.259,460.318 752.655,460.714 753.249,460.714 L759.486,460.714 L759.387,461.11 C758.397,465.07 757.605,468.535 756.912,471.802 C756.12,475.465 755.229,479.326 754.041,483.88 L753.744,485.068 C751.665,493.186 750.972,496.057 748.596,497.641 C748.101,497.938 747.507,498.136 746.913,498.136 C746.418,498.136 746.022,498.037 745.626,497.74 C745.329,497.542 744.933,497.146 745.032,496.651 C745.131,496.255 745.428,495.859 745.923,495.661 C747.804,494.869 748.398,492.988 748.398,491.404 C748.398,490.018 747.408,487.444 743.844,487.444 C741.171,487.444 738.696,490.018 738.696,492.691 C738.696,497.938 742.26,500.71 746.814,500.71 C749.982,500.71 752.259,499.621 754.734,497.146 C759.09,492.79 763.842,477.94 766.317,469.525 C767.208,466.357 768.099,463.189 768.792,460.912 L768.792,460.714 L784.236,460.714 L784.137,461.11 C783.147,465.07 782.355,468.535 781.662,471.802 C780.87,475.465 779.979,479.326 778.791,483.88 L778.494,485.068 C776.415,493.186 775.722,496.057 773.346,497.641 C772.851,497.938 772.257,498.136 771.663,498.136 C771.168,498.136 770.772,498.037 770.376,497.74 C770.079,497.542 769.683,497.047 769.782,496.552 C769.881,496.156 770.178,495.859 770.673,495.661 C772.554,494.869 773.148,492.988 773.148,491.404 C773.148,490.018 772.158,487.444 768.594,487.444 C765.921,487.444 763.446,489.919 763.446,492.592 C763.446,497.839 767.01,500.71 771.564,500.71 C774.732,500.71 777.009,499.621 779.484,497.146 C783.84,492.79 788.592,477.94 791.067,469.525 C791.958,466.357 792.849,463.189 793.542,460.912 L793.542,460.714 L800.769,460.714 C801.363,460.714 801.759,460.318 801.759,459.724 L801.759,457.546 C801.759,456.952 801.363,456.556 800.769,456.556 L794.829,456.556 L794.928,456.259 C797.7,446.062 798.492,444.28 799.977,443.092 C800.769,442.498 801.462,442.3 801.957,442.3 C802.155,442.3 802.353,442.399 802.452,442.399 C803.046,442.498 803.541,443.092 803.541,443.686 C803.541,444.181 803.343,444.676 802.947,444.874 C801.957,445.666 801.462,446.953 801.462,448.24 C801.462,448.735 801.561,449.23 801.66,449.725 C801.957,450.616 802.749,451.606 803.739,452.002 C804.135,452.2 804.729,452.299 805.323,452.299 C807.501,452.299 809.58,450.814 810.174,448.735 C810.372,448.141 810.471,447.448 810.471,446.854 C810.471,445.666 810.174,444.478 809.481,443.389 C808.095,440.716 804.135,439.528 801.264,439.528 C792.156,439.528 788.097,449.032 785.622,456.358 L785.523,456.556 L770.079,456.556 L770.178,456.259 "/>
<path class="Dynamic" d="M781.478,649.316 C781.478,649.316 780.587,645.95 777.716,645.257 C777.221,645.158 776.726,645.059 776.231,645.059 C772.271,645.059 769.994,649.415 769.004,652.682 L770.489,653.474 C770.489,653.474 772.172,648.128 774.35,648.128 C774.548,648.128 774.647,648.128 774.845,648.227 C775.34,648.425 775.538,649.019 775.538,649.811 C775.538,651.494 774.647,654.365 773.558,657.83 L770.192,668.621 C770.192,668.72 770.192,668.819 770.192,669.017 C770.192,669.71 770.39,670.205 771.182,670.205 L776.627,670.205 C777.122,670.205 777.518,670.106 777.716,669.017 C777.716,668.918 777.815,668.621 777.815,668.324 C779.795,654.365 782.963,650.207 785.438,649.217 L785.537,649.118 C785.636,649.118 785.735,649.118 785.735,649.118 L785.834,649.217 C786.131,649.316 786.23,649.514 786.329,649.91 C786.329,652.781 784.646,657.83 783.656,660.404 C783.062,661.889 782.765,663.374 782.765,664.661 C782.765,667.73 784.349,670.304 787.715,670.304 C792.17,670.304 793.952,666.641 795.338,663.077 L795.338,662.78 C795.437,662.78 795.437,662.681 795.437,662.681 L793.754,661.889 C793.754,661.889 792.665,664.562 791.972,665.75 C791.477,666.641 790.982,666.839 790.487,666.839 C790.289,666.839 790.19,666.839 789.992,666.74 C789.398,666.542 789.2,666.146 789.2,665.552 C789.2,664.661 789.596,663.473 789.992,662.285 C791.279,658.523 792.269,654.761 792.269,650.702 C792.269,650.207 792.269,649.712 792.17,649.316 C791.675,646.643 790.487,645.356 788.408,645.356 C785.834,645.356 783.062,647.138 781.775,648.92 L781.478,649.316 "/>
<path class="Dynamic" d="M2481.36,645.158 C2484.13,634.961 2484.92,633.179 2486.41,631.991 C2487.2,631.397 2487.89,631.199 2488.39,631.199 C2488.59,631.199 2488.79,631.298 2488.88,631.298 C2489.48,631.397 2489.97,631.991 2489.97,632.585 C2489.97,633.08 2489.78,633.575 2489.38,633.773 C2488.39,634.565 2487.89,635.852 2487.89,637.139 C2487.89,637.634 2487.99,638.129 2488.09,638.624 C2488.39,639.515 2489.18,640.505 2490.17,640.901 C2490.57,641.099 2491.16,641.198 2491.76,641.198 C2493.93,641.198 2496.01,639.713 2496.61,637.634 C2496.8,637.04 2496.9,636.347 2496.9,635.753 C2496.9,634.565 2496.61,633.377 2495.91,632.288 C2494.53,629.615 2490.57,628.427 2487.7,628.427 C2478.59,628.427 2474.53,637.931 2472.05,645.257 L2471.96,645.455 L2464.43,645.455 C2463.84,645.455 2463.44,645.851 2463.44,646.445 L2463.44,648.623 C2463.44,649.217 2463.84,649.613 2464.43,649.613 L2470.67,649.613 L2470.57,650.009 C2469.58,653.969 2468.79,657.434 2468.09,660.701 C2467.3,664.364 2466.41,668.225 2465.22,672.779 L2464.93,673.967 C2462.85,682.085 2462.15,684.956 2459.78,686.54 C2459.28,686.837 2458.69,687.035 2458.1,687.035 C2457.6,687.035 2457.2,686.936 2456.81,686.639 C2456.51,686.441 2456.12,686.045 2456.21,685.55 C2456.31,685.154 2456.61,684.758 2457.11,684.56 C2458.99,683.768 2459.58,681.887 2459.58,680.303 C2459.58,678.917 2458.59,676.343 2455.03,676.343 C2452.35,676.343 2449.88,678.917 2449.88,681.59 C2449.88,686.837 2453.44,689.609 2458,689.609 C2461.16,689.609 2463.44,688.52 2465.92,686.045 C2470.27,681.689 2475.02,666.839 2477.5,658.424 C2478.39,655.256 2479.28,652.088 2479.97,649.811 L2479.97,649.613 L2495.42,649.613 L2495.32,650.009 C2494.33,653.969 2493.54,657.434 2492.84,660.701 C2492.05,664.364 2491.16,668.225 2489.97,672.779 L2489.68,673.967 C2487.6,682.085 2486.9,684.956 2484.53,686.54 C2484.03,686.837 2483.44,687.035 2482.85,687.035 C2482.35,687.035 2481.95,686.936 2481.56,686.639 C2481.26,686.441 2480.87,685.946 2480.96,685.451 C2481.06,685.055 2481.36,684.758 2481.86,684.56 C2483.74,683.768 2484.33,681.887 2484.33,680.303 C2484.33,678.917 2483.34,676.343 2479.78,676.343 C2477.1,676.343 2474.63,678.818 2474.63,681.491 C2474.63,686.738 2478.19,689.609 2482.75,689.609 C2485.91,689.609 2488.19,688.52 2490.67,686.045 C2495.02,681.689 2499.77,666.839 2502.25,658.424 C2503.14,655.256 2504.03,652.088 2504.72,649.811 L2504.72,649.613 L2511.95,649.613 C2512.55,649.613 2512.94,649.217 2512.94,648.623 L2512.94,646.445 C2512.94,645.851 2512.55,645.455 2511.95,645.455 L2506.01,645.455 L2506.11,645.158 C2508.88,634.961 2509.67,633.179 2511.16,631.991 C2511.95,631.397 2512.64,631.199 2513.14,631.199 C2513.34,631.199 2513.54,631.298 2513.63,631.298 C2514.23,631.397 2514.72,631.991 2514.72,632.585 C2514.72,633.08 2514.53,633.575 2514.13,633.773 C2513.14,634.565 2512.64,635.852 2512.64,637.139 C2512.64,637.634 2512.74,638.129 2512.84,638.624 C2513.14,639.515 2513.93,640.505 2514.92,640.901 C2515.32,641.099 2515.91,641.198 2516.51,641.198 C2518.68,641.198 2520.76,639.713 2521.36,637.634 C2521.55,637.04 2521.65,636.347 2521.65,635.753 C2521.65,634.565 2521.36,633.377 2520.66,632.288 C2519.28,629.615 2515.32,628.427 2512.45,628.427 C2503.34,628.427 2499.28,637.931 2496.8,645.257 L2496.71,645.455 L2481.26,645.455 L2481.36,645.158 "/>
<path class="Beam" fill-rule="evenodd" d="M1790.74,317.998 L2152.03,317.998 L2152.03,330.398 L1790.74,330.398 L1790.74,317.998 "/>
<path class="Beam" fill-rule="evenodd" d="M2269.16,317.998 L2630.46,317.998 L2630.46,330.398 L2269.16,330.398 L2269.16,317.998 "/>
<path class="Beam" fill-rule="evenodd" d="M1275.61,317.998 L1636.91,317.998 L1636.91,330.398 L1275.61,330.398 L1275.61,317.998 "/>
<path class="Beam" fill-rule="evenodd" d="M797.188,317.998 L1158.48,317.998 L1158.48,330.398 L797.188,330.398 L797.188,317.998 "/>
<path class="Tempo" d="M2623.47,244.122 L2620.2,244.122 L2620.2,286.395 C2619.11,285.702 2617.73,285.306 2616.14,285.108 C2612.58,285.108 2609.71,285.504 2606.54,287.286 C2602.58,289.365 2598.23,293.721 2598.23,298.572 C2598.23,303.324 2602.48,305.601 2606.84,305.601 C2613.77,305.601 2623.47,299.661 2623.47,292.137 L2623.47,244.122 "/>
<path class="Tempo" d="M2645.72,282.078 L2675.96,282.078 L2675.96,275.178 L2645.72,275.178 L2645.72,282.078 M2645.72,294.438 L2675.96,294.438 L2675.96,287.538 L2645.72,287.538 L2645.72,294.438 M2718.5,257.478 L2716.4,257.478 C2712.62,260.298 2708.36,261.498 2701.22,261.618 L2701.22,264.978 L2703.74,264.978 C2709.08,264.978 2709.14,265.098 2709.08,270.018 L2709.08,291.318 C2709.08,295.038 2709.08,295.218 2708.66,295.818 C2708.12,296.478 2706.92,296.718 2703.68,296.718 L2701.76,296.718 L2701.76,299.958 L2725.7,299.958 L2725.7,296.718 L2723.78,296.718 C2720.6,296.718 2719.46,296.478 2718.92,295.818 C2718.5,295.218 2718.5,294.978 2718.5,291.318 L2718.5,257.478 M2759.3,283.998 L2758.64,286.998 C2758.1,289.398 2757.74,290.178 2757.26,290.478 C2756.66,290.898 2756.54,290.898 2752.76,290.958 L2741.18,290.958 C2743.28,289.158 2744.84,288.018 2747.18,286.458 C2755.64,280.998 2757.38,279.678 2759.12,277.458 C2761.16,274.758 2762.36,271.578 2762.36,268.758 C2762.36,262.338 2756.06,257.478 2747.6,257.478 C2739.44,257.478 2733.14,262.758 2733.14,269.598 C2733.14,273.798 2735.48,276.498 2739.08,276.498 C2742.2,276.498 2744.18,274.518 2744.18,271.398 C2744.18,268.818 2743.04,267.318 2740.28,265.998 C2739.62,265.698 2739.32,265.338 2739.32,264.858 C2739.32,262.938 2742.56,260.898 2745.56,260.898 C2749.76,260.898 2752.16,263.478 2752.16,267.918 C2752.16,272.898 2750.24,276.438 2743.88,283.218 C2737.16,290.358 2734.82,293.058 2731.82,297.378 L2731.82,300.198 C2733.38,300.018 2734.04,299.958 2734.94,299.958 L2757.5,299.958 C2758.64,299.958 2759.36,300.018 2761.16,300.198 L2762.54,283.998 L2759.3,283.998 M2782.34,257.478 C2773.34,257.478 2766.74,266.658 2766.74,279.138 C2766.74,291.618 2773.34,300.798 2782.34,300.798 C2791.16,300.798 2797.88,291.618 2797.88,279.438 C2797.88,272.358 2796.26,267.138 2792.72,262.698 C2789.9,259.278 2786.36,257.478 2782.34,257.478 M2782.28,260.598 C2784.08,260.598 2785.52,261.678 2786.18,263.598 C2786.96,265.578 2787.44,271.878 2787.44,279.318 C2787.44,285.498 2786.96,291.978 2786.42,294.018 C2785.76,296.418 2784.32,297.678 2782.28,297.678 C2780.42,297.678 2779.04,296.658 2778.32,294.678 C2777.54,292.698 2777.06,286.338 2777.06,279.138 C2777.06,272.838 2777.54,266.298 2778.08,264.258 C2778.74,261.858 2780.18,260.598 2782.28,260.598"/>
<path class="Tempo" d="M630.244,240.233 L626.977,240.233 L626.977,282.506 C625.888,281.813 624.502,281.417 622.918,281.219 C619.354,281.219 616.483,281.615 613.315,283.397 C609.355,285.476 604.999,289.832 604.999,294.683 C604.999,299.435 609.256,301.712 613.612,301.712 C620.542,301.712 630.244,295.772 630.244,288.248 L630.244,240.233 "/>
<path class="Tempo" d="M652.496,278.189 L682.736,278.189 L682.736,271.289 L652.496,271.289 L652.496,278.189 M652.496,290.549 L682.736,290.549 L682.736,283.649 L652.496,283.649 L652.496,290.549 M715.134,274.409 C715.134,269.429 716.214,256.709 723.054,256.709 C724.554,256.709 725.634,257.249 725.634,258.089 C725.634,258.509 725.574,258.689 725.154,259.229 C724.374,260.249 723.954,261.569 723.954,262.769 C723.954,265.469 726.114,267.389 729.234,267.389 C732.654,267.389 734.814,265.289 734.814,261.989 C734.814,256.829 730.434,253.589 723.594,253.589 C717.834,253.589 713.394,255.809 709.914,260.429 C706.374,265.049 704.754,270.569 704.754,277.709 C704.754,283.709 706.014,287.969 708.834,291.449 C711.774,295.049 715.794,296.909 720.714,296.909 C729.534,296.909 735.954,290.969 735.954,282.689 C735.954,275.489 731.034,270.449 723.894,270.449 C719.994,270.449 717.654,271.529 715.134,274.409 M720.774,274.949 C723.894,275.069 725.514,277.949 725.514,283.349 C725.514,290.309 723.774,294.089 720.594,294.089 C717.354,294.089 715.494,290.609 715.494,284.429 C715.494,282.269 715.674,280.409 715.974,279.029 C716.634,276.449 718.494,274.829 720.774,274.949 M754.672,253.589 C745.672,253.589 739.072,262.769 739.072,275.249 C739.072,287.729 745.672,296.909 754.672,296.909 C763.492,296.909 770.212,287.729 770.212,275.549 C770.212,268.469 768.592,263.249 765.052,258.809 C762.232,255.389 758.692,253.589 754.672,253.589 M754.612,256.709 C756.412,256.709 757.852,257.789 758.512,259.709 C759.292,261.689 759.772,267.989 759.772,275.429 C759.772,281.609 759.292,288.089 758.752,290.129 C758.092,292.529 756.652,293.789 754.612,293.789 C752.752,293.789 751.372,292.769 750.652,290.789 C749.872,288.809 749.392,282.449 749.392,275.249 C749.392,268.949 749.872,262.409 750.412,260.369 C751.072,257.969 752.512,256.709 754.612,256.709"/>
<polyline class="HairpinSegment" fill="none" stroke="#000000" stroke-width="2.98" stroke-linejoin="bevel" points="822.854,483.166 2587.39,468.906 822.854,454.646"/>
<polyline class="HairpinSegment" fill="none" stroke="#000000" stroke-width="2.98" stroke-linejoin="bevel" points="2437.47,672.065 807.818,657.805 2437.47,643.545"/>
<path class="GradualTempoChangeSegment" d="M827.633,273.707 C827.633,269.807 826.913,267.947 824.813,266.207 C822.593,264.467 818.873,263.507 814.133,263.507 C805.853,263.507 800.453,266.567 800.453,271.247 C800.453,273.827 802.493,275.747 805.313,275.747 C808.133,275.747 810.233,274.067 810.233,271.847 C810.233,271.127 809.933,270.287 809.393,269.567 C808.853,268.847 808.853,268.847 808.853,268.547 C808.853,267.527 810.833,266.627 813.233,266.627 C816.893,266.627 818.213,268.127 818.213,272.327 L818.213,275.447 C814.373,276.227 810.473,277.067 806.813,278.327 C801.233,280.187 798.833,282.707 798.833,286.667 C798.833,291.107 802.193,293.687 808.073,293.687 C813.233,293.687 816.353,292.547 819.533,289.427 C820.553,292.127 822.833,293.687 825.893,293.687 C829.313,293.687 832.493,291.287 832.493,288.707 C832.493,288.107 832.193,287.747 831.593,287.747 C831.233,287.747 830.873,287.867 830.393,288.167 C829.853,288.527 829.673,288.587 829.253,288.587 C827.933,288.587 827.633,287.807 827.633,284.267 L827.633,273.707 M818.213,278.687 L818.213,282.047 C818.213,286.667 816.113,289.607 812.693,289.607 C810.353,289.607 808.853,287.987 808.853,285.467 C808.853,282.227 810.713,280.427 815.033,279.407 L818.213,278.687 M861.829,282.167 C860.329,286.187 858.109,289.607 853.249,289.607 C848.329,289.607 845.569,285.407 845.569,277.967 C845.569,270.767 848.209,266.627 852.709,266.627 C854.449,266.627 855.829,267.347 855.829,268.307 C855.829,268.547 855.829,268.547 855.169,269.387 C854.149,270.767 853.969,271.247 853.969,272.387 C853.969,274.967 856.009,276.767 858.889,276.767 C862.129,276.767 864.229,274.787 864.229,271.667 C864.229,266.687 859.549,263.507 852.289,263.507 C842.329,263.507 835.189,269.987 835.189,279.047 C835.189,287.807 841.669,293.687 851.329,293.687 C858.529,293.687 862.849,289.727 864.949,283.187 L861.829,282.167 M895.126,282.167 C893.626,286.187 891.406,289.607 886.546,289.607 C881.626,289.607 878.866,285.407 878.866,277.967 C878.866,270.767 881.506,266.627 886.006,266.627 C887.746,266.627 889.126,267.347 889.126,268.307 C889.126,268.547 889.126,268.547 888.466,269.387 C887.446,270.767 887.266,271.247 887.266,272.387 C887.266,274.967 889.306,276.767 892.186,276.767 C895.426,276.767 897.526,274.787 897.526,271.667 C897.526,266.687 892.846,263.507 885.586,263.507 C875.626,263.507 868.486,269.987 868.486,279.047 C868.486,287.807 874.966,293.687 884.626,293.687 C891.826,293.687 896.146,289.727 898.246,283.187 L895.126,282.167 M932.261,279.107 L932.261,278.147 C932.261,269.207 926.741,263.507 917.921,263.507 C913.061,263.507 909.101,265.067 906.101,268.127 C903.401,270.947 901.781,274.907 901.781,278.867 C901.781,283.187 903.641,287.447 906.641,290.027 C909.401,292.367 913.421,293.687 917.981,293.687 C925.001,293.687 929.621,290.567 932.261,284.147 L929.321,282.947 C926.921,287.627 924.281,289.607 920.321,289.607 C917.561,289.607 915.161,288.287 913.661,286.007 C912.641,284.387 912.221,282.527 912.161,279.107 L932.261,279.107 M912.221,275.807 C912.221,270.107 914.501,266.627 918.101,266.627 C921.221,266.627 922.841,269.147 922.841,273.887 C922.841,275.327 922.421,275.807 921.221,275.807 L912.221,275.807 M948.705,248.567 L934.305,249.467 L934.305,252.527 L935.445,252.527 C939.105,252.527 939.345,252.827 939.285,258.107 L939.285,287.387 C939.225,288.227 939.165,288.587 938.925,288.947 C938.505,289.487 937.365,289.727 934.725,289.727 L934.485,289.727 L934.485,292.787 L953.205,292.787 L953.205,289.727 L952.785,289.727 C949.185,289.607 948.705,289.307 948.705,287.147 L948.705,248.567 M963.029,282.407 C959.909,282.407 957.389,284.927 957.389,288.047 C957.389,291.107 959.909,293.687 962.969,293.687 C966.149,293.687 968.669,291.167 968.669,288.047 C968.669,284.927 966.149,282.407 963.029,282.407"/>
</svg>
