<?xml version="1.0" encoding="UTF-8" standalone="no"?>
<svg width="2977.2px" height="900px" viewBox="0 0 2977.2 900"
 xmlns="http://www.w3.org/2000/svg" xmlns:xlink="http://www.w3.org/1999/xlink" version="1.2" baseProfile="tiny">
<title>Untitled score</title>
<desc>Generated by MuseScore 4.1.0</desc>
<path class="" fill="#ffffff" fill-rule="evenodd" d="M0,0 L2977.2,0 L2977.2,900 L0,900 L0,0 "/>
<polyline class="StaffLines" fill="none" stroke="#000000" stroke-width="2.73" stroke-linejoin="bevel" points="421.394,295.367 2869.2,295.367"/>
<polyline class="StaffLines" fill="none" stroke="#000000" stroke-width="2.73" stroke-linejoin="bevel" points="421.394,535.483 2869.2,535.483"/>
<path class="InstrumentName" d="M136.216,291.392 L136.216,302.592 C136.216,305.142 136.216,305.242 135.916,305.692 C135.516,306.192 134.566,306.392 131.716,306.392 L130.816,306.392 L130.816,308.742 L147.216,308.742 L147.216,306.392 L146.316,306.392 C143.466,306.392 142.516,306.192 142.116,305.692 C141.816,305.242 141.816,305.192 141.816,302.592 L141.816,278.792 C141.816,276.192 141.816,276.142 142.116,275.692 C142.566,275.142 143.466,274.992 146.316,274.992 L147.216,274.992 L147.216,272.642 L131.016,272.642 L131.016,274.992 L131.716,274.992 C134.566,274.992 135.466,275.142 135.916,275.692 C136.216,276.142 136.216,276.242 136.216,278.792 L136.216,288.692 L119.466,288.692 L119.466,278.792 C119.466,276.242 119.466,276.142 119.816,275.692 C120.216,275.142 121.116,274.992 123.966,274.992 L124.916,274.992 L124.916,272.642 L108.466,272.642 L108.466,274.992 L109.366,274.992 C112.216,274.992 113.116,275.142 113.566,275.692 C113.866,276.142 113.866,276.242 113.866,278.792 L113.866,302.592 C113.866,305.092 113.866,305.242 113.566,305.692 C113.166,306.192 112.216,306.392 109.366,306.392 L108.466,306.392 L108.466,308.742 L124.916,308.742 L124.916,306.392 L123.966,306.392 C121.116,306.342 120.216,306.192 119.816,305.692 C119.466,305.242 119.466,305.142 119.466,302.592 L119.466,291.392 L136.216,291.392 M171.209,292.642 C171.209,289.492 170.659,287.892 169.209,286.692 C167.559,285.342 165.109,284.692 161.909,284.692 C156.259,284.692 152.159,287.342 152.159,290.992 C152.159,292.842 153.309,294.042 155.059,294.042 C156.659,294.042 157.759,292.992 157.759,291.492 C157.759,290.842 157.509,290.142 157.009,289.442 C156.709,289.092 156.659,288.992 156.659,288.742 C156.659,287.742 158.659,286.842 161.059,286.842 C162.659,286.842 164.409,287.342 165.209,288.092 C166.159,288.892 166.509,290.092 166.509,292.342 L166.509,294.292 C161.309,295.192 159.659,295.592 157.209,296.542 C152.859,298.142 150.809,300.442 150.809,303.642 C150.809,307.242 153.609,309.492 158.059,309.492 C161.509,309.492 164.609,308.092 166.759,305.542 C167.559,308.092 168.809,309.092 171.159,309.092 C173.409,309.092 175.759,307.642 175.759,306.192 C175.759,305.842 175.559,305.592 175.259,305.592 C175.059,305.592 174.859,305.642 174.509,305.792 C173.809,306.092 173.509,306.142 173.109,306.142 C171.709,306.142 171.209,305.242 171.209,302.692 L171.209,292.642 M166.509,298.742 C166.509,301.742 166.359,302.442 165.509,303.742 C164.259,305.592 162.009,306.842 159.809,306.842 C157.509,306.842 155.859,305.192 155.859,302.942 C155.859,300.842 156.909,299.342 159.109,298.292 C160.659,297.592 162.609,297.092 166.509,296.442 L166.509,298.742 M186.406,285.442 L177.756,285.992 L177.756,288.142 L179.556,288.142 C181.456,288.192 181.706,288.492 181.706,290.642 L181.706,304.942 C181.656,305.692 181.606,305.992 181.406,306.242 C181.056,306.692 180.106,306.892 177.956,306.942 L177.756,306.942 L177.756,308.742 L190.406,308.742 L190.406,306.942 L190.206,306.942 C186.856,306.842 186.406,306.592 186.406,304.792 L186.406,297.392 C186.406,294.942 186.756,292.692 187.306,291.542 C188.356,289.292 190.606,287.742 192.756,287.742 C194.056,287.742 195.556,288.442 196.306,289.492 C197.056,290.592 197.406,292.092 197.406,294.492 L197.406,304.942 C197.356,305.692 197.306,305.992 197.106,306.242 C196.756,306.692 195.756,306.892 193.606,306.942 L193.406,306.942 L193.406,308.742 L206.056,308.742 L206.056,306.942 L205.856,306.942 C202.556,306.842 202.106,306.592 202.106,304.792 L202.106,294.742 C202.106,291.142 201.956,290.242 201.056,288.542 C199.806,286.142 197.306,284.692 194.306,284.692 C191.056,284.692 188.606,286.192 186.406,289.492 L186.406,285.442 M225.953,309.092 L234.653,308.742 L234.653,306.592 L233.753,306.592 C230.903,306.442 230.653,306.142 230.653,302.942 L230.653,271.892 L220.853,272.442 L220.853,274.592 L223.803,274.592 C225.703,274.642 225.953,274.942 225.953,277.092 L225.953,288.392 C224.103,285.842 221.953,284.692 219.053,284.692 C213.403,284.692 209.103,290.142 209.103,297.342 C209.103,304.442 213.253,309.492 219.053,309.492 C222.203,309.492 224.353,308.142 225.953,305.142 L225.953,309.092 M220.053,287.392 C222.103,287.392 224.053,288.892 224.953,291.192 C225.603,292.692 225.903,294.742 225.903,297.192 C225.903,303.042 223.603,306.792 220.003,306.792 C216.453,306.792 214.353,303.492 214.353,297.942 C214.353,294.942 214.653,292.692 215.303,291.042 C216.153,288.792 218.003,287.392 220.053,287.392 M281.481,272.292 L279.581,272.292 L277.581,275.242 C273.931,272.592 272.081,271.892 268.631,271.892 C263.881,271.892 259.831,273.892 256.481,277.892 C253.281,281.692 251.781,285.892 251.781,291.042 C251.781,301.842 258.831,309.492 268.681,309.492 C276.681,309.492 281.781,304.792 282.931,296.392 L280.581,295.992 C279.231,303.442 275.431,307.142 269.281,307.142 C261.881,307.142 258.381,302.042 258.381,291.242 C258.381,285.542 259.131,281.792 260.831,278.792 C262.381,275.992 265.431,274.242 268.681,274.242 C272.181,274.242 275.281,276.092 277.181,279.292 C278.131,280.942 278.831,282.792 280.031,286.742 L282.231,286.742 L281.481,272.292 M295.825,271.892 L286.575,272.442 L286.575,274.592 L289.025,274.592 C290.875,274.642 291.125,274.942 291.125,277.092 L291.125,304.942 C291.075,305.692 291.025,305.992 290.825,306.242 C290.475,306.692 289.525,306.892 287.375,306.942 L287.025,306.942 L287.025,308.742 L299.975,308.742 L299.975,306.942 L299.625,306.942 C296.275,306.842 295.825,306.592 295.825,304.792 L295.825,271.892 M323.975,292.642 C323.975,289.492 323.425,287.892 321.975,286.692 C320.325,285.342 317.875,284.692 314.675,284.692 C309.025,284.692 304.925,287.342 304.925,290.992 C304.925,292.842 306.075,294.042 307.825,294.042 C309.425,294.042 310.525,292.992 310.525,291.492 C310.525,290.842 310.275,290.142 309.775,289.442 C309.475,289.092 309.425,288.992 309.425,288.742 C309.425,287.742 311.425,286.842 313.825,286.842 C315.425,286.842 317.175,287.342 317.975,288.092 C318.925,288.892 319.275,290.092 319.275,292.342 L319.275,294.292 C314.075,295.192 312.425,295.592 309.975,296.542 C305.625,298.142 303.575,300.442 303.575,303.642 C303.575,307.242 306.375,309.492 310.825,309.492 C314.275,309.492 317.375,308.092 319.525,305.542 C320.325,308.092 321.575,309.092 323.925,309.092 C326.175,309.092 328.525,307.642 328.525,306.192 C328.525,305.842 328.325,305.592 328.025,305.592 C327.825,305.592 327.625,305.642 327.275,305.792 C326.575,306.092 326.275,306.142 325.875,306.142 C324.475,306.142 323.975,305.242 323.975,302.692 L323.975,292.642 M319.275,298.742 C319.275,301.742 319.125,302.442 318.275,303.742 C317.025,305.592 314.775,306.842 312.575,306.842 C310.275,306.842 308.625,305.192 308.625,302.942 C308.625,300.842 309.675,299.342 311.875,298.292 C313.425,297.592 315.375,297.092 319.275,296.442 L319.275,298.742 M339.222,285.442 L330.572,285.992 L330.572,288.142 L332.372,288.142 C334.272,288.192 334.522,288.492 334.522,290.642 L334.522,315.092 C334.472,315.792 334.422,316.092 334.222,316.342 C333.872,316.792 332.922,316.992 330.772,317.042 L330.572,317.042 L330.572,318.842 L343.572,318.842 L343.572,317.042 L343.022,317.042 C339.672,316.942 339.222,316.692 339.222,314.892 L339.222,305.442 C340.872,308.342 342.722,309.492 345.822,309.492 C352.472,309.492 355.922,302.942 355.922,296.992 C355.922,291.342 352.472,284.692 346.122,284.692 C343.022,284.692 340.972,285.992 339.222,288.992 L339.222,285.442 M345.222,287.392 C348.672,287.392 350.672,290.842 350.672,296.692 C350.672,303.142 348.672,306.792 345.072,306.792 C341.472,306.792 339.172,303.092 339.172,297.342 C339.172,291.092 341.422,287.392 345.222,287.392 M387.85,273.542 C386.15,275.592 381.55,277.142 376.95,277.242 L376.95,279.392 L381.35,279.392 C384.25,279.442 384.55,279.742 384.45,282.542 L384.45,302.592 C384.45,305.142 384.45,305.242 384.15,305.692 C383.75,306.192 382.8,306.392 380,306.392 L376.75,306.392 L376.75,308.742 L396.55,308.742 L396.55,306.392 L393.8,306.392 C391,306.392 390.05,306.192 389.65,305.692 C389.3,305.242 389.3,305.192 389.3,302.592 L389.3,281.942 C389.3,279.142 389.4,276.792 389.65,273.542 L387.85,273.542 "/>
<path class="InstrumentName" d="M135.762,531.508 L135.762,542.708 C135.762,545.258 135.762,545.358 135.463,545.808 C135.063,546.308 134.113,546.508 131.262,546.508 L130.363,546.508 L130.363,548.858 L146.762,548.858 L146.762,546.508 L145.863,546.508 C143.012,546.508 142.063,546.308 141.662,545.808 C141.363,545.358 141.363,545.308 141.363,542.708 L141.363,518.908 C141.363,516.308 141.363,516.258 141.662,515.808 C142.113,515.258 143.012,515.108 145.863,515.108 L146.762,515.108 L146.762,512.758 L130.563,512.758 L130.563,515.108 L131.262,515.108 C134.113,515.108 135.012,515.258 135.463,515.808 C135.762,516.258 135.762,516.358 135.762,518.908 L135.762,528.808 L119.013,528.808 L119.013,518.908 C119.013,516.358 119.013,516.258 119.362,515.808 C119.763,515.258 120.662,515.108 123.513,515.108 L124.463,515.108 L124.463,512.758 L108.013,512.758 L108.013,515.108 L108.912,515.108 C111.763,515.108 112.662,515.258 113.112,515.808 C113.412,516.258 113.412,516.358 113.412,518.908 L113.412,542.708 C113.412,545.208 113.412,545.358 113.112,545.808 C112.713,546.308 111.763,546.508 108.912,546.508 L108.013,546.508 L108.013,548.858 L124.463,548.858 L124.463,546.508 L123.513,546.508 C120.662,546.458 119.763,546.308 119.362,545.808 C119.013,545.358 119.013,545.258 119.013,542.708 L119.013,531.508 L135.762,531.508 M170.756,532.758 C170.756,529.608 170.206,528.008 168.756,526.808 C167.106,525.458 164.656,524.808 161.456,524.808 C155.806,524.808 151.706,527.458 151.706,531.108 C151.706,532.958 152.856,534.158 154.606,534.158 C156.206,534.158 157.306,533.108 157.306,531.608 C157.306,530.958 157.056,530.258 156.556,529.558 C156.256,529.208 156.206,529.108 156.206,528.858 C156.206,527.858 158.206,526.958 160.606,526.958 C162.206,526.958 163.956,527.458 164.756,528.208 C165.706,529.008 166.056,530.208 166.056,532.458 L166.056,534.408 C160.856,535.308 159.206,535.708 156.756,536.658 C152.406,538.258 150.356,540.558 150.356,543.758 C150.356,547.358 153.156,549.608 157.606,549.608 C161.056,549.608 164.156,548.208 166.306,545.658 C167.106,548.208 168.356,549.208 170.706,549.208 C172.956,549.208 175.306,547.758 175.306,546.308 C175.306,545.958 175.106,545.708 174.806,545.708 C174.606,545.708 174.406,545.758 174.056,545.908 C173.356,546.208 173.056,546.258 172.656,546.258 C171.256,546.258 170.756,545.358 170.756,542.808 L170.756,532.758 M166.056,538.858 C166.056,541.858 165.906,542.558 165.056,543.858 C163.806,545.708 161.556,546.958 159.356,546.958 C157.056,546.958 155.406,545.308 155.406,543.058 C155.406,540.958 156.456,539.458 158.656,538.408 C160.206,537.708 162.156,537.208 166.056,536.558 L166.056,538.858 M185.953,525.558 L177.303,526.108 L177.303,528.258 L179.103,528.258 C181.003,528.308 181.253,528.608 181.253,530.758 L181.253,545.058 C181.203,545.808 181.153,546.108 180.953,546.358 C180.603,546.808 179.653,547.008 177.503,547.058 L177.303,547.058 L177.303,548.858 L189.953,548.858 L189.953,547.058 L189.753,547.058 C186.403,546.958 185.953,546.708 185.953,544.908 L185.953,537.508 C185.953,535.058 186.303,532.808 186.853,531.658 C187.903,529.408 190.153,527.858 192.303,527.858 C193.603,527.858 195.103,528.558 195.853,529.608 C196.603,530.708 196.953,532.208 196.953,534.608 L196.953,545.058 C196.903,545.808 196.853,546.108 196.653,546.358 C196.303,546.808 195.303,547.008 193.153,547.058 L192.953,547.058 L192.953,548.858 L205.603,548.858 L205.603,547.058 L205.403,547.058 C202.103,546.958 201.653,546.708 201.653,544.908 L201.653,534.858 C201.653,531.258 201.503,530.358 200.603,528.658 C199.353,526.258 196.853,524.808 193.853,524.808 C190.603,524.808 188.153,526.308 185.953,529.608 L185.953,525.558 M225.5,549.208 L234.2,548.858 L234.2,546.708 L233.3,546.708 C230.45,546.558 230.2,546.258 230.2,543.058 L230.2,512.008 L220.4,512.558 L220.4,514.708 L223.35,514.708 C225.25,514.758 225.5,515.058 225.5,517.208 L225.5,528.508 C223.65,525.958 221.5,524.808 218.6,524.808 C212.95,524.808 208.65,530.258 208.65,537.458 C208.65,544.558 212.8,549.608 218.6,549.608 C221.75,549.608 223.9,548.258 225.5,545.258 L225.5,549.208 M219.6,527.508 C221.65,527.508 223.6,529.008 224.5,531.308 C225.15,532.808 225.45,534.858 225.45,537.308 C225.45,543.158 223.15,546.908 219.55,546.908 C216,546.908 213.9,543.608 213.9,538.058 C213.9,535.058 214.2,532.808 214.85,531.158 C215.7,528.908 217.55,527.508 219.6,527.508 M281.028,512.408 L279.128,512.408 L277.128,515.358 C273.478,512.708 271.628,512.008 268.178,512.008 C263.428,512.008 259.378,514.008 256.028,518.008 C252.828,521.808 251.328,526.008 251.328,531.158 C251.328,541.958 258.378,549.608 268.228,549.608 C276.228,549.608 281.328,544.908 282.478,536.508 L280.128,536.108 C278.778,543.558 274.978,547.258 268.828,547.258 C261.428,547.258 257.928,542.158 257.928,531.358 C257.928,525.658 258.678,521.908 260.378,518.908 C261.928,516.108 264.978,514.358 268.228,514.358 C271.728,514.358 274.828,516.208 276.728,519.408 C277.678,521.058 278.378,522.908 279.578,526.858 L281.778,526.858 L281.028,512.408 M295.372,512.008 L286.122,512.558 L286.122,514.708 L288.572,514.708 C290.422,514.758 290.672,515.058 290.672,517.208 L290.672,545.058 C290.622,545.808 290.572,546.108 290.372,546.358 C290.022,546.808 289.072,547.008 286.922,547.058 L286.572,547.058 L286.572,548.858 L299.522,548.858 L299.522,547.058 L299.172,547.058 C295.822,546.958 295.372,546.708 295.372,544.908 L295.372,512.008 M323.522,532.758 C323.522,529.608 322.972,528.008 321.522,526.808 C319.872,525.458 317.422,524.808 314.222,524.808 C308.572,524.808 304.472,527.458 304.472,531.108 C304.472,532.958 305.622,534.158 307.372,534.158 C308.972,534.158 310.072,533.108 310.072,531.608 C310.072,530.958 309.822,530.258 309.322,529.558 C309.022,529.208 308.972,529.108 308.972,528.858 C308.972,527.858 310.972,526.958 313.372,526.958 C314.972,526.958 316.722,527.458 317.522,528.208 C318.472,529.008 318.822,530.208 318.822,532.458 L318.822,534.408 C313.622,535.308 311.972,535.708 309.522,536.658 C305.172,538.258 303.122,540.558 303.122,543.758 C303.122,547.358 305.922,549.608 310.372,549.608 C313.822,549.608 316.922,548.208 319.072,545.658 C319.872,548.208 321.122,549.208 323.472,549.208 C325.722,549.208 328.072,547.758 328.072,546.308 C328.072,545.958 327.872,545.708 327.572,545.708 C327.372,545.708 327.172,545.758 326.822,545.908 C326.122,546.208 325.822,546.258 325.422,546.258 C324.022,546.258 323.522,545.358 323.522,542.808 L323.522,532.758 M318.822,538.858 C318.822,541.858 318.672,542.558 317.822,543.858 C316.572,545.708 314.322,546.958 312.122,546.958 C309.822,546.958 308.172,545.308 308.172,543.058 C308.172,540.958 309.222,539.458 311.422,538.408 C312.972,537.708 314.922,537.208 318.822,536.558 L318.822,538.858 M338.769,525.558 L330.119,526.108 L330.119,528.258 L331.919,528.258 C333.819,528.308 334.069,528.608 334.069,530.758 L334.069,555.208 C334.019,555.908 333.969,556.208 333.769,556.458 C333.419,556.908 332.469,557.108 330.319,557.158 L330.119,557.158 L330.119,558.958 L343.119,558.958 L343.119,557.158 L342.569,557.158 C339.219,557.058 338.769,556.808 338.769,555.008 L338.769,545.558 C340.419,548.458 342.269,549.608 345.369,549.608 C352.019,549.608 355.469,543.058 355.469,537.108 C355.469,531.458 352.019,524.808 345.669,524.808 C342.569,524.808 340.519,526.108 338.769,529.108 L338.769,525.558 M344.769,527.508 C348.219,527.508 350.219,530.958 350.219,536.808 C350.219,543.258 348.219,546.908 344.619,546.908 C341.019,546.908 338.719,543.208 338.719,537.458 C338.719,531.208 340.969,527.508 344.769,527.508 M396.547,538.058 L394.347,538.058 L393.847,540.608 C393.197,543.858 392.797,544.158 389.697,544.158 L378.497,544.158 C381.947,540.558 383.097,539.508 386.297,537.008 C390.847,533.508 392.797,531.758 393.947,530.258 C395.547,528.058 396.347,525.858 396.347,523.408 C396.347,517.708 391.647,513.658 385.097,513.658 C378.747,513.658 373.897,517.708 373.897,523.058 C373.897,526.208 375.497,528.358 377.847,528.358 C379.697,528.358 380.947,527.108 380.947,525.308 C380.947,524.058 380.247,522.908 379.197,522.458 C377.347,521.708 377.247,521.608 377.247,520.958 C377.247,520.208 377.747,519.058 378.447,518.208 C379.697,516.658 381.747,515.808 384.097,515.808 C388.247,515.808 390.697,518.358 390.697,522.558 C390.697,526.258 388.947,529.608 384.797,534.008 C381.097,537.908 378.797,540.358 377.947,541.308 C376.147,543.408 375.247,544.558 373.047,547.458 L373.047,548.858 L395.597,548.858 L396.547,538.058 "/>
<polyline class="BarLine" fill="none" stroke="#000000" stroke-width="4.46" stroke-linejoin="bevel" points="423.626,244.403 423.626,535.483"/>
<path class="BarLine" transform="matrix(0.992,0,0,0.992,2822.43,282.967)" d="M10.4,0 C10.4,-2.9 8.1,-5.3 5.2,-5.3 C2.3,-5.3 0,-2.9 0,0 C0,2.9 2.3,5.3 5.2,5.3 C8.1,5.3 10.4,2.9 10.4,0"/>
<path class="BarLine" transform="matrix(0.992,0,0,0.992,2822.43,307.767)" d="M10.4,0 C10.4,-2.9 8.1,-5.3 5.2,-5.3 C2.3,-5.3 0,-2.9 0,0 C0,2.9 2.3,5.3 5.2,5.3 C8.1,5.3 10.4,2.9 10.4,0"/>
<polyline class="BarLine" fill="none" stroke="#000000" stroke-width="4.46" stroke-linejoin="bevel" points="2844.15,244.403 2844.15,346.331"/>
<polyline class="BarLine" fill="none" stroke="#000000" stroke-width="13.64" stroke-linejoin="bevel" points="2862.38,244.403 2862.38,346.331"/>
<polyline class="BarLine" fill="none" stroke="#000000" stroke-width="4.46" stroke-linejoin="bevel" points="1726.51,244.403 1726.51,346.331"/>
<polyline class="BarLine" fill="none" stroke="#000000" stroke-width="13.64" stroke-linejoin="bevel" points="590.646,244.403 590.646,346.331"/>
<polyline class="BarLine" fill="none" stroke="#000000" stroke-width="4.46" stroke-linejoin="bevel" points="608.874,244.403 608.874,346.331"/>
<path class="BarLine" transform="matrix(0.992,0,0,0.992,620.282,282.967)" d="M10.4,0 C10.4,-2.9 8.1,-5.3 5.2,-5.3 C2.3,-5.3 0,-2.9 0,0 C0,2.9 2.3,5.3 5.2,5.3 C8.1,5.3 10.4,2.9 10.4,0"/>
<path class="BarLine" transform="matrix(0.992,0,0,0.992,620.282,307.767)" d="M10.4,0 C10.4,-2.9 8.1,-5.3 5.2,-5.3 C2.3,-5.3 0,-2.9 0,0 C0,2.9 2.3,5.3 5.2,5.3 C8.1,5.3 10.4,2.9 10.4,0"/>
<polyline class="BarLine" fill="none" stroke="#000000" stroke-width="4.46" stroke-linejoin="bevel" points="1726.51,484.519 1726.51,586.447"/>
<polyline class="BarLine" fill="none" stroke="#000000" stroke-width="4.46" stroke-linejoin="bevel" points="423.626,484.519 423.626,586.447"/>
<path class="BarLine" transform="matrix(0.992,0,0,0.992,2822.43,523.083)" d="M10.4,0 C10.4,-2.9 8.1,-5.3 5.2,-5.3 C2.3,-5.3 0,-2.9 0,0 C0,2.9 2.3,5.3 5.2,5.3 C8.1,5.3 10.4,2.9 10.4,0"/>
<path class="BarLine" transform="matrix(0.992,0,0,0.992,2822.43,547.883)" d="M10.4,0 C10.4,-2.9 8.1,-5.3 5.2,-5.3 C2.3,-5.3 0,-2.9 0,0 C0,2.9 2.3,5.3 5.2,5.3 C8.1,5.3 10.4,2.9 10.4,0"/>
<polyline class="BarLine" fill="none" stroke="#000000" stroke-width="4.46" stroke-linejoin="bevel" points="2844.15,484.519 2844.15,586.447"/>
<polyline class="BarLine" fill="none" stroke="#000000" stroke-width="13.64" stroke-linejoin="bevel" points="2862.38,484.519 2862.38,586.447"/>
<polyline class="BarLine" fill="none" stroke="#000000" stroke-width="13.64" stroke-linejoin="bevel" points="590.646,484.519 590.646,586.447"/>
<polyline class="BarLine" fill="none" stroke="#000000" stroke-width="4.46" stroke-linejoin="bevel" points="608.874,484.519 608.874,586.447"/>
<path class="BarLine" transform="matrix(0.992,0,0,0.992,620.282,523.083)" d="M10.4,0 C10.4,-2.9 8.1,-5.3 5.2,-5.3 C2.3,-5.3 0,-2.9 0,0 C0,2.9 2.3,5.3 5.2,5.3 C8.1,5.3 10.4,2.9 10.4,0"/>
<path class="BarLine" transform="matrix(0.992,0,0,0.992,620.282,547.883)" d="M10.4,0 C10.4,-2.9 8.1,-5.3 5.2,-5.3 C2.3,-5.3 0,-2.9 0,0 C0,2.9 2.3,5.3 5.2,5.3 C8.1,5.3 10.4,2.9 10.4,0"/>
<polyline class="Stem" fill="none" stroke="#000000" stroke-width="2.48" stroke-linejoin="bevel" points="2662.16,291.399 2662.16,233.367"/>
<polyline class="Stem" fill="none" stroke="#000000" stroke-width="2.48" stroke-linejoin="bevel" points="2401.11,291.399 2401.11,233.367"/>
<polyline class="Stem" fill="none" stroke="#000000" stroke-width="2.48" stroke-linejoin="bevel" points="1477,291.399 1477,233.367"/>
<polyline class="Stem" fill="none" stroke="#000000" stroke-width="2.48" stroke-linejoin="bevel" points="1564.02,291.399 1564.02,233.367"/>
<polyline class="Stem" fill="none" stroke="#000000" stroke-width="2.48" stroke-linejoin="bevel" points="1389.98,291.399 1389.98,233.367"/>
<polyline class="Stem" fill="none" stroke="#000000" stroke-width="2.48" stroke-linejoin="bevel" points="1651.03,291.399 1651.03,233.367"/>
<polyline class="Stem" fill="none" stroke="#000000" stroke-width="2.48" stroke-linejoin="bevel" points="2488.13,291.399 2488.13,233.367"/>
<polyline class="Stem" fill="none" stroke="#000000" stroke-width="2.48" stroke-linejoin="bevel" points="2314.09,291.399 2314.09,233.367"/>
<polyline class="Stem" fill="none" stroke="#000000" stroke-width="2.48" stroke-linejoin="bevel" points="1302.96,291.399 1302.96,233.367"/>
<polyline class="Stem" fill="none" stroke="#000000" stroke-width="2.48" stroke-linejoin="bevel" points="693.83,291.399 693.83,233.367"/>
<polyline class="Stem" fill="none" stroke="#000000" stroke-width="2.48" stroke-linejoin="bevel" points="2227.07,291.399 2227.07,233.367"/>
<polyline class="Stem" fill="none" stroke="#000000" stroke-width="2.48" stroke-linejoin="bevel" points="780.848,291.399 780.848,233.367"/>
<polyline class="Stem" fill="none" stroke="#000000" stroke-width="2.48" stroke-linejoin="bevel" points="1791.98,291.399 1791.98,233.367"/>
<polyline class="Stem" fill="none" stroke="#000000" stroke-width="2.48" stroke-linejoin="bevel" points="2749.18,291.399 2749.18,233.367"/>
<polyline class="Stem" fill="none" stroke="#000000" stroke-width="2.48" stroke-linejoin="bevel" points="2140.05,291.399 2140.05,233.367"/>
<polyline class="Stem" fill="none" stroke="#000000" stroke-width="2.48" stroke-linejoin="bevel" points="867.867,291.399 867.867,233.367"/>
<polyline class="Stem" fill="none" stroke="#000000" stroke-width="2.48" stroke-linejoin="bevel" points="1215.94,291.399 1215.94,233.367"/>
<polyline class="Stem" fill="none" stroke="#000000" stroke-width="2.48" stroke-linejoin="bevel" points="1128.92,291.399 1128.92,233.367"/>
<polyline class="Stem" fill="none" stroke="#000000" stroke-width="2.48" stroke-linejoin="bevel" points="1879,291.399 1879,233.367"/>
<polyline class="Stem" fill="none" stroke="#000000" stroke-width="2.48" stroke-linejoin="bevel" points="954.885,291.399 954.885,233.367"/>
<polyline class="Stem" fill="none" stroke="#000000" stroke-width="2.48" stroke-linejoin="bevel" points="1041.9,291.399 1041.9,233.367"/>
<polyline class="Stem" fill="none" stroke="#000000" stroke-width="2.48" stroke-linejoin="bevel" points="2575.14,291.399 2575.14,233.367"/>
<polyline class="Stem" fill="none" stroke="#000000" stroke-width="2.48" stroke-linejoin="bevel" points="1966.01,291.399 1966.01,233.367"/>
<polyline class="Stem" fill="none" stroke="#000000" stroke-width="2.48" stroke-linejoin="bevel" points="2053.03,291.399 2053.03,233.367"/>
<polyline class="Stem" fill="none" stroke="#000000" stroke-width="2.48" stroke-linejoin="bevel" points="954.885,531.515 954.885,461.083"/>
<polyline class="Stem" fill="none" stroke="#000000" stroke-width="2.48" stroke-linejoin="bevel" points="2000.82,531.515 2000.82,461.083"/>
<polyline class="Stem" fill="none" stroke="#000000" stroke-width="2.48" stroke-linejoin="bevel" points="2783.99,531.515 2783.99,461.083"/>
<polyline class="Stem" fill="none" stroke="#000000" stroke-width="2.48" stroke-linejoin="bevel" points="1007.1,531.515 1007.1,461.083"/>
<polyline class="Stem" fill="none" stroke="#000000" stroke-width="2.48" stroke-linejoin="bevel" points="1948.61,531.515 1948.61,461.083"/>
<polyline class="Stem" fill="none" stroke="#000000" stroke-width="2.48" stroke-linejoin="bevel" points="2053.03,531.515 2053.03,461.083"/>
<polyline class="Stem" fill="none" stroke="#000000" stroke-width="2.48" stroke-linejoin="bevel" points="1896.4,531.515 1896.4,461.083"/>
<polyline class="Stem" fill="none" stroke="#000000" stroke-width="2.48" stroke-linejoin="bevel" points="1059.31,531.515 1059.31,461.083"/>
<polyline class="Stem" fill="none" stroke="#000000" stroke-width="2.48" stroke-linejoin="bevel" points="2522.93,531.515 2522.93,461.083"/>
<polyline class="Stem" fill="none" stroke="#000000" stroke-width="2.48" stroke-linejoin="bevel" points="1111.52,531.515 1111.52,461.083"/>
<polyline class="Stem" fill="none" stroke="#000000" stroke-width="2.48" stroke-linejoin="bevel" points="1844.19,531.515 1844.19,461.083"/>
<polyline class="Stem" fill="none" stroke="#000000" stroke-width="2.48" stroke-linejoin="bevel" points="902.674,531.515 902.674,461.083"/>
<polyline class="Stem" fill="none" stroke="#000000" stroke-width="2.48" stroke-linejoin="bevel" points="2575.14,531.515 2575.14,461.083"/>
<polyline class="Stem" fill="none" stroke="#000000" stroke-width="2.48" stroke-linejoin="bevel" points="1163.73,531.515 1163.73,461.083"/>
<polyline class="Stem" fill="none" stroke="#000000" stroke-width="2.48" stroke-linejoin="bevel" points="1791.98,531.515 1791.98,461.083"/>
<polyline class="Stem" fill="none" stroke="#000000" stroke-width="2.48" stroke-linejoin="bevel" points="2105.24,531.515 2105.24,461.083"/>
<polyline class="Stem" fill="none" stroke="#000000" stroke-width="2.48" stroke-linejoin="bevel" points="2627.36,531.515 2627.36,461.083"/>
<polyline class="Stem" fill="none" stroke="#000000" stroke-width="2.48" stroke-linejoin="bevel" points="850.463,531.515 850.463,461.083"/>
<polyline class="Stem" fill="none" stroke="#000000" stroke-width="2.48" stroke-linejoin="bevel" points="2157.46,531.515 2157.46,461.083"/>
<polyline class="Stem" fill="none" stroke="#000000" stroke-width="2.48" stroke-linejoin="bevel" points="1215.94,531.515 1215.94,461.083"/>
<polyline class="Stem" fill="none" stroke="#000000" stroke-width="2.48" stroke-linejoin="bevel" points="798.252,531.515 798.252,461.083"/>
<polyline class="Stem" fill="none" stroke="#000000" stroke-width="2.48" stroke-linejoin="bevel" points="2731.78,531.515 2731.78,461.083"/>
<polyline class="Stem" fill="none" stroke="#000000" stroke-width="2.48" stroke-linejoin="bevel" points="2209.67,531.515 2209.67,461.083"/>
<polyline class="Stem" fill="none" stroke="#000000" stroke-width="2.48" stroke-linejoin="bevel" points="1268.15,531.515 1268.15,461.083"/>
<polyline class="Stem" fill="none" stroke="#000000" stroke-width="2.48" stroke-linejoin="bevel" points="746.041,531.515 746.041,461.083"/>
<polyline class="Stem" fill="none" stroke="#000000" stroke-width="2.48" stroke-linejoin="bevel" points="2261.88,531.515 2261.88,461.083"/>
<polyline class="Stem" fill="none" stroke="#000000" stroke-width="2.48" stroke-linejoin="bevel" points="1685.84,531.515 1685.84,461.083"/>
<polyline class="Stem" fill="none" stroke="#000000" stroke-width="2.48" stroke-linejoin="bevel" points="1320.36,531.515 1320.36,461.083"/>
<polyline class="Stem" fill="none" stroke="#000000" stroke-width="2.48" stroke-linejoin="bevel" points="2314.09,531.515 2314.09,461.083"/>
<polyline class="Stem" fill="none" stroke="#000000" stroke-width="2.48" stroke-linejoin="bevel" points="1372.57,531.515 1372.57,461.083"/>
<polyline class="Stem" fill="none" stroke="#000000" stroke-width="2.48" stroke-linejoin="bevel" points="1633.63,531.515 1633.63,461.083"/>
<polyline class="Stem" fill="none" stroke="#000000" stroke-width="2.48" stroke-linejoin="bevel" points="2470.72,531.515 2470.72,461.083"/>
<polyline class="Stem" fill="none" stroke="#000000" stroke-width="2.48" stroke-linejoin="bevel" points="1581.42,531.515 1581.42,461.083"/>
<polyline class="Stem" fill="none" stroke="#000000" stroke-width="2.48" stroke-linejoin="bevel" points="1424.79,531.515 1424.79,461.083"/>
<polyline class="Stem" fill="none" stroke="#000000" stroke-width="2.48" stroke-linejoin="bevel" points="2366.3,531.515 2366.3,461.083"/>
<polyline class="Stem" fill="none" stroke="#000000" stroke-width="2.48" stroke-linejoin="bevel" points="693.83,531.515 693.83,461.083"/>
<polyline class="Stem" fill="none" stroke="#000000" stroke-width="2.48" stroke-linejoin="bevel" points="1529.21,531.515 1529.21,461.083"/>
<polyline class="Stem" fill="none" stroke="#000000" stroke-width="2.48" stroke-linejoin="bevel" points="2679.57,531.515 2679.57,461.083"/>
<polyline class="Stem" fill="none" stroke="#000000" stroke-width="2.48" stroke-linejoin="bevel" points="2418.51,531.515 2418.51,461.083"/>
<polyline class="Stem" fill="none" stroke="#000000" stroke-width="2.48" stroke-linejoin="bevel" points="1477,531.515 1477,461.083"/>
<path class="Note" transform="matrix(0.992,0,0,0.992,662.837,295.367)" d="M0,4.2 C0,8.5 3.1,13.3 11.2,13.3 C21.6,13.3 32.5,4.8 32.5,-4 C32.5,-9.9 27.5,-13.2 21.3,-13.2 C11.6,-13.2 0,-5 0,4.2"/>
<path class="Note" transform="matrix(0.992,0,0,0.992,2631.17,295.367)" d="M0,4.2 C0,8.5 3.1,13.3 11.2,13.3 C21.6,13.3 32.5,4.8 32.5,-4 C32.5,-9.9 27.5,-13.2 21.3,-13.2 C11.6,-13.2 0,-5 0,4.2"/>
<path class="Note" transform="matrix(0.992,0,0,0.992,2370.11,295.367)" d="M0,4.2 C0,8.5 3.1,13.3 11.2,13.3 C21.6,13.3 32.5,4.8 32.5,-4 C32.5,-9.9 27.5,-13.2 21.3,-13.2 C11.6,-13.2 0,-5 0,4.2"/>
<path class="Note" transform="matrix(0.992,0,0,0.992,1446,295.367)" d="M0,4.2 C0,8.5 3.1,13.3 11.2,13.3 C21.6,13.3 32.5,4.8 32.5,-4 C32.5,-9.9 27.5,-13.2 21.3,-13.2 C11.6,-13.2 0,-5 0,4.2"/>
<path class="Note" transform="matrix(0.992,0,0,0.992,2283.1,295.367)" d="M0,4.2 C0,8.5 3.1,13.3 11.2,13.3 C21.6,13.3 32.5,4.8 32.5,-4 C32.5,-9.9 27.5,-13.2 21.3,-13.2 C11.6,-13.2 0,-5 0,4.2"/>
<path class="Note" transform="matrix(0.992,0,0,0.992,2196.08,295.367)" d="M0,4.2 C0,8.5 3.1,13.3 11.2,13.3 C21.6,13.3 32.5,4.8 32.5,-4 C32.5,-9.9 27.5,-13.2 21.3,-13.2 C11.6,-13.2 0,-5 0,4.2"/>
<path class="Note" transform="matrix(0.992,0,0,0.992,1533.02,295.367)" d="M0,4.2 C0,8.5 3.1,13.3 11.2,13.3 C21.6,13.3 32.5,4.8 32.5,-4 C32.5,-9.9 27.5,-13.2 21.3,-13.2 C11.6,-13.2 0,-5 0,4.2"/>
<path class="Note" transform="matrix(0.992,0,0,0.992,1358.99,295.367)" d="M0,4.2 C0,8.5 3.1,13.3 11.2,13.3 C21.6,13.3 32.5,4.8 32.5,-4 C32.5,-9.9 27.5,-13.2 21.3,-13.2 C11.6,-13.2 0,-5 0,4.2"/>
<path class="Note" transform="matrix(0.992,0,0,0.992,749.856,295.367)" d="M0,4.2 C0,8.5 3.1,13.3 11.2,13.3 C21.6,13.3 32.5,4.8 32.5,-4 C32.5,-9.9 27.5,-13.2 21.3,-13.2 C11.6,-13.2 0,-5 0,4.2"/>
<path class="Note" transform="matrix(0.992,0,0,0.992,2109.06,295.367)" d="M0,4.2 C0,8.5 3.1,13.3 11.2,13.3 C21.6,13.3 32.5,4.8 32.5,-4 C32.5,-9.9 27.5,-13.2 21.3,-13.2 C11.6,-13.2 0,-5 0,4.2"/>
<path class="Note" transform="matrix(0.992,0,0,0.992,836.874,295.367)" d="M0,4.2 C0,8.5 3.1,13.3 11.2,13.3 C21.6,13.3 32.5,4.8 32.5,-4 C32.5,-9.9 27.5,-13.2 21.3,-13.2 C11.6,-13.2 0,-5 0,4.2"/>
<path class="Note" transform="matrix(0.992,0,0,0.992,2457.13,295.367)" d="M0,4.2 C0,8.5 3.1,13.3 11.2,13.3 C21.6,13.3 32.5,4.8 32.5,-4 C32.5,-9.9 27.5,-13.2 21.3,-13.2 C11.6,-13.2 0,-5 0,4.2"/>
<path class="Note" transform="matrix(0.992,0,0,0.992,1620.04,295.367)" d="M0,4.2 C0,8.5 3.1,13.3 11.2,13.3 C21.6,13.3 32.5,4.8 32.5,-4 C32.5,-9.9 27.5,-13.2 21.3,-13.2 C11.6,-13.2 0,-5 0,4.2"/>
<path class="Note" transform="matrix(0.992,0,0,0.992,1271.97,295.367)" d="M0,4.2 C0,8.5 3.1,13.3 11.2,13.3 C21.6,13.3 32.5,4.8 32.5,-4 C32.5,-9.9 27.5,-13.2 21.3,-13.2 C11.6,-13.2 0,-5 0,4.2"/>
<path class="Note" transform="matrix(0.992,0,0,0.992,923.893,295.367)" d="M0,4.2 C0,8.5 3.1,13.3 11.2,13.3 C21.6,13.3 32.5,4.8 32.5,-4 C32.5,-9.9 27.5,-13.2 21.3,-13.2 C11.6,-13.2 0,-5 0,4.2"/>
<path class="Note" transform="matrix(0.992,0,0,0.992,2022.04,295.367)" d="M0,4.2 C0,8.5 3.1,13.3 11.2,13.3 C21.6,13.3 32.5,4.8 32.5,-4 C32.5,-9.9 27.5,-13.2 21.3,-13.2 C11.6,-13.2 0,-5 0,4.2"/>
<path class="Note" transform="matrix(0.992,0,0,0.992,1935.02,295.367)" d="M0,4.2 C0,8.5 3.1,13.3 11.2,13.3 C21.6,13.3 32.5,4.8 32.5,-4 C32.5,-9.9 27.5,-13.2 21.3,-13.2 C11.6,-13.2 0,-5 0,4.2"/>
<path class="Note" transform="matrix(0.992,0,0,0.992,2718.19,295.367)" d="M0,4.2 C0,8.5 3.1,13.3 11.2,13.3 C21.6,13.3 32.5,4.8 32.5,-4 C32.5,-9.9 27.5,-13.2 21.3,-13.2 C11.6,-13.2 0,-5 0,4.2"/>
<path class="Note" transform="matrix(0.992,0,0,0.992,1010.91,295.367)" d="M0,4.2 C0,8.5 3.1,13.3 11.2,13.3 C21.6,13.3 32.5,4.8 32.5,-4 C32.5,-9.9 27.5,-13.2 21.3,-13.2 C11.6,-13.2 0,-5 0,4.2"/>
<path class="Note" transform="matrix(0.992,0,0,0.992,1848,295.367)" d="M0,4.2 C0,8.5 3.1,13.3 11.2,13.3 C21.6,13.3 32.5,4.8 32.5,-4 C32.5,-9.9 27.5,-13.2 21.3,-13.2 C11.6,-13.2 0,-5 0,4.2"/>
<path class="Note" transform="matrix(0.992,0,0,0.992,1760.98,295.367)" d="M0,4.2 C0,8.5 3.1,13.3 11.2,13.3 C21.6,13.3 32.5,4.8 32.5,-4 C32.5,-9.9 27.5,-13.2 21.3,-13.2 C11.6,-13.2 0,-5 0,4.2"/>
<path class="Note" transform="matrix(0.992,0,0,0.992,1184.95,295.367)" d="M0,4.2 C0,8.5 3.1,13.3 11.2,13.3 C21.6,13.3 32.5,4.8 32.5,-4 C32.5,-9.9 27.5,-13.2 21.3,-13.2 C11.6,-13.2 0,-5 0,4.2"/>
<path class="Note" transform="matrix(0.992,0,0,0.992,2544.15,295.367)" d="M0,4.2 C0,8.5 3.1,13.3 11.2,13.3 C21.6,13.3 32.5,4.8 32.5,-4 C32.5,-9.9 27.5,-13.2 21.3,-13.2 C11.6,-13.2 0,-5 0,4.2"/>
<path class="Note" transform="matrix(0.992,0,0,0.992,1097.93,295.367)" d="M0,4.2 C0,8.5 3.1,13.3 11.2,13.3 C21.6,13.3 32.5,4.8 32.5,-4 C32.5,-9.9 27.5,-13.2 21.3,-13.2 C11.6,-13.2 0,-5 0,4.2"/>
<path class="Note" transform="matrix(0.992,0,0,0.992,1760.98,535.483)" d="M0,4.2 C0,8.5 3.1,13.3 11.2,13.3 C21.6,13.3 32.5,4.8 32.5,-4 C32.5,-9.9 27.5,-13.2 21.3,-13.2 C11.6,-13.2 0,-5 0,4.2"/>
<path class="Note" transform="matrix(0.992,0,0,0.992,1132.74,535.483)" d="M0,4.2 C0,8.5 3.1,13.3 11.2,13.3 C21.6,13.3 32.5,4.8 32.5,-4 C32.5,-9.9 27.5,-13.2 21.3,-13.2 C11.6,-13.2 0,-5 0,4.2"/>
<path class="Note" transform="matrix(0.992,0,0,0.992,2544.15,535.483)" d="M0,4.2 C0,8.5 3.1,13.3 11.2,13.3 C21.6,13.3 32.5,4.8 32.5,-4 C32.5,-9.9 27.5,-13.2 21.3,-13.2 C11.6,-13.2 0,-5 0,4.2"/>
<path class="Note" transform="matrix(0.992,0,0,0.992,1080.53,535.483)" d="M0,4.2 C0,8.5 3.1,13.3 11.2,13.3 C21.6,13.3 32.5,4.8 32.5,-4 C32.5,-9.9 27.5,-13.2 21.3,-13.2 C11.6,-13.2 0,-5 0,4.2"/>
<path class="Note" transform="matrix(0.992,0,0,0.992,1813.2,535.483)" d="M0,4.2 C0,8.5 3.1,13.3 11.2,13.3 C21.6,13.3 32.5,4.8 32.5,-4 C32.5,-9.9 27.5,-13.2 21.3,-13.2 C11.6,-13.2 0,-5 0,4.2"/>
<path class="Note" transform="matrix(0.992,0,0,0.992,1028.32,535.483)" d="M0,4.2 C0,8.5 3.1,13.3 11.2,13.3 C21.6,13.3 32.5,4.8 32.5,-4 C32.5,-9.9 27.5,-13.2 21.3,-13.2 C11.6,-13.2 0,-5 0,4.2"/>
<path class="Note" transform="matrix(0.992,0,0,0.992,2700.79,535.483)" d="M0,4.2 C0,8.5 3.1,13.3 11.2,13.3 C21.6,13.3 32.5,4.8 32.5,-4 C32.5,-9.9 27.5,-13.2 21.3,-13.2 C11.6,-13.2 0,-5 0,4.2"/>
<path class="Note" transform="matrix(0.992,0,0,0.992,1184.95,535.483)" d="M0,4.2 C0,8.5 3.1,13.3 11.2,13.3 C21.6,13.3 32.5,4.8 32.5,-4 C32.5,-9.9 27.5,-13.2 21.3,-13.2 C11.6,-13.2 0,-5 0,4.2"/>
<path class="Note" transform="matrix(0.992,0,0,0.992,1865.41,535.483)" d="M0,4.2 C0,8.5 3.1,13.3 11.2,13.3 C21.6,13.3 32.5,4.8 32.5,-4 C32.5,-9.9 27.5,-13.2 21.3,-13.2 C11.6,-13.2 0,-5 0,4.2"/>
<path class="Note" transform="matrix(0.992,0,0,0.992,976.104,535.483)" d="M0,4.2 C0,8.5 3.1,13.3 11.2,13.3 C21.6,13.3 32.5,4.8 32.5,-4 C32.5,-9.9 27.5,-13.2 21.3,-13.2 C11.6,-13.2 0,-5 0,4.2"/>
<path class="Note" transform="matrix(0.992,0,0,0.992,1917.62,535.483)" d="M0,4.2 C0,8.5 3.1,13.3 11.2,13.3 C21.6,13.3 32.5,4.8 32.5,-4 C32.5,-9.9 27.5,-13.2 21.3,-13.2 C11.6,-13.2 0,-5 0,4.2"/>
<path class="Note" transform="matrix(0.992,0,0,0.992,2648.57,535.483)" d="M0,4.2 C0,8.5 3.1,13.3 11.2,13.3 C21.6,13.3 32.5,4.8 32.5,-4 C32.5,-9.9 27.5,-13.2 21.3,-13.2 C11.6,-13.2 0,-5 0,4.2"/>
<path class="Note" transform="matrix(0.992,0,0,0.992,1237.16,535.483)" d="M0,4.2 C0,8.5 3.1,13.3 11.2,13.3 C21.6,13.3 32.5,4.8 32.5,-4 C32.5,-9.9 27.5,-13.2 21.3,-13.2 C11.6,-13.2 0,-5 0,4.2"/>
<path class="Note" transform="matrix(0.992,0,0,0.992,2596.36,535.483)" d="M0,4.2 C0,8.5 3.1,13.3 11.2,13.3 C21.6,13.3 32.5,4.8 32.5,-4 C32.5,-9.9 27.5,-13.2 21.3,-13.2 C11.6,-13.2 0,-5 0,4.2"/>
<path class="Note" transform="matrix(0.992,0,0,0.992,1969.83,535.483)" d="M0,4.2 C0,8.5 3.1,13.3 11.2,13.3 C21.6,13.3 32.5,4.8 32.5,-4 C32.5,-9.9 27.5,-13.2 21.3,-13.2 C11.6,-13.2 0,-5 0,4.2"/>
<path class="Note" transform="matrix(0.992,0,0,0.992,923.893,535.483)" d="M0,4.2 C0,8.5 3.1,13.3 11.2,13.3 C21.6,13.3 32.5,4.8 32.5,-4 C32.5,-9.9 27.5,-13.2 21.3,-13.2 C11.6,-13.2 0,-5 0,4.2"/>
<path class="Note" transform="matrix(0.992,0,0,0.992,1446,535.483)" d="M0,4.2 C0,8.5 3.1,13.3 11.2,13.3 C21.6,13.3 32.5,4.8 32.5,-4 C32.5,-9.9 27.5,-13.2 21.3,-13.2 C11.6,-13.2 0,-5 0,4.2"/>
<path class="Note" transform="matrix(0.992,0,0,0.992,2753,535.483)" d="M0,4.2 C0,8.5 3.1,13.3 11.2,13.3 C21.6,13.3 32.5,4.8 32.5,-4 C32.5,-9.9 27.5,-13.2 21.3,-13.2 C11.6,-13.2 0,-5 0,4.2"/>
<path class="Note" transform="matrix(0.992,0,0,0.992,2491.94,535.483)" d="M0,4.2 C0,8.5 3.1,13.3 11.2,13.3 C21.6,13.3 32.5,4.8 32.5,-4 C32.5,-9.9 27.5,-13.2 21.3,-13.2 C11.6,-13.2 0,-5 0,4.2"/>
<path class="Note" transform="matrix(0.992,0,0,0.992,1654.85,535.483)" d="M0,4.2 C0,8.5 3.1,13.3 11.2,13.3 C21.6,13.3 32.5,4.8 32.5,-4 C32.5,-9.9 27.5,-13.2 21.3,-13.2 C11.6,-13.2 0,-5 0,4.2"/>
<path class="Note" transform="matrix(0.992,0,0,0.992,2022.04,535.483)" d="M0,4.2 C0,8.5 3.1,13.3 11.2,13.3 C21.6,13.3 32.5,4.8 32.5,-4 C32.5,-9.9 27.5,-13.2 21.3,-13.2 C11.6,-13.2 0,-5 0,4.2"/>
<path class="Note" transform="matrix(0.992,0,0,0.992,871.682,535.483)" d="M0,4.2 C0,8.5 3.1,13.3 11.2,13.3 C21.6,13.3 32.5,4.8 32.5,-4 C32.5,-9.9 27.5,-13.2 21.3,-13.2 C11.6,-13.2 0,-5 0,4.2"/>
<path class="Note" transform="matrix(0.992,0,0,0.992,1289.37,535.483)" d="M0,4.2 C0,8.5 3.1,13.3 11.2,13.3 C21.6,13.3 32.5,4.8 32.5,-4 C32.5,-9.9 27.5,-13.2 21.3,-13.2 C11.6,-13.2 0,-5 0,4.2"/>
<path class="Note" transform="matrix(0.992,0,0,0.992,1602.64,535.483)" d="M0,4.2 C0,8.5 3.1,13.3 11.2,13.3 C21.6,13.3 32.5,4.8 32.5,-4 C32.5,-9.9 27.5,-13.2 21.3,-13.2 C11.6,-13.2 0,-5 0,4.2"/>
<path class="Note" transform="matrix(0.992,0,0,0.992,2074.25,535.483)" d="M0,4.2 C0,8.5 3.1,13.3 11.2,13.3 C21.6,13.3 32.5,4.8 32.5,-4 C32.5,-9.9 27.5,-13.2 21.3,-13.2 C11.6,-13.2 0,-5 0,4.2"/>
<path class="Note" transform="matrix(0.992,0,0,0.992,819.471,535.483)" d="M0,4.2 C0,8.5 3.1,13.3 11.2,13.3 C21.6,13.3 32.5,4.8 32.5,-4 C32.5,-9.9 27.5,-13.2 21.3,-13.2 C11.6,-13.2 0,-5 0,4.2"/>
<path class="Note" transform="matrix(0.992,0,0,0.992,1341.58,535.483)" d="M0,4.2 C0,8.5 3.1,13.3 11.2,13.3 C21.6,13.3 32.5,4.8 32.5,-4 C32.5,-9.9 27.5,-13.2 21.3,-13.2 C11.6,-13.2 0,-5 0,4.2"/>
<path class="Note" transform="matrix(0.992,0,0,0.992,767.26,535.483)" d="M0,4.2 C0,8.5 3.1,13.3 11.2,13.3 C21.6,13.3 32.5,4.8 32.5,-4 C32.5,-9.9 27.5,-13.2 21.3,-13.2 C11.6,-13.2 0,-5 0,4.2"/>
<path class="Note" transform="matrix(0.992,0,0,0.992,2126.46,535.483)" d="M0,4.2 C0,8.5 3.1,13.3 11.2,13.3 C21.6,13.3 32.5,4.8 32.5,-4 C32.5,-9.9 27.5,-13.2 21.3,-13.2 C11.6,-13.2 0,-5 0,4.2"/>
<path class="Note" transform="matrix(0.992,0,0,0.992,1550.43,535.483)" d="M0,4.2 C0,8.5 3.1,13.3 11.2,13.3 C21.6,13.3 32.5,4.8 32.5,-4 C32.5,-9.9 27.5,-13.2 21.3,-13.2 C11.6,-13.2 0,-5 0,4.2"/>
<path class="Note" transform="matrix(0.992,0,0,0.992,2178.67,535.483)" d="M0,4.2 C0,8.5 3.1,13.3 11.2,13.3 C21.6,13.3 32.5,4.8 32.5,-4 C32.5,-9.9 27.5,-13.2 21.3,-13.2 C11.6,-13.2 0,-5 0,4.2"/>
<path class="Note" transform="matrix(0.992,0,0,0.992,715.048,535.483)" d="M0,4.2 C0,8.5 3.1,13.3 11.2,13.3 C21.6,13.3 32.5,4.8 32.5,-4 C32.5,-9.9 27.5,-13.2 21.3,-13.2 C11.6,-13.2 0,-5 0,4.2"/>
<path class="Note" transform="matrix(0.992,0,0,0.992,1393.79,535.483)" d="M0,4.2 C0,8.5 3.1,13.3 11.2,13.3 C21.6,13.3 32.5,4.8 32.5,-4 C32.5,-9.9 27.5,-13.2 21.3,-13.2 C11.6,-13.2 0,-5 0,4.2"/>
<path class="Note" transform="matrix(0.992,0,0,0.992,2335.31,535.483)" d="M0,4.2 C0,8.5 3.1,13.3 11.2,13.3 C21.6,13.3 32.5,4.8 32.5,-4 C32.5,-9.9 27.5,-13.2 21.3,-13.2 C11.6,-13.2 0,-5 0,4.2"/>
<path class="Note" transform="matrix(0.992,0,0,0.992,2230.89,535.483)" d="M0,4.2 C0,8.5 3.1,13.3 11.2,13.3 C21.6,13.3 32.5,4.8 32.5,-4 C32.5,-9.9 27.5,-13.2 21.3,-13.2 C11.6,-13.2 0,-5 0,4.2"/>
<path class="Note" transform="matrix(0.992,0,0,0.992,662.837,535.483)" d="M0,4.2 C0,8.5 3.1,13.3 11.2,13.3 C21.6,13.3 32.5,4.8 32.5,-4 C32.5,-9.9 27.5,-13.2 21.3,-13.2 C11.6,-13.2 0,-5 0,4.2"/>
<path class="Note" transform="matrix(0.992,0,0,0.992,1498.22,535.483)" d="M0,4.2 C0,8.5 3.1,13.3 11.2,13.3 C21.6,13.3 32.5,4.8 32.5,-4 C32.5,-9.9 27.5,-13.2 21.3,-13.2 C11.6,-13.2 0,-5 0,4.2"/>
<path class="Note" transform="matrix(0.992,0,0,0.992,2387.52,535.483)" d="M0,4.2 C0,8.5 3.1,13.3 11.2,13.3 C21.6,13.3 32.5,4.8 32.5,-4 C32.5,-9.9 27.5,-13.2 21.3,-13.2 C11.6,-13.2 0,-5 0,4.2"/>
<path class="Note" transform="matrix(0.992,0,0,0.992,2439.73,535.483)" d="M0,4.2 C0,8.5 3.1,13.3 11.2,13.3 C21.6,13.3 32.5,4.8 32.5,-4 C32.5,-9.9 27.5,-13.2 21.3,-13.2 C11.6,-13.2 0,-5 0,4.2"/>
<path class="Note" transform="matrix(0.992,0,0,0.992,2283.1,535.483)" d="M0,4.2 C0,8.5 3.1,13.3 11.2,13.3 C21.6,13.3 32.5,4.8 32.5,-4 C32.5,-9.9 27.5,-13.2 21.3,-13.2 C11.6,-13.2 0,-5 0,4.2"/>
<path class="Clef" transform="matrix(0.992,0,0,0.992,444.458,295.367)" d="M1.3,-25.2 C0.6,-25.2 0,-24.6 0,-23.9 L0,23.9 C0,24.6 0.6,25.2 1.3,25.2 L12.3,25.2 C13,25.2 13.6,24.6 13.6,23.9 L13.6,-23.9 C13.6,-24.6 13,-25.2 12.3,-25.2 L1.3,-25.2 M22.9,-25.2 C22.2,-25.2 21.6,-24.6 21.6,-23.9 L21.6,23.9 C21.6,24.6 22.2,25.2 22.9,25.2 L33.9,25.2 C34.6,25.2 35.2,24.6 35.2,23.9 L35.2,-23.9 C35.2,-24.6 34.6,-25.2 33.9,-25.2 L22.9,-25.2 "/>
<path class="Clef" transform="matrix(0.992,0,0,0.992,444.458,535.483)" d="M1.3,-25.2 C0.6,-25.2 0,-24.6 0,-23.9 L0,23.9 C0,24.6 0.6,25.2 1.3,25.2 L12.3,25.2 C13,25.2 13.6,24.6 13.6,23.9 L13.6,-23.9 C13.6,-24.6 13,-25.2 12.3,-25.2 L1.3,-25.2 M22.9,-25.2 C22.2,-25.2 21.6,-24.6 21.6,-23.9 L21.6,23.9 C21.6,24.6 22.2,25.2 22.9,25.2 L33.9,25.2 C34.6,25.2 35.2,24.6 35.2,23.9 L35.2,-23.9 C35.2,-24.6 34.6,-25.2 33.9,-25.2 L22.9,-25.2 "/>
<path class="TimeSig" transform="matrix(0.992,0,0,0.992,502.784,270.567)" d="M20.8,12.7 L20.8,20.1 L12.5,20.1 C11.8,20.1 11.1,20.7 11.1,21.5 L11.1,23.4 C11.1,24.2 11.8,24.8 12.5,24.8 L42.8,24.8 C43.6,24.8 44.2,24.2 44.2,23.4 L44.2,21.5 C44.2,20.7 43.6,20.1 42.8,20.1 L33.9,20.1 L33.9,12.7 L42.8,12.7 C43.6,12.7 44.2,12 44.2,11.2 L44.2,9.3 C44.2,8.6 43.6,7.9 42.8,7.9 L33.9,7.9 L33.9,-8 C33.9,-8.6 33.6,-9.1 33.1,-9.3 L31.9,-9.9 C31.7,-10 31.4,-10.1 31.2,-10.1 C30.9,-10 30.5,-9.9 30.3,-9.7 L21.2,-1.4 C20.9,-1.1 20.8,-0.7 20.8,-0.3 L20.8,7.9 L9.3,7.9 C9.3,7.9 20.4,-4.1 32.2,-19.9 C32.6,-20.4 32.7,-20.9 32.7,-21.3 C32.7,-21.8 32.5,-22.2 32.4,-22.3 L30.2,-24.5 C30,-24.7 29.6,-24.9 29.2,-24.9 C28.6,-24.9 15.1,-24.9 14.4,-24.9 C13.6,-24.9 13.1,-24.3 13,-23.7 C13,-23.7 12.5,-16.3 9.9,-8.2 C7.3,-0.1 4.3,4.9 1.7,8.6 C1.7,8.6 1.4,9.1 1.4,9.7 C1.4,9.9 1.4,10.1 1.5,10.3 C1.9,11 2.5,12.1 2.5,12.1 C2.5,12.1 2.7,12.7 3.6,12.7 L20.8,12.7 "/>
<path class="TimeSig" transform="matrix(0.992,0,0,0.992,502.784,320.167)" d="M20.8,12.7 L20.8,20.1 L12.5,20.1 C11.8,20.1 11.1,20.7 11.1,21.5 L11.1,23.4 C11.1,24.2 11.8,24.8 12.5,24.8 L42.8,24.8 C43.6,24.8 44.2,24.2 44.2,23.4 L44.2,21.5 C44.2,20.7 43.6,20.1 42.8,20.1 L33.9,20.1 L33.9,12.7 L42.8,12.7 C43.6,12.7 44.2,12 44.2,11.2 L44.2,9.3 C44.2,8.6 43.6,7.9 42.8,7.9 L33.9,7.9 L33.9,-8 C33.9,-8.6 33.6,-9.1 33.1,-9.3 L31.9,-9.9 C31.7,-10 31.4,-10.1 31.2,-10.1 C30.9,-10 30.5,-9.9 30.3,-9.7 L21.2,-1.4 C20.9,-1.1 20.8,-0.7 20.8,-0.3 L20.8,7.9 L9.3,7.9 C9.3,7.9 20.4,-4.1 32.2,-19.9 C32.6,-20.4 32.7,-20.9 32.7,-21.3 C32.7,-21.8 32.5,-22.2 32.4,-22.3 L30.2,-24.5 C30,-24.7 29.6,-24.9 29.2,-24.9 C28.6,-24.9 15.1,-24.9 14.4,-24.9 C13.6,-24.9 13.1,-24.3 13,-23.7 C13,-23.7 12.5,-16.3 9.9,-8.2 C7.3,-0.1 4.3,4.9 1.7,8.6 C1.7,8.6 1.4,9.1 1.4,9.7 C1.4,9.9 1.4,10.1 1.5,10.3 C1.9,11 2.5,12.1 2.5,12.1 C2.5,12.1 2.7,12.7 3.6,12.7 L20.8,12.7 "/>
<path class="TimeSig" transform="matrix(0.992,0,0,0.992,502.784,510.683)" d="M20.8,12.7 L20.8,20.1 L12.5,20.1 C11.8,20.1 11.1,20.7 11.1,21.5 L11.1,23.4 C11.1,24.2 11.8,24.8 12.5,24.8 L42.8,24.8 C43.6,24.8 44.2,24.2 44.2,23.4 L44.2,21.5 C44.2,20.7 43.6,20.1 42.8,20.1 L33.9,20.1 L33.9,12.7 L42.8,12.7 C43.6,12.7 44.2,12 44.2,11.2 L44.2,9.3 C44.2,8.6 43.6,7.9 42.8,7.9 L33.9,7.9 L33.9,-8 C33.9,-8.6 33.6,-9.1 33.1,-9.3 L31.9,-9.9 C31.7,-10 31.4,-10.1 31.2,-10.1 C30.9,-10 30.5,-9.9 30.3,-9.7 L21.2,-1.4 C20.9,-1.1 20.8,-0.7 20.8,-0.3 L20.8,7.9 L9.3,7.9 C9.3,7.9 20.4,-4.1 32.2,-19.9 C32.6,-20.4 32.7,-20.9 32.7,-21.3 C32.7,-21.8 32.5,-22.2 32.4,-22.3 L30.2,-24.5 C30,-24.7 29.6,-24.9 29.2,-24.9 C28.6,-24.9 15.1,-24.9 14.4,-24.9 C13.6,-24.9 13.1,-24.3 13,-23.7 C13,-23.7 12.5,-16.3 9.9,-8.2 C7.3,-0.1 4.3,4.9 1.7,8.6 C1.7,8.6 1.4,9.1 1.4,9.7 C1.4,9.9 1.4,10.1 1.5,10.3 C1.9,11 2.5,12.1 2.5,12.1 C2.5,12.1 2.7,12.7 3.6,12.7 L20.8,12.7 "/>
<path class="TimeSig" transform="matrix(0.992,0,0,0.992,502.784,560.283)" d="M20.8,12.7 L20.8,20.1 L12.5,20.1 C11.8,20.1 11.1,20.7 11.1,21.5 L11.1,23.4 C11.1,24.2 11.8,24.8 12.5,24.8 L42.8,24.8 C43.6,24.8 44.2,24.2 44.2,23.4 L44.2,21.5 C44.2,20.7 43.6,20.1 42.8,20.1 L33.9,20.1 L33.9,12.7 L42.8,12.7 C43.6,12.7 44.2,12 44.2,11.2 L44.2,9.3 C44.2,8.6 43.6,7.9 42.8,7.9 L33.9,7.9 L33.9,-8 C33.9,-8.6 33.6,-9.1 33.1,-9.3 L31.9,-9.9 C31.7,-10 31.4,-10.1 31.2,-10.1 C30.9,-10 30.5,-9.9 30.3,-9.7 L21.2,-1.4 C20.9,-1.1 20.8,-0.7 20.8,-0.3 L20.8,7.9 L9.3,7.9 C9.3,7.9 20.4,-4.1 32.2,-19.9 C32.6,-20.4 32.7,-20.9 32.7,-21.3 C32.7,-21.8 32.5,-22.2 32.4,-22.3 L30.2,-24.5 C30,-24.7 29.6,-24.9 29.2,-24.9 C28.6,-24.9 15.1,-24.9 14.4,-24.9 C13.6,-24.9 13.1,-24.3 13,-23.7 C13,-23.7 12.5,-16.3 9.9,-8.2 C7.3,-0.1 4.3,4.9 1.7,8.6 C1.7,8.6 1.4,9.1 1.4,9.7 C1.4,9.9 1.4,10.1 1.5,10.3 C1.9,11 2.5,12.1 2.5,12.1 C2.5,12.1 2.7,12.7 3.6,12.7 L20.8,12.7 "/>
<path class="Dynamic" d="M665.579,365.428 C668.351,355.231 669.143,353.449 670.628,352.261 C671.42,351.667 672.113,351.469 672.608,351.469 C672.806,351.469 673.004,351.568 673.103,351.568 C673.697,351.667 674.192,352.261 674.192,352.855 C674.192,353.35 673.994,353.845 673.598,354.043 C672.608,354.835 672.113,356.122 672.113,357.409 C672.113,357.904 672.212,358.399 672.311,358.894 C672.608,359.785 673.4,360.775 674.39,361.171 C674.786,361.369 675.38,361.468 675.974,361.468 C678.152,361.468 680.231,359.983 680.825,357.904 C681.023,357.31 681.122,356.617 681.122,356.023 C681.122,354.835 680.825,353.647 680.132,352.558 C678.746,349.885 674.786,348.697 671.915,348.697 C662.807,348.697 658.748,358.201 656.273,365.527 L656.174,365.725 L648.65,365.725 C648.056,365.725 647.66,366.121 647.66,366.715 L647.66,368.893 C647.66,369.487 648.056,369.883 648.65,369.883 L654.887,369.883 L654.788,370.279 C653.798,374.239 653.006,377.704 652.313,380.971 C651.521,384.634 650.63,388.495 649.442,393.049 L649.145,394.237 C647.066,402.355 646.373,405.226 643.997,406.81 C643.502,407.107 642.908,407.305 642.314,407.305 C641.819,407.305 641.423,407.206 641.027,406.909 C640.73,406.711 640.334,406.315 640.433,405.82 C640.532,405.424 640.829,405.028 641.324,404.83 C643.205,404.038 643.799,402.157 643.799,400.573 C643.799,399.187 642.809,396.613 639.245,396.613 C636.572,396.613 634.097,399.187 634.097,401.86 C634.097,407.107 637.661,409.879 642.215,409.879 C645.383,409.879 647.66,408.79 650.135,406.315 C654.491,401.959 659.243,387.109 661.718,378.694 C662.609,375.526 663.5,372.358 664.193,370.081 L664.193,369.883 L679.637,369.883 L679.538,370.279 C678.548,374.239 677.756,377.704 677.063,380.971 C676.271,384.634 675.38,388.495 674.192,393.049 L673.895,394.237 C671.816,402.355 671.123,405.226 668.747,406.81 C668.252,407.107 667.658,407.305 667.064,407.305 C666.569,407.305 666.173,407.206 665.777,406.909 C665.48,406.711 665.084,406.216 665.183,405.721 C665.282,405.325 665.579,405.028 666.074,404.83 C667.955,404.038 668.549,402.157 668.549,400.573 C668.549,399.187 667.559,396.613 663.995,396.613 C661.322,396.613 658.847,399.088 658.847,401.761 C658.847,407.008 662.411,409.879 666.965,409.879 C670.133,409.879 672.41,408.79 674.885,406.315 C679.241,401.959 683.993,387.109 686.468,378.694 C687.359,375.526 688.25,372.358 688.943,370.081 L688.943,369.883 L696.17,369.883 C696.764,369.883 697.16,369.487 697.16,368.893 L697.16,366.715 C697.16,366.121 696.764,365.725 696.17,365.725 L690.23,365.725 L690.329,365.428 C693.101,355.231 693.893,353.449 695.378,352.261 C696.17,351.667 696.863,351.469 697.358,351.469 C697.556,351.469 697.754,351.568 697.853,351.568 C698.447,351.667 698.942,352.261 698.942,352.855 C698.942,353.35 698.744,353.845 698.348,354.043 C697.358,354.835 696.863,356.122 696.863,357.409 C696.863,357.904 696.962,358.399 697.061,358.894 C697.358,359.785 698.15,360.775 699.14,361.171 C699.536,361.369 700.13,361.468 700.724,361.468 C702.902,361.468 704.981,359.983 705.575,357.904 C705.773,357.31 705.872,356.617 705.872,356.023 C705.872,354.835 705.575,353.647 704.882,352.558 C703.496,349.885 699.536,348.697 696.665,348.697 C687.557,348.697 683.498,358.201 681.023,365.527 L680.924,365.725 L665.48,365.725 L665.579,365.428 "/>
<path class="Dynamic" d="M2779.91,369.586 C2779.91,369.586 2779.02,366.22 2776.15,365.527 C2775.66,365.428 2775.16,365.329 2774.67,365.329 C2770.71,365.329 2768.43,369.685 2767.44,372.952 L2768.92,373.744 C2768.92,373.744 2770.61,368.398 2772.79,368.398 C2772.98,368.398 2773.08,368.398 2773.28,368.497 C2773.78,368.695 2773.97,369.289 2773.97,370.081 C2773.97,371.764 2773.08,374.635 2771.99,378.1 L2768.63,388.891 C2768.63,388.99 2768.63,389.089 2768.63,389.287 C2768.63,389.98 2768.83,390.475 2769.62,390.475 L2775.06,390.475 C2775.56,390.475 2775.95,390.376 2776.15,389.287 C2776.15,389.188 2776.25,388.891 2776.25,388.594 C2778.23,374.635 2781.4,370.477 2783.87,369.487 L2783.97,369.388 C2784.07,369.388 2784.17,369.388 2784.17,369.388 L2784.27,369.487 C2784.57,369.586 2784.67,369.784 2784.76,370.18 C2784.76,373.051 2783.08,378.1 2782.09,380.674 C2781.5,382.159 2781.2,383.644 2781.2,384.931 C2781.2,388 2782.78,390.574 2786.15,390.574 C2790.61,390.574 2792.39,386.911 2793.77,383.347 L2793.77,383.05 C2793.87,383.05 2793.87,382.951 2793.87,382.951 L2792.19,382.159 C2792.19,382.159 2791.1,384.832 2790.41,386.02 C2789.91,386.911 2789.42,387.109 2788.92,387.109 C2788.72,387.109 2788.63,387.109 2788.43,387.01 C2787.83,386.812 2787.64,386.416 2787.64,385.822 C2787.64,384.931 2788.03,383.743 2788.43,382.555 C2789.71,378.793 2790.7,375.031 2790.7,370.972 C2790.7,370.477 2790.7,369.982 2790.61,369.586 C2790.11,366.913 2788.92,365.626 2786.84,365.626 C2784.27,365.626 2781.5,367.408 2780.21,369.19 L2779.91,369.586 "/>
<path class="Dynamic" d="M2755.74,605.544 C2758.51,595.347 2759.3,593.565 2760.79,592.377 C2761.58,591.783 2762.27,591.585 2762.77,591.585 C2762.97,591.585 2763.16,591.684 2763.26,591.684 C2763.86,591.783 2764.35,592.377 2764.35,592.971 C2764.35,593.466 2764.15,593.961 2763.76,594.159 C2762.77,594.951 2762.27,596.238 2762.27,597.525 C2762.27,598.02 2762.37,598.515 2762.47,599.01 C2762.77,599.901 2763.56,600.891 2764.55,601.287 C2764.95,601.485 2765.54,601.584 2766.13,601.584 C2768.31,601.584 2770.39,600.099 2770.98,598.02 C2771.18,597.426 2771.28,596.733 2771.28,596.139 C2771.28,594.951 2770.98,593.763 2770.29,592.674 C2768.91,590.001 2764.95,588.813 2762.07,588.813 C2752.97,588.813 2748.91,598.317 2746.43,605.643 L2746.33,605.841 L2738.81,605.841 C2738.22,605.841 2737.82,606.237 2737.82,606.831 L2737.82,609.009 C2737.82,609.603 2738.22,609.999 2738.81,609.999 L2745.05,609.999 L2744.95,610.395 C2743.96,614.355 2743.17,617.82 2742.47,621.087 C2741.68,624.75 2740.79,628.611 2739.6,633.165 L2739.3,634.353 C2737.23,642.471 2736.53,645.342 2734.16,646.926 C2733.66,647.223 2733.07,647.421 2732.47,647.421 C2731.98,647.421 2731.58,647.322 2731.19,647.025 C2730.89,646.827 2730.49,646.431 2730.59,645.936 C2730.69,645.54 2730.99,645.144 2731.48,644.946 C2733.36,644.154 2733.96,642.273 2733.96,640.689 C2733.96,639.303 2732.97,636.729 2729.4,636.729 C2726.73,636.729 2724.26,639.303 2724.26,641.976 C2724.26,647.223 2727.82,649.995 2732.37,649.995 C2735.54,649.995 2737.82,648.906 2740.29,646.431 C2744.65,642.075 2749.4,627.225 2751.88,618.81 C2752.77,615.642 2753.66,612.474 2754.35,610.197 L2754.35,609.999 L2769.8,609.999 L2769.7,610.395 C2768.71,614.355 2767.92,617.82 2767.22,621.087 C2766.43,624.75 2765.54,628.611 2764.35,633.165 L2764.05,634.353 C2761.98,642.471 2761.28,645.342 2758.91,646.926 C2758.41,647.223 2757.82,647.421 2757.22,647.421 C2756.73,647.421 2756.33,647.322 2755.94,647.025 C2755.64,646.827 2755.24,646.332 2755.34,645.837 C2755.44,645.441 2755.74,645.144 2756.23,644.946 C2758.11,644.154 2758.71,642.273 2758.71,640.689 C2758.71,639.303 2757.72,636.729 2754.15,636.729 C2751.48,636.729 2749.01,639.204 2749.01,641.877 C2749.01,647.124 2752.57,649.995 2757.12,649.995 C2760.29,649.995 2762.57,648.906 2765.04,646.431 C2769.4,642.075 2774.15,627.225 2776.63,618.81 C2777.52,615.642 2778.41,612.474 2779.1,610.197 L2779.1,609.999 L2786.33,609.999 C2786.92,609.999 2787.32,609.603 2787.32,609.009 L2787.32,606.831 C2787.32,606.237 2786.92,605.841 2786.33,605.841 L2780.39,605.841 L2780.49,605.544 C2783.26,595.347 2784.05,593.565 2785.54,592.377 C2786.33,591.783 2787.02,591.585 2787.52,591.585 C2787.72,591.585 2787.91,591.684 2788.01,591.684 C2788.61,591.783 2789.1,592.377 2789.1,592.971 C2789.1,593.466 2788.9,593.961 2788.51,594.159 C2787.52,594.951 2787.02,596.238 2787.02,597.525 C2787.02,598.02 2787.12,598.515 2787.22,599.01 C2787.52,599.901 2788.31,600.891 2789.3,601.287 C2789.7,601.485 2790.29,601.584 2790.88,601.584 C2793.06,601.584 2795.14,600.099 2795.73,598.02 C2795.93,597.426 2796.03,596.733 2796.03,596.139 C2796.03,594.951 2795.73,593.763 2795.04,592.674 C2793.66,590.001 2789.7,588.813 2786.82,588.813 C2777.72,588.813 2773.66,598.317 2771.18,605.643 L2771.08,605.841 L2755.64,605.841 L2755.74,605.544 "/>
<path class="Dynamic" d="M676.879,609.702 C676.879,609.702 675.988,606.336 673.117,605.643 C672.622,605.544 672.127,605.445 671.632,605.445 C667.672,605.445 665.395,609.801 664.405,613.068 L665.89,613.86 C665.89,613.86 667.573,608.514 669.751,608.514 C669.949,608.514 670.048,608.514 670.246,608.613 C670.741,608.811 670.939,609.405 670.939,610.197 C670.939,611.88 670.048,614.751 668.959,618.216 L665.593,629.007 C665.593,629.106 665.593,629.205 665.593,629.403 C665.593,630.096 665.791,630.591 666.583,630.591 L672.028,630.591 C672.523,630.591 672.919,630.492 673.117,629.403 C673.117,629.304 673.216,629.007 673.216,628.71 C675.196,614.751 678.364,610.593 680.839,609.603 L680.938,609.504 C681.037,609.504 681.136,609.504 681.136,609.504 L681.235,609.603 C681.532,609.702 681.631,609.9 681.73,610.296 C681.73,613.167 680.047,618.216 679.057,620.79 C678.463,622.275 678.166,623.76 678.166,625.047 C678.166,628.116 679.75,630.69 683.116,630.69 C687.571,630.69 689.353,627.027 690.739,623.463 L690.739,623.166 C690.838,623.166 690.838,623.067 690.838,623.067 L689.155,622.275 C689.155,622.275 688.066,624.948 687.373,626.136 C686.878,627.027 686.383,627.225 685.888,627.225 C685.69,627.225 685.591,627.225 685.393,627.126 C684.799,626.928 684.601,626.532 684.601,625.938 C684.601,625.047 684.997,623.859 685.393,622.671 C686.68,618.909 687.67,615.147 687.67,611.088 C687.67,610.593 687.67,610.098 687.571,609.702 C687.076,607.029 685.888,605.742 683.809,605.742 C681.235,605.742 678.463,607.524 677.176,609.306 L676.879,609.702 "/>
<path class="Beam" fill-rule="evenodd" d="M1790.74,227.167 L1967.25,227.167 L1967.25,239.567 L1790.74,239.567 L1790.74,227.167 "/>
<path class="Beam" fill-rule="evenodd" d="M1475.76,227.167 L1652.27,227.167 L1652.27,239.567 L1475.76,239.567 L1475.76,227.167 "/>
<path class="Beam" fill-rule="evenodd" d="M692.59,227.167 L869.107,227.167 L869.107,239.567 L692.59,239.567 L692.59,227.167 "/>
<path class="Beam" fill-rule="evenodd" d="M2312.85,227.167 L2489.37,227.167 L2489.37,239.567 L2312.85,239.567 L2312.85,227.167 "/>
<path class="Beam" fill-rule="evenodd" d="M953.645,227.167 L1130.16,227.167 L1130.16,239.567 L953.645,239.567 L953.645,227.167 "/>
<path class="Beam" fill-rule="evenodd" d="M1214.7,227.167 L1391.22,227.167 L1391.22,239.567 L1214.7,239.567 L1214.7,227.167 "/>
<path class="Beam" fill-rule="evenodd" d="M2573.9,227.167 L2750.42,227.167 L2750.42,239.567 L2573.9,239.567 L2573.9,227.167 "/>
<path class="Beam" fill-rule="evenodd" d="M2051.79,227.167 L2228.31,227.167 L2228.31,239.567 L2051.79,239.567 L2051.79,227.167 "/>
<path class="Beam" fill-rule="evenodd" d="M2312.85,454.883 L2524.17,454.883 L2524.17,467.283 L2312.85,467.283 L2312.85,454.883 "/>
<path class="Beam" fill-rule="evenodd" d="M2312.85,473.483 L2524.17,473.483 L2524.17,485.883 L2312.85,485.883 L2312.85,473.483 "/>
<path class="Beam" fill-rule="evenodd" d="M1790.74,454.883 L2002.06,454.883 L2002.06,467.283 L1790.74,467.283 L1790.74,454.883 "/>
<path class="Beam" fill-rule="evenodd" d="M1790.74,473.483 L2002.06,473.483 L2002.06,485.883 L1790.74,485.883 L1790.74,473.483 "/>
<path class="Beam" fill-rule="evenodd" d="M2573.9,454.883 L2785.23,454.883 L2785.23,467.283 L2573.9,467.283 L2573.9,454.883 "/>
<path class="Beam" fill-rule="evenodd" d="M2573.9,473.483 L2785.23,473.483 L2785.23,485.883 L2573.9,485.883 L2573.9,473.483 "/>
<path class="Beam" fill-rule="evenodd" d="M1475.76,454.883 L1687.08,454.883 L1687.08,467.283 L1475.76,467.283 L1475.76,454.883 "/>
<path class="Beam" fill-rule="evenodd" d="M1475.76,473.483 L1687.08,473.483 L1687.08,485.883 L1475.76,485.883 L1475.76,473.483 "/>
<path class="Beam" fill-rule="evenodd" d="M1214.7,454.883 L1426.03,454.883 L1426.03,467.283 L1214.7,467.283 L1214.7,454.883 "/>
<path class="Beam" fill-rule="evenodd" d="M1214.7,473.483 L1426.03,473.483 L1426.03,485.883 L1214.7,485.883 L1214.7,473.483 "/>
<path class="Beam" fill-rule="evenodd" d="M2051.79,454.883 L2263.12,454.883 L2263.12,467.283 L2051.79,467.283 L2051.79,454.883 "/>
<path class="Beam" fill-rule="evenodd" d="M2051.79,473.483 L2263.12,473.483 L2263.12,485.883 L2051.79,485.883 L2051.79,473.483 "/>
<path class="Beam" fill-rule="evenodd" d="M953.645,454.883 L1164.97,454.883 L1164.97,467.283 L953.645,467.283 L953.645,454.883 "/>
<path class="Beam" fill-rule="evenodd" d="M953.645,473.483 L1164.97,473.483 L1164.97,485.883 L953.645,485.883 L953.645,473.483 "/>
<path class="Beam" fill-rule="evenodd" d="M692.59,454.883 L903.914,454.883 L903.914,467.283 L692.59,467.283 L692.59,454.883 "/>
<path class="Beam" fill-rule="evenodd" d="M692.59,473.483 L903.914,473.483 L903.914,485.883 L692.59,485.883 L692.59,473.483 "/>
<path class="Tuplet" d="M2142.77,195.287 C2144.88,194.612 2145.74,194.252 2146.82,193.532 C2148.93,192.137 2150.24,189.662 2150.24,187.142 C2150.24,182.867 2146.82,179.987 2141.78,179.987 C2136.87,179.987 2132.73,183.047 2132.73,186.737 C2132.73,188.582 2133.86,189.842 2135.57,189.842 C2137.05,189.842 2138.13,188.762 2138.13,187.277 C2138.13,186.512 2137.91,185.972 2137.19,185.252 C2136.74,184.847 2136.56,184.532 2136.56,184.217 C2136.56,183.137 2138.81,182.012 2140.92,182.012 C2143.94,182.012 2145.74,183.677 2145.74,186.467 C2145.74,190.472 2142.9,194.252 2139.89,194.252 C2139.75,194.252 2139.35,194.207 2138.85,194.162 C2137.55,194.072 2137.55,194.072 2137.28,194.072 C2136.29,194.072 2135.75,194.522 2135.75,195.332 C2135.75,196.052 2136.24,196.502 2137.05,196.502 C2137.28,196.502 2137.59,196.457 2137.95,196.412 C2138.58,196.277 2139.26,196.232 2139.66,196.232 C2141.78,196.232 2143.22,198.122 2143.22,200.912 C2143.22,205.772 2140.83,210.452 2135.39,210.452 C2132.87,210.452 2130.71,209.192 2130.71,207.752 C2130.71,207.257 2130.89,207.077 2131.61,206.762 C2132.91,206.177 2133.45,205.367 2133.45,204.152 C2133.45,202.577 2132.19,201.362 2130.57,201.362 C2128.64,201.362 2127.38,202.892 2127.38,205.232 C2127.38,209.597 2130.71,212.342 2136.11,212.342 C2142.9,212.342 2148.08,207.797 2148.08,201.767 C2148.08,198.257 2145.92,196.277 2142.77,195.287"/>
<path class="Tuplet" d="M2664.88,195.287 C2666.99,194.612 2667.85,194.252 2668.93,193.532 C2671.04,192.137 2672.35,189.662 2672.35,187.142 C2672.35,182.867 2668.93,179.987 2663.89,179.987 C2658.98,179.987 2654.84,183.047 2654.84,186.737 C2654.84,188.582 2655.97,189.842 2657.68,189.842 C2659.16,189.842 2660.24,188.762 2660.24,187.277 C2660.24,186.512 2660.02,185.972 2659.3,185.252 C2658.85,184.847 2658.67,184.532 2658.67,184.217 C2658.67,183.137 2660.92,182.012 2663.03,182.012 C2666.05,182.012 2667.85,183.677 2667.85,186.467 C2667.85,190.472 2665.01,194.252 2662,194.252 C2661.86,194.252 2661.46,194.207 2660.96,194.162 C2659.66,194.072 2659.66,194.072 2659.39,194.072 C2658.4,194.072 2657.86,194.522 2657.86,195.332 C2657.86,196.052 2658.35,196.502 2659.16,196.502 C2659.39,196.502 2659.7,196.457 2660.06,196.412 C2660.69,196.277 2661.37,196.232 2661.77,196.232 C2663.89,196.232 2665.33,198.122 2665.33,200.912 C2665.33,205.772 2662.94,210.452 2657.5,210.452 C2654.98,210.452 2652.82,209.192 2652.82,207.752 C2652.82,207.257 2653,207.077 2653.72,206.762 C2655.02,206.177 2655.56,205.367 2655.56,204.152 C2655.56,202.577 2654.3,201.362 2652.68,201.362 C2650.75,201.362 2649.49,202.892 2649.49,205.232 C2649.49,209.597 2652.82,212.342 2658.22,212.342 C2665.01,212.342 2670.19,207.797 2670.19,201.767 C2670.19,198.257 2668.03,196.277 2664.88,195.287"/>
<path class="Tuplet" d="M1881.71,195.287 C1883.83,194.612 1884.68,194.252 1885.76,193.532 C1887.88,192.137 1889.18,189.662 1889.18,187.142 C1889.18,182.867 1885.76,179.987 1880.72,179.987 C1875.82,179.987 1871.68,183.047 1871.68,186.737 C1871.68,188.582 1872.8,189.842 1874.51,189.842 C1876,189.842 1877.08,188.762 1877.08,187.277 C1877.08,186.512 1876.85,185.972 1876.13,185.252 C1875.68,184.847 1875.5,184.532 1875.5,184.217 C1875.5,183.137 1877.75,182.012 1879.87,182.012 C1882.88,182.012 1884.68,183.677 1884.68,186.467 C1884.68,190.472 1881.85,194.252 1878.83,194.252 C1878.7,194.252 1878.29,194.207 1877.8,194.162 C1876.49,194.072 1876.49,194.072 1876.22,194.072 C1875.23,194.072 1874.69,194.522 1874.69,195.332 C1874.69,196.052 1875.19,196.502 1876,196.502 C1876.22,196.502 1876.54,196.457 1876.9,196.412 C1877.53,196.277 1878.2,196.232 1878.61,196.232 C1880.72,196.232 1882.16,198.122 1882.16,200.912 C1882.16,205.772 1879.78,210.452 1874.33,210.452 C1871.81,210.452 1869.65,209.192 1869.65,207.752 C1869.65,207.257 1869.83,207.077 1870.55,206.762 C1871.86,206.177 1872.4,205.367 1872.4,204.152 C1872.4,202.577 1871.14,201.362 1869.52,201.362 C1867.58,201.362 1866.32,202.892 1866.32,205.232 C1866.32,209.597 1869.65,212.342 1875.05,212.342 C1881.85,212.342 1887.02,207.797 1887.02,201.767 C1887.02,198.257 1884.86,196.277 1881.71,195.287"/>
<path class="Tuplet" d="M1566.73,195.287 C1568.85,194.612 1569.7,194.252 1570.78,193.532 C1572.9,192.137 1574.2,189.662 1574.2,187.142 C1574.2,182.867 1570.78,179.987 1565.74,179.987 C1560.84,179.987 1556.7,183.047 1556.7,186.737 C1556.7,188.582 1557.82,189.842 1559.53,189.842 C1561.02,189.842 1562.1,188.762 1562.1,187.277 C1562.1,186.512 1561.87,185.972 1561.15,185.252 C1560.7,184.847 1560.52,184.532 1560.52,184.217 C1560.52,183.137 1562.77,182.012 1564.89,182.012 C1567.9,182.012 1569.7,183.677 1569.7,186.467 C1569.7,190.472 1566.87,194.252 1563.85,194.252 C1563.72,194.252 1563.31,194.207 1562.82,194.162 C1561.51,194.072 1561.51,194.072 1561.24,194.072 C1560.25,194.072 1559.71,194.522 1559.71,195.332 C1559.71,196.052 1560.21,196.502 1561.02,196.502 C1561.24,196.502 1561.56,196.457 1561.92,196.412 C1562.55,196.277 1563.22,196.232 1563.63,196.232 C1565.74,196.232 1567.18,198.122 1567.18,200.912 C1567.18,205.772 1564.8,210.452 1559.35,210.452 C1556.83,210.452 1554.67,209.192 1554.67,207.752 C1554.67,207.257 1554.85,207.077 1555.57,206.762 C1556.88,206.177 1557.42,205.367 1557.42,204.152 C1557.42,202.577 1556.16,201.362 1554.54,201.362 C1552.6,201.362 1551.34,202.892 1551.34,205.232 C1551.34,209.597 1554.67,212.342 1560.07,212.342 C1566.87,212.342 1572.04,207.797 1572.04,201.767 C1572.04,198.257 1569.88,196.277 1566.73,195.287"/>
<path class="Tuplet" d="M1305.68,195.287 C1307.79,194.612 1308.65,194.252 1309.73,193.532 C1311.84,192.137 1313.15,189.662 1313.15,187.142 C1313.15,182.867 1309.73,179.987 1304.69,179.987 C1299.78,179.987 1295.64,183.047 1295.64,186.737 C1295.64,188.582 1296.77,189.842 1298.48,189.842 C1299.96,189.842 1301.04,188.762 1301.04,187.277 C1301.04,186.512 1300.82,185.972 1300.1,185.252 C1299.65,184.847 1299.47,184.532 1299.47,184.217 C1299.47,183.137 1301.72,182.012 1303.83,182.012 C1306.85,182.012 1308.65,183.677 1308.65,186.467 C1308.65,190.472 1305.81,194.252 1302.8,194.252 C1302.66,194.252 1302.26,194.207 1301.76,194.162 C1300.46,194.072 1300.46,194.072 1300.19,194.072 C1299.2,194.072 1298.66,194.522 1298.66,195.332 C1298.66,196.052 1299.15,196.502 1299.96,196.502 C1300.19,196.502 1300.5,196.457 1300.86,196.412 C1301.49,196.277 1302.17,196.232 1302.57,196.232 C1304.69,196.232 1306.13,198.122 1306.13,200.912 C1306.13,205.772 1303.74,210.452 1298.3,210.452 C1295.78,210.452 1293.62,209.192 1293.62,207.752 C1293.62,207.257 1293.8,207.077 1294.52,206.762 C1295.82,206.177 1296.36,205.367 1296.36,204.152 C1296.36,202.577 1295.1,201.362 1293.48,201.362 C1291.55,201.362 1290.29,202.892 1290.29,205.232 C1290.29,209.597 1293.62,212.342 1299.02,212.342 C1305.81,212.342 1310.99,207.797 1310.99,201.767 C1310.99,198.257 1308.83,196.277 1305.68,195.287"/>
<path class="Tuplet" d="M1044.62,195.287 C1046.73,194.612 1047.59,194.252 1048.67,193.532 C1050.78,192.137 1052.09,189.662 1052.09,187.142 C1052.09,182.867 1048.67,179.987 1043.63,179.987 C1038.72,179.987 1034.58,183.047 1034.58,186.737 C1034.58,188.582 1035.71,189.842 1037.42,189.842 C1038.9,189.842 1039.98,188.762 1039.98,187.277 C1039.98,186.512 1039.76,185.972 1039.04,185.252 C1038.59,184.847 1038.41,184.532 1038.41,184.217 C1038.41,183.137 1040.66,182.012 1042.77,182.012 C1045.79,182.012 1047.59,183.677 1047.59,186.467 C1047.59,190.472 1044.75,194.252 1041.74,194.252 C1041.6,194.252 1041.2,194.207 1040.7,194.162 C1039.4,194.072 1039.4,194.072 1039.13,194.072 C1038.14,194.072 1037.6,194.522 1037.6,195.332 C1037.6,196.052 1038.09,196.502 1038.9,196.502 C1039.13,196.502 1039.44,196.457 1039.8,196.412 C1040.43,196.277 1041.11,196.232 1041.51,196.232 C1043.63,196.232 1045.07,198.122 1045.07,200.912 C1045.07,205.772 1042.68,210.452 1037.24,210.452 C1034.72,210.452 1032.56,209.192 1032.56,207.752 C1032.56,207.257 1032.74,207.077 1033.46,206.762 C1034.76,206.177 1035.3,205.367 1035.3,204.152 C1035.3,202.577 1034.04,201.362 1032.42,201.362 C1030.49,201.362 1029.23,202.892 1029.23,205.232 C1029.23,209.597 1032.56,212.342 1037.96,212.342 C1044.75,212.342 1049.93,207.797 1049.93,201.767 C1049.93,198.257 1047.77,196.277 1044.62,195.287"/>
<path class="Tuplet" d="M783.564,195.287 C785.679,194.612 786.534,194.252 787.614,193.532 C789.729,192.137 791.034,189.662 791.034,187.142 C791.034,182.867 787.614,179.987 782.574,179.987 C777.669,179.987 773.529,183.047 773.529,186.737 C773.529,188.582 774.654,189.842 776.364,189.842 C777.849,189.842 778.929,188.762 778.929,187.277 C778.929,186.512 778.704,185.972 777.984,185.252 C777.534,184.847 777.354,184.532 777.354,184.217 C777.354,183.137 779.604,182.012 781.719,182.012 C784.734,182.012 786.534,183.677 786.534,186.467 C786.534,190.472 783.699,194.252 780.684,194.252 C780.549,194.252 780.144,194.207 779.649,194.162 C778.344,194.072 778.344,194.072 778.074,194.072 C777.084,194.072 776.544,194.522 776.544,195.332 C776.544,196.052 777.039,196.502 777.849,196.502 C778.074,196.502 778.389,196.457 778.749,196.412 C779.379,196.277 780.054,196.232 780.459,196.232 C782.574,196.232 784.014,198.122 784.014,200.912 C784.014,205.772 781.629,210.452 776.184,210.452 C773.664,210.452 771.504,209.192 771.504,207.752 C771.504,207.257 771.684,207.077 772.404,206.762 C773.709,206.177 774.249,205.367 774.249,204.152 C774.249,202.577 772.989,201.362 771.369,201.362 C769.434,201.362 768.174,202.892 768.174,205.232 C768.174,209.597 771.504,212.342 776.904,212.342 C783.699,212.342 788.874,207.797 788.874,201.767 C788.874,198.257 786.714,196.277 783.564,195.287"/>
<path class="Tuplet" d="M2403.82,195.287 C2405.94,194.612 2406.79,194.252 2407.87,193.532 C2409.99,192.137 2411.29,189.662 2411.29,187.142 C2411.29,182.867 2407.87,179.987 2402.83,179.987 C2397.93,179.987 2393.79,183.047 2393.79,186.737 C2393.79,188.582 2394.91,189.842 2396.62,189.842 C2398.11,189.842 2399.19,188.762 2399.19,187.277 C2399.19,186.512 2398.96,185.972 2398.24,185.252 C2397.79,184.847 2397.61,184.532 2397.61,184.217 C2397.61,183.137 2399.86,182.012 2401.98,182.012 C2404.99,182.012 2406.79,183.677 2406.79,186.467 C2406.79,190.472 2403.96,194.252 2400.94,194.252 C2400.81,194.252 2400.4,194.207 2399.91,194.162 C2398.6,194.072 2398.6,194.072 2398.33,194.072 C2397.34,194.072 2396.8,194.522 2396.8,195.332 C2396.8,196.052 2397.3,196.502 2398.11,196.502 C2398.33,196.502 2398.65,196.457 2399.01,196.412 C2399.64,196.277 2400.31,196.232 2400.72,196.232 C2402.83,196.232 2404.27,198.122 2404.27,200.912 C2404.27,205.772 2401.89,210.452 2396.44,210.452 C2393.92,210.452 2391.76,209.192 2391.76,207.752 C2391.76,207.257 2391.94,207.077 2392.66,206.762 C2393.97,206.177 2394.51,205.367 2394.51,204.152 C2394.51,202.577 2393.25,201.362 2391.63,201.362 C2389.69,201.362 2388.43,202.892 2388.43,205.232 C2388.43,209.597 2391.76,212.342 2397.16,212.342 C2403.96,212.342 2409.13,207.797 2409.13,201.767 C2409.13,198.257 2406.97,196.277 2403.82,195.287"/>
<path class="Tuplet" d="M2671.15,422.148 C2669.75,423.003 2669.35,423.543 2669.35,424.443 C2669.35,425.298 2670.07,425.928 2670.97,425.928 C2672.14,425.928 2672.81,425.073 2672.95,423.408 C2674.34,422.283 2675.83,421.788 2677.63,421.788 C2680.96,421.788 2682.8,423.858 2682.8,427.593 C2682.8,433.443 2679.02,438.213 2674.39,438.213 C2671.73,438.213 2669.57,436.953 2669.57,435.468 C2669.57,435.198 2669.62,435.108 2669.84,434.973 C2671.28,434.298 2672.45,433.803 2672.45,431.913 C2672.45,430.473 2671.33,429.393 2669.75,429.393 C2667.77,429.393 2666.29,431.058 2666.29,433.218 C2666.29,437.178 2669.71,440.058 2674.52,440.058 C2681.81,440.058 2687.71,434.253 2687.71,427.053 C2687.71,422.508 2684.24,419.313 2679.34,419.313 C2677.4,419.313 2675.83,419.718 2673.67,420.798 L2676.19,412.293 C2678.57,412.788 2680.46,413.013 2682.08,413.013 C2685.05,413.013 2687.71,412.068 2689.19,410.493 C2689.96,409.593 2690.41,408.828 2690.41,408.243 C2690.41,407.973 2690.27,407.703 2690.09,407.703 C2689.96,407.703 2689.87,407.748 2689.6,407.883 C2688.11,408.603 2686.22,409.008 2684.47,409.008 C2681.77,409.008 2678.57,408.558 2675.24,407.703 L2671.15,422.148 "/>
<path class="Tuplet" d="M2410.09,422.148 C2408.7,423.003 2408.29,423.543 2408.29,424.443 C2408.29,425.298 2409.01,425.928 2409.91,425.928 C2411.08,425.928 2411.76,425.073 2411.89,423.408 C2413.29,422.283 2414.77,421.788 2416.57,421.788 C2419.9,421.788 2421.75,423.858 2421.75,427.593 C2421.75,433.443 2417.97,438.213 2413.33,438.213 C2410.68,438.213 2408.52,436.953 2408.52,435.468 C2408.52,435.198 2408.56,435.108 2408.79,434.973 C2410.23,434.298 2411.4,433.803 2411.4,431.913 C2411.4,430.473 2410.27,429.393 2408.7,429.393 C2406.72,429.393 2405.23,431.058 2405.23,433.218 C2405.23,437.178 2408.65,440.058 2413.47,440.058 C2420.76,440.058 2426.65,434.253 2426.65,427.053 C2426.65,422.508 2423.19,419.313 2418.28,419.313 C2416.35,419.313 2414.77,419.718 2412.61,420.798 L2415.13,412.293 C2417.52,412.788 2419.41,413.013 2421.03,413.013 C2424,413.013 2426.65,412.068 2428.14,410.493 C2428.9,409.593 2429.35,408.828 2429.35,408.243 C2429.35,407.973 2429.22,407.703 2429.04,407.703 C2428.9,407.703 2428.81,407.748 2428.54,407.883 C2427.06,408.603 2425.17,409.008 2423.41,409.008 C2420.71,409.008 2417.52,408.558 2414.19,407.703 L2410.09,422.148 "/>
<path class="Tuplet" d="M1573,422.148 C1571.6,423.003 1571.2,423.543 1571.2,424.443 C1571.2,425.298 1571.92,425.928 1572.82,425.928 C1573.99,425.928 1574.66,425.073 1574.8,423.408 C1576.19,422.283 1577.68,421.788 1579.48,421.788 C1582.81,421.788 1584.65,423.858 1584.65,427.593 C1584.65,433.443 1580.87,438.213 1576.24,438.213 C1573.58,438.213 1571.42,436.953 1571.42,435.468 C1571.42,435.198 1571.47,435.108 1571.69,434.973 C1573.13,434.298 1574.3,433.803 1574.3,431.913 C1574.3,430.473 1573.18,429.393 1571.6,429.393 C1569.62,429.393 1568.14,431.058 1568.14,433.218 C1568.14,437.178 1571.56,440.058 1576.37,440.058 C1583.66,440.058 1589.56,434.253 1589.56,427.053 C1589.56,422.508 1586.09,419.313 1581.19,419.313 C1579.25,419.313 1577.68,419.718 1575.52,420.798 L1578.04,412.293 C1580.42,412.788 1582.31,413.013 1583.93,413.013 C1586.9,413.013 1589.56,412.068 1591.04,410.493 C1591.81,409.593 1592.26,408.828 1592.26,408.243 C1592.26,407.973 1592.12,407.703 1591.94,407.703 C1591.81,407.703 1591.72,407.748 1591.45,407.883 C1589.96,408.603 1588.07,409.008 1586.32,409.008 C1583.62,409.008 1580.42,408.558 1577.09,407.703 L1573,422.148 "/>
<path class="Tuplet" d="M1887.98,422.148 C1886.59,423.003 1886.18,423.543 1886.18,424.443 C1886.18,425.298 1886.9,425.928 1887.8,425.928 C1888.97,425.928 1889.65,425.073 1889.78,423.408 C1891.18,422.283 1892.66,421.788 1894.46,421.788 C1897.79,421.788 1899.64,423.858 1899.64,427.593 C1899.64,433.443 1895.86,438.213 1891.22,438.213 C1888.57,438.213 1886.41,436.953 1886.41,435.468 C1886.41,435.198 1886.45,435.108 1886.68,434.973 C1888.12,434.298 1889.29,433.803 1889.29,431.913 C1889.29,430.473 1888.16,429.393 1886.59,429.393 C1884.61,429.393 1883.12,431.058 1883.12,433.218 C1883.12,437.178 1886.54,440.058 1891.36,440.058 C1898.65,440.058 1904.54,434.253 1904.54,427.053 C1904.54,422.508 1901.08,419.313 1896.17,419.313 C1894.24,419.313 1892.66,419.718 1890.5,420.798 L1893.02,412.293 C1895.41,412.788 1897.3,413.013 1898.92,413.013 C1901.89,413.013 1904.54,412.068 1906.03,410.493 C1906.79,409.593 1907.24,408.828 1907.24,408.243 C1907.24,407.973 1907.11,407.703 1906.93,407.703 C1906.79,407.703 1906.7,407.748 1906.43,407.883 C1904.95,408.603 1903.06,409.008 1901.3,409.008 C1898.6,409.008 1895.41,408.558 1892.08,407.703 L1887.98,422.148 "/>
<path class="Tuplet" d="M1311.94,422.148 C1310.55,423.003 1310.14,423.543 1310.14,424.443 C1310.14,425.298 1310.86,425.928 1311.76,425.928 C1312.93,425.928 1313.61,425.073 1313.74,423.408 C1315.14,422.283 1316.62,421.788 1318.42,421.788 C1321.75,421.788 1323.6,423.858 1323.6,427.593 C1323.6,433.443 1319.82,438.213 1315.18,438.213 C1312.53,438.213 1310.37,436.953 1310.37,435.468 C1310.37,435.198 1310.41,435.108 1310.64,434.973 C1312.08,434.298 1313.25,433.803 1313.25,431.913 C1313.25,430.473 1312.12,429.393 1310.55,429.393 C1308.57,429.393 1307.08,431.058 1307.08,433.218 C1307.08,437.178 1310.5,440.058 1315.32,440.058 C1322.61,440.058 1328.5,434.253 1328.5,427.053 C1328.5,422.508 1325.04,419.313 1320.13,419.313 C1318.2,419.313 1316.62,419.718 1314.46,420.798 L1316.98,412.293 C1319.37,412.788 1321.26,413.013 1322.88,413.013 C1325.85,413.013 1328.5,412.068 1329.99,410.493 C1330.75,409.593 1331.2,408.828 1331.2,408.243 C1331.2,407.973 1331.07,407.703 1330.89,407.703 C1330.75,407.703 1330.66,407.748 1330.39,407.883 C1328.91,408.603 1327.02,409.008 1325.26,409.008 C1322.56,409.008 1319.37,408.558 1316.04,407.703 L1311.94,422.148 "/>
<path class="Tuplet" d="M1050.89,422.148 C1049.49,423.003 1049.09,423.543 1049.09,424.443 C1049.09,425.298 1049.81,425.928 1050.71,425.928 C1051.88,425.928 1052.55,425.073 1052.69,423.408 C1054.08,422.283 1055.57,421.788 1057.37,421.788 C1060.7,421.788 1062.54,423.858 1062.54,427.593 C1062.54,433.443 1058.76,438.213 1054.13,438.213 C1051.47,438.213 1049.31,436.953 1049.31,435.468 C1049.31,435.198 1049.36,435.108 1049.58,434.973 C1051.02,434.298 1052.19,433.803 1052.19,431.913 C1052.19,430.473 1051.07,429.393 1049.49,429.393 C1047.51,429.393 1046.03,431.058 1046.03,433.218 C1046.03,437.178 1049.45,440.058 1054.26,440.058 C1061.55,440.058 1067.45,434.253 1067.45,427.053 C1067.45,422.508 1063.98,419.313 1059.08,419.313 C1057.14,419.313 1055.57,419.718 1053.41,420.798 L1055.93,412.293 C1058.31,412.788 1060.2,413.013 1061.82,413.013 C1064.79,413.013 1067.45,412.068 1068.93,410.493 C1069.7,409.593 1070.15,408.828 1070.15,408.243 C1070.15,407.973 1070.01,407.703 1069.83,407.703 C1069.7,407.703 1069.61,407.748 1069.34,407.883 C1067.85,408.603 1065.96,409.008 1064.21,409.008 C1061.51,409.008 1058.31,408.558 1054.98,407.703 L1050.89,422.148 "/>
<path class="Tuplet" d="M2149.04,422.148 C2147.64,423.003 2147.24,423.543 2147.24,424.443 C2147.24,425.298 2147.96,425.928 2148.86,425.928 C2150.03,425.928 2150.7,425.073 2150.84,423.408 C2152.23,422.283 2153.72,421.788 2155.52,421.788 C2158.85,421.788 2160.69,423.858 2160.69,427.593 C2160.69,433.443 2156.91,438.213 2152.28,438.213 C2149.62,438.213 2147.46,436.953 2147.46,435.468 C2147.46,435.198 2147.51,435.108 2147.73,434.973 C2149.17,434.298 2150.34,433.803 2150.34,431.913 C2150.34,430.473 2149.22,429.393 2147.64,429.393 C2145.66,429.393 2144.18,431.058 2144.18,433.218 C2144.18,437.178 2147.6,440.058 2152.41,440.058 C2159.7,440.058 2165.6,434.253 2165.6,427.053 C2165.6,422.508 2162.13,419.313 2157.23,419.313 C2155.29,419.313 2153.72,419.718 2151.56,420.798 L2154.08,412.293 C2156.46,412.788 2158.35,413.013 2159.97,413.013 C2162.94,413.013 2165.6,412.068 2167.08,410.493 C2167.85,409.593 2168.3,408.828 2168.3,408.243 C2168.3,407.973 2168.16,407.703 2167.98,407.703 C2167.85,407.703 2167.76,407.748 2167.49,407.883 C2166,408.603 2164.11,409.008 2162.36,409.008 C2159.66,409.008 2156.46,408.558 2153.13,407.703 L2149.04,422.148 "/>
<path class="Tuplet" d="M789.833,422.148 C788.438,423.003 788.033,423.543 788.033,424.443 C788.033,425.298 788.753,425.928 789.653,425.928 C790.823,425.928 791.498,425.073 791.633,423.408 C793.028,422.283 794.513,421.788 796.313,421.788 C799.643,421.788 801.488,423.858 801.488,427.593 C801.488,433.443 797.708,438.213 793.073,438.213 C790.418,438.213 788.258,436.953 788.258,435.468 C788.258,435.198 788.303,435.108 788.528,434.973 C789.968,434.298 791.138,433.803 791.138,431.913 C791.138,430.473 790.013,429.393 788.438,429.393 C786.458,429.393 784.973,431.058 784.973,433.218 C784.973,437.178 788.393,440.058 793.208,440.058 C800.498,440.058 806.393,434.253 806.393,427.053 C806.393,422.508 802.928,419.313 798.023,419.313 C796.088,419.313 794.513,419.718 792.353,420.798 L794.873,412.293 C797.258,412.788 799.148,413.013 800.768,413.013 C803.738,413.013 806.393,412.068 807.878,410.493 C808.643,409.593 809.093,408.828 809.093,408.243 C809.093,407.973 808.958,407.703 808.778,407.703 C808.643,407.703 808.553,407.748 808.283,407.883 C806.798,408.603 804.908,409.008 803.153,409.008 C800.453,409.008 797.258,408.558 793.928,407.703 L789.833,422.148 "/>
<path class="Tempo" d="M2743.43,107.992 L2740.17,107.992 L2740.17,150.265 C2739.08,149.572 2737.69,149.176 2736.11,148.978 C2732.54,148.978 2729.67,149.374 2726.51,151.156 C2722.55,153.235 2718.19,157.591 2718.19,162.442 C2718.19,167.194 2722.45,169.471 2726.8,169.471 C2733.73,169.471 2743.43,163.531 2743.43,156.007 L2743.43,107.992 "/>
<path class="Tempo" d="M2765.69,145.948 L2795.93,145.948 L2795.93,139.048 L2765.69,139.048 L2765.69,145.948 M2765.69,158.308 L2795.93,158.308 L2795.93,151.408 L2765.69,151.408 L2765.69,158.308 M2837.26,141.748 C2842.36,140.428 2846.92,138.148 2846.92,131.968 C2846.92,125.608 2841.28,121.348 2832.76,121.348 C2828.38,121.348 2824.84,122.488 2822.32,124.708 C2820.34,126.448 2819.14,128.968 2819.14,131.248 C2819.14,134.368 2821.48,136.708 2824.54,136.708 C2827.42,136.708 2829.4,134.788 2829.4,131.968 C2829.4,130.348 2828.74,129.088 2827.06,127.468 C2826.76,127.168 2826.64,126.988 2826.64,126.748 C2826.64,125.608 2828.86,124.468 2831.2,124.468 C2834.98,124.468 2837.2,127.228 2837.2,131.908 C2837.2,137.128 2835.46,140.308 2832.52,140.308 C2832.04,140.308 2831.44,140.248 2830.48,140.008 C2829.16,139.708 2828.74,139.648 2828.08,139.648 C2826.58,139.648 2825.86,140.308 2825.86,141.628 C2825.86,143.008 2826.76,143.908 2828.02,143.908 C2828.44,143.908 2828.8,143.848 2829.82,143.728 C2831.2,143.608 2831.56,143.548 2831.98,143.548 C2835.7,143.548 2837.56,146.428 2837.56,152.068 C2837.56,158.128 2835.04,161.548 2830.6,161.548 C2828.08,161.548 2825.44,160.288 2825.44,159.028 C2825.44,158.668 2825.62,158.308 2825.98,157.948 C2827.78,156.268 2828.2,155.488 2828.2,153.748 C2828.2,150.928 2825.98,148.768 2823.04,148.768 C2819.8,148.768 2817.64,151.108 2817.64,154.468 C2817.64,160.528 2823.52,164.668 2832.16,164.668 C2840.08,164.668 2848,161.368 2848,152.248 C2848,148.468 2846.32,145.168 2843.56,143.548 C2841.82,142.588 2840.44,142.168 2837.26,141.748 M2862.76,142.168 C2862.76,137.188 2863.84,124.468 2870.68,124.468 C2872.18,124.468 2873.26,125.008 2873.26,125.848 C2873.26,126.268 2873.2,126.448 2872.78,126.988 C2872,128.008 2871.58,129.328 2871.58,130.528 C2871.58,133.228 2873.74,135.148 2876.86,135.148 C2880.28,135.148 2882.44,133.048 2882.44,129.748 C2882.44,124.588 2878.06,121.348 2871.22,121.348 C2865.46,121.348 2861.02,123.568 2857.54,128.188 C2854,132.808 2852.38,138.328 2852.38,145.468 C2852.38,151.468 2853.64,155.728 2856.46,159.208 C2859.4,162.808 2863.42,164.668 2868.34,164.668 C2877.16,164.668 2883.58,158.728 2883.58,150.448 C2883.58,143.248 2878.66,138.208 2871.52,138.208 C2867.62,138.208 2865.28,139.288 2862.76,142.168 M2868.4,142.708 C2871.52,142.828 2873.14,145.708 2873.14,151.108 C2873.14,158.068 2871.4,161.848 2868.22,161.848 C2864.98,161.848 2863.12,158.368 2863.12,152.188 C2863.12,150.028 2863.3,148.168 2863.6,146.788 C2864.26,144.208 2866.12,142.588 2868.4,142.708"/>
<path class="Tempo" d="M506.573,117.529 L503.306,117.529 L503.306,159.802 C502.217,159.109 500.831,158.713 499.247,158.515 C495.683,158.515 492.812,158.911 489.644,160.693 C485.684,162.772 481.328,167.128 481.328,171.979 C481.328,176.731 485.585,179.008 489.941,179.008 C496.871,179.008 506.573,173.068 506.573,165.544 L506.573,117.529 "/>
<path class="Tempo" d="M528.825,155.485 L559.065,155.485 L559.065,148.585 L528.825,148.585 L528.825,155.485 M528.825,167.845 L559.065,167.845 L559.065,160.945 L528.825,160.945 L528.825,167.845 M591.463,151.705 C591.463,146.725 592.543,134.005 599.383,134.005 C600.883,134.005 601.963,134.545 601.963,135.385 C601.963,135.805 601.903,135.985 601.483,136.525 C600.703,137.545 600.283,138.865 600.283,140.065 C600.283,142.765 602.443,144.685 605.563,144.685 C608.983,144.685 611.143,142.585 611.143,139.285 C611.143,134.125 606.763,130.885 599.923,130.885 C594.163,130.885 589.723,133.105 586.243,137.725 C582.703,142.345 581.083,147.865 581.083,155.005 C581.083,161.005 582.343,165.265 585.163,168.745 C588.103,172.345 592.123,174.205 597.043,174.205 C605.863,174.205 612.283,168.265 612.283,159.985 C612.283,152.785 607.363,147.745 600.223,147.745 C596.323,147.745 593.983,148.825 591.463,151.705 M597.103,152.245 C600.223,152.365 601.843,155.245 601.843,160.645 C601.843,167.605 600.103,171.385 596.923,171.385 C593.683,171.385 591.823,167.905 591.823,161.725 C591.823,159.565 592.003,157.705 592.303,156.325 C592.963,153.745 594.823,152.125 597.103,152.245 M631,130.885 C622,130.885 615.4,140.065 615.4,152.545 C615.4,165.025 622,174.205 631,174.205 C639.82,174.205 646.54,165.025 646.54,152.845 C646.54,145.765 644.92,140.545 641.38,136.105 C638.56,132.685 635.02,130.885 631,130.885 M630.94,134.005 C632.74,134.005 634.18,135.085 634.84,137.005 C635.62,138.985 636.1,145.285 636.1,152.725 C636.1,158.905 635.62,165.385 635.08,167.425 C634.42,169.825 632.98,171.085 630.94,171.085 C629.08,171.085 627.7,170.065 626.98,168.085 C626.2,166.105 625.72,159.745 625.72,152.545 C625.72,146.245 626.2,139.705 626.74,137.665 C627.4,135.265 628.84,134.005 630.94,134.005"/>
<polyline class="HairpinSegment" fill="none" stroke="#000000" stroke-width="2.98" stroke-linejoin="bevel" points="718.255,392.335 2755.03,378.075 718.255,363.815"/>
<polyline class="HairpinSegment" fill="none" stroke="#000000" stroke-width="2.98" stroke-linejoin="bevel" points="2711.85,632.451 703.22,618.191 2711.85,603.931"/>
<path class="GradualTempoChangeSegment" d="M683.371,138.324 L669.991,138.744 L669.991,141.804 L670.891,141.804 C674.611,141.864 674.791,142.104 674.731,147.624 L674.731,161.304 C674.671,162.144 674.611,162.504 674.371,162.864 C673.951,163.404 672.811,163.644 670.231,163.644 L669.991,163.644 L669.991,166.704 L690.031,166.704 L690.031,163.644 L688.711,163.644 C684.691,163.584 684.211,163.284 684.211,161.064 L684.211,156.864 C684.451,147.984 686.971,142.524 691.291,141.384 C690.511,142.464 690.271,143.124 690.271,144.204 C690.271,146.784 692.191,148.644 694.771,148.644 C697.711,148.644 699.931,146.424 699.931,143.484 C699.931,140.004 697.171,137.424 693.331,137.424 C688.711,137.424 685.471,140.064 683.371,145.584 L683.371,138.324 M711.8,122.484 C708.86,122.484 706.46,124.884 706.46,127.764 C706.46,130.704 708.86,133.104 711.68,133.104 C714.74,133.104 717.08,130.764 717.08,127.764 C717.08,124.884 714.68,122.484 711.8,122.484 M716.66,138.324 L702.56,138.744 L702.56,141.804 L703.4,141.804 C707.06,141.864 707.24,142.104 707.24,147.444 L707.24,161.304 C707.18,162.144 707.12,162.504 706.88,162.864 C706.52,163.404 705.32,163.644 702.8,163.644 L702.56,163.644 L702.56,166.704 L721.34,166.704 L721.34,163.644 L720.98,163.644 C717.2,163.584 716.66,163.224 716.66,161.064 L716.66,138.324 M745.928,138.324 L738.128,138.324 L738.128,126.444 L734.348,126.444 C733.388,134.124 730.148,138.144 724.448,138.804 L724.448,141.924 L728.708,141.924 L728.708,156.264 C728.708,161.184 728.948,162.624 729.968,164.304 C731.228,166.404 733.808,167.604 737.228,167.604 C740.648,167.604 743.348,166.464 744.968,164.364 C746.468,162.384 747.368,159.564 747.368,156.924 C747.368,156.624 747.368,156.144 747.308,155.544 L744.128,155.544 C744.188,160.044 742.808,162.504 740.348,162.504 C738.608,162.504 738.128,161.424 738.128,157.344 L738.128,141.924 L745.928,141.924 L745.928,138.324 M758.095,156.324 C754.975,156.324 752.455,158.844 752.455,161.964 C752.455,165.024 754.975,167.604 758.035,167.604 C761.215,167.604 763.735,165.084 763.735,161.964 C763.735,158.844 761.215,156.324 758.095,156.324"/>
</svg>
