<?xml version="1.0" encoding="UTF-8" standalone="no"?>
<svg width="2977.2px" height="900px" viewBox="0 0 2977.2 900"
 xmlns="http://www.w3.org/2000/svg" xmlns:xlink="http://www.w3.org/1999/xlink" version="1.2" baseProfile="tiny">
<title>Untitled score</title>
<desc>Generated by MuseScore 4.1.0</desc>
<path class="" fill="#ffffff" fill-rule="evenodd" d="M0,0 L2977.2,0 L2977.2,900 L0,900 L0,0 "/>
<polyline class="StaffLines" fill="none" stroke="#000000" stroke-width="2.73" stroke-linejoin="bevel" points="525.992,386.198 2764.6,386.198"/>
<polyline class="StaffLines" fill="none" stroke="#000000" stroke-width="2.73" stroke-linejoin="bevel" points="525.992,575.097 2764.6,575.097"/>
<path class="InstrumentName" d="M240.814,382.223 L240.814,393.423 C240.814,395.973 240.814,396.073 240.514,396.523 C240.114,397.023 239.164,397.223 236.314,397.223 L235.414,397.223 L235.414,399.573 L251.814,399.573 L251.814,397.223 L250.914,397.223 C248.064,397.223 247.114,397.023 246.714,396.523 C246.414,396.073 246.414,396.023 246.414,393.423 L246.414,369.623 C246.414,367.023 246.414,366.973 246.714,366.523 C247.164,365.973 248.064,365.823 250.914,365.823 L251.814,365.823 L251.814,363.473 L235.614,363.473 L235.614,365.823 L236.314,365.823 C239.164,365.823 240.064,365.973 240.514,366.523 C240.814,366.973 240.814,367.073 240.814,369.623 L240.814,379.523 L224.064,379.523 L224.064,369.623 C224.064,367.073 224.064,366.973 224.414,366.523 C224.814,365.973 225.714,365.823 228.564,365.823 L229.514,365.823 L229.514,363.473 L213.064,363.473 L213.064,365.823 L213.964,365.823 C216.814,365.823 217.714,365.973 218.164,366.523 C218.464,366.973 218.464,367.073 218.464,369.623 L218.464,393.423 C218.464,395.923 218.464,396.073 218.164,396.523 C217.764,397.023 216.814,397.223 213.964,397.223 L213.064,397.223 L213.064,399.573 L229.514,399.573 L229.514,397.223 L228.564,397.223 C225.714,397.173 224.814,397.023 224.414,396.523 C224.064,396.073 224.064,395.973 224.064,393.423 L224.064,382.223 L240.814,382.223 M275.808,383.473 C275.808,380.323 275.258,378.723 273.808,377.523 C272.158,376.173 269.708,375.523 266.508,375.523 C260.858,375.523 256.758,378.173 256.758,381.823 C256.758,383.673 257.908,384.873 259.658,384.873 C261.258,384.873 262.358,383.823 262.358,382.323 C262.358,381.673 262.108,380.973 261.608,380.273 C261.308,379.923 261.258,379.823 261.258,379.573 C261.258,378.573 263.258,377.673 265.658,377.673 C267.258,377.673 269.008,378.173 269.808,378.923 C270.758,379.723 271.108,380.923 271.108,383.173 L271.108,385.123 C265.908,386.023 264.258,386.423 261.808,387.373 C257.458,388.973 255.408,391.273 255.408,394.473 C255.408,398.073 258.208,400.323 262.658,400.323 C266.108,400.323 269.208,398.923 271.358,396.373 C272.158,398.923 273.408,399.923 275.758,399.923 C278.008,399.923 280.358,398.473 280.358,397.023 C280.358,396.673 280.158,396.423 279.858,396.423 C279.658,396.423 279.458,396.473 279.108,396.623 C278.408,396.923 278.108,396.973 277.708,396.973 C276.308,396.973 275.808,396.073 275.808,393.523 L275.808,383.473 M271.108,389.573 C271.108,392.573 270.958,393.273 270.108,394.573 C268.858,396.423 266.608,397.673 264.408,397.673 C262.108,397.673 260.458,396.023 260.458,393.773 C260.458,391.673 261.508,390.173 263.708,389.123 C265.258,388.423 267.208,387.923 271.108,387.273 L271.108,389.573 M291.005,376.273 L282.355,376.823 L282.355,378.973 L284.155,378.973 C286.055,379.023 286.305,379.323 286.305,381.473 L286.305,395.773 C286.255,396.523 286.205,396.823 286.005,397.073 C285.655,397.523 284.705,397.723 282.555,397.773 L282.355,397.773 L282.355,399.573 L295.005,399.573 L295.005,397.773 L294.805,397.773 C291.455,397.673 291.005,397.423 291.005,395.623 L291.005,388.223 C291.005,385.773 291.355,383.523 291.905,382.373 C292.955,380.123 295.205,378.573 297.355,378.573 C298.655,378.573 300.155,379.273 300.905,380.323 C301.655,381.423 302.005,382.923 302.005,385.323 L302.005,395.773 C301.955,396.523 301.905,396.823 301.705,397.073 C301.355,397.523 300.355,397.723 298.205,397.773 L298.005,397.773 L298.005,399.573 L310.655,399.573 L310.655,397.773 L310.455,397.773 C307.155,397.673 306.705,397.423 306.705,395.623 L306.705,385.573 C306.705,381.973 306.555,381.073 305.655,379.373 C304.405,376.973 301.905,375.523 298.905,375.523 C295.655,375.523 293.205,377.023 291.005,380.323 L291.005,376.273 M330.552,399.923 L339.252,399.573 L339.252,397.423 L338.352,397.423 C335.502,397.273 335.252,396.973 335.252,393.773 L335.252,362.723 L325.452,363.273 L325.452,365.423 L328.402,365.423 C330.302,365.473 330.552,365.773 330.552,367.923 L330.552,379.223 C328.702,376.673 326.552,375.523 323.652,375.523 C318.002,375.523 313.702,380.973 313.702,388.173 C313.702,395.273 317.852,400.323 323.652,400.323 C326.802,400.323 328.952,398.973 330.552,395.973 L330.552,399.923 M324.652,378.223 C326.702,378.223 328.652,379.723 329.552,382.023 C330.202,383.523 330.502,385.573 330.502,388.023 C330.502,393.873 328.202,397.623 324.602,397.623 C321.052,397.623 318.952,394.323 318.952,388.773 C318.952,385.773 319.252,383.523 319.902,381.873 C320.752,379.623 322.602,378.223 324.652,378.223 M386.08,363.123 L384.18,363.123 L382.18,366.073 C378.53,363.423 376.68,362.723 373.23,362.723 C368.48,362.723 364.43,364.723 361.08,368.723 C357.88,372.523 356.38,376.723 356.38,381.873 C356.38,392.673 363.43,400.323 373.28,400.323 C381.28,400.323 386.38,395.623 387.53,387.223 L385.18,386.823 C383.83,394.273 380.03,397.973 373.88,397.973 C366.48,397.973 362.98,392.873 362.98,382.073 C362.98,376.373 363.73,372.623 365.43,369.623 C366.98,366.823 370.03,365.073 373.28,365.073 C376.78,365.073 379.88,366.923 381.78,370.123 C382.73,371.773 383.43,373.623 384.63,377.573 L386.83,377.573 L386.08,363.123 M400.423,362.723 L391.173,363.273 L391.173,365.423 L393.623,365.423 C395.473,365.473 395.723,365.773 395.723,367.923 L395.723,395.773 C395.673,396.523 395.623,396.823 395.423,397.073 C395.073,397.523 394.123,397.723 391.973,397.773 L391.623,397.773 L391.623,399.573 L404.573,399.573 L404.573,397.773 L404.223,397.773 C400.873,397.673 400.423,397.423 400.423,395.623 L400.423,362.723 M428.573,383.473 C428.573,380.323 428.023,378.723 426.573,377.523 C424.923,376.173 422.473,375.523 419.273,375.523 C413.623,375.523 409.523,378.173 409.523,381.823 C409.523,383.673 410.673,384.873 412.423,384.873 C414.023,384.873 415.123,383.823 415.123,382.323 C415.123,381.673 414.873,380.973 414.373,380.273 C414.073,379.923 414.023,379.823 414.023,379.573 C414.023,378.573 416.023,377.673 418.423,377.673 C420.023,377.673 421.773,378.173 422.573,378.923 C423.523,379.723 423.873,380.923 423.873,383.173 L423.873,385.123 C418.673,386.023 417.023,386.423 414.573,387.373 C410.223,388.973 408.173,391.273 408.173,394.473 C408.173,398.073 410.973,400.323 415.423,400.323 C418.873,400.323 421.973,398.923 424.123,396.373 C424.923,398.923 426.173,399.923 428.523,399.923 C430.773,399.923 433.123,398.473 433.123,397.023 C433.123,396.673 432.923,396.423 432.623,396.423 C432.423,396.423 432.223,396.473 431.873,396.623 C431.173,396.923 430.873,396.973 430.473,396.973 C429.073,396.973 428.573,396.073 428.573,393.523 L428.573,383.473 M423.873,389.573 C423.873,392.573 423.723,393.273 422.873,394.573 C421.623,396.423 419.373,397.673 417.173,397.673 C414.873,397.673 413.223,396.023 413.223,393.773 C413.223,391.673 414.273,390.173 416.473,389.123 C418.023,388.423 419.973,387.923 423.873,387.273 L423.873,389.573 M443.82,376.273 L435.17,376.823 L435.17,378.973 L436.97,378.973 C438.87,379.023 439.12,379.323 439.12,381.473 L439.12,405.923 C439.07,406.623 439.02,406.923 438.82,407.173 C438.47,407.623 437.52,407.823 435.37,407.873 L435.17,407.873 L435.17,409.673 L448.17,409.673 L448.17,407.873 L447.62,407.873 C444.27,407.773 443.82,407.523 443.82,405.723 L443.82,396.273 C445.47,399.173 447.32,400.323 450.42,400.323 C457.07,400.323 460.52,393.773 460.52,387.823 C460.52,382.173 457.07,375.523 450.72,375.523 C447.62,375.523 445.57,376.823 443.82,379.823 L443.82,376.273 M449.82,378.223 C453.27,378.223 455.27,381.673 455.27,387.523 C455.27,393.973 453.27,397.623 449.67,397.623 C446.07,397.623 443.77,393.923 443.77,388.173 C443.77,381.923 446.02,378.223 449.82,378.223 M492.448,364.373 C490.748,366.423 486.148,367.973 481.548,368.073 L481.548,370.223 L485.948,370.223 C488.848,370.273 489.148,370.573 489.048,373.373 L489.048,393.423 C489.048,395.973 489.048,396.073 488.748,396.523 C488.348,397.023 487.398,397.223 484.598,397.223 L481.348,397.223 L481.348,399.573 L501.148,399.573 L501.148,397.223 L498.398,397.223 C495.598,397.223 494.648,397.023 494.248,396.523 C493.898,396.073 493.898,396.023 493.898,393.423 L493.898,372.773 C493.898,369.973 493.998,367.623 494.248,364.373 L492.448,364.373 "/>
<path class="InstrumentName" d="M240.361,571.122 L240.361,582.322 C240.361,584.872 240.361,584.972 240.061,585.422 C239.661,585.922 238.711,586.122 235.861,586.122 L234.961,586.122 L234.961,588.472 L251.361,588.472 L251.361,586.122 L250.461,586.122 C247.611,586.122 246.661,585.922 246.261,585.422 C245.961,584.972 245.961,584.922 245.961,582.322 L245.961,558.522 C245.961,555.922 245.961,555.872 246.261,555.422 C246.711,554.872 247.611,554.722 250.461,554.722 L251.361,554.722 L251.361,552.372 L235.161,552.372 L235.161,554.722 L235.861,554.722 C238.711,554.722 239.611,554.872 240.061,555.422 C240.361,555.872 240.361,555.972 240.361,558.522 L240.361,568.422 L223.611,568.422 L223.611,558.522 C223.611,555.972 223.611,555.872 223.961,555.422 C224.361,554.872 225.261,554.722 228.111,554.722 L229.061,554.722 L229.061,552.372 L212.611,552.372 L212.611,554.722 L213.511,554.722 C216.361,554.722 217.261,554.872 217.711,555.422 C218.011,555.872 218.011,555.972 218.011,558.522 L218.011,582.322 C218.011,584.822 218.011,584.972 217.711,585.422 C217.311,585.922 216.361,586.122 213.511,586.122 L212.611,586.122 L212.611,588.472 L229.061,588.472 L229.061,586.122 L228.111,586.122 C225.261,586.072 224.361,585.922 223.961,585.422 C223.611,584.972 223.611,584.872 223.611,582.322 L223.611,571.122 L240.361,571.122 M275.355,572.372 C275.355,569.222 274.805,567.622 273.355,566.422 C271.705,565.072 269.255,564.422 266.055,564.422 C260.405,564.422 256.305,567.072 256.305,570.722 C256.305,572.572 257.455,573.772 259.205,573.772 C260.805,573.772 261.905,572.722 261.905,571.222 C261.905,570.572 261.655,569.872 261.155,569.172 C260.855,568.822 260.805,568.722 260.805,568.472 C260.805,567.472 262.805,566.572 265.205,566.572 C266.805,566.572 268.555,567.072 269.355,567.822 C270.305,568.622 270.655,569.822 270.655,572.072 L270.655,574.022 C265.455,574.922 263.805,575.322 261.355,576.272 C257.005,577.872 254.955,580.172 254.955,583.372 C254.955,586.972 257.755,589.222 262.205,589.222 C265.655,589.222 268.755,587.822 270.905,585.272 C271.705,587.822 272.955,588.822 275.305,588.822 C277.555,588.822 279.905,587.372 279.905,585.922 C279.905,585.572 279.705,585.322 279.405,585.322 C279.205,585.322 279.005,585.372 278.655,585.522 C277.955,585.822 277.655,585.872 277.255,585.872 C275.855,585.872 275.355,584.972 275.355,582.422 L275.355,572.372 M270.655,578.472 C270.655,581.472 270.505,582.172 269.655,583.472 C268.405,585.322 266.155,586.572 263.955,586.572 C261.655,586.572 260.005,584.922 260.005,582.672 C260.005,580.572 261.055,579.072 263.255,578.022 C264.805,577.322 266.755,576.822 270.655,576.172 L270.655,578.472 M290.552,565.172 L281.902,565.722 L281.902,567.872 L283.702,567.872 C285.602,567.922 285.852,568.222 285.852,570.372 L285.852,584.672 C285.802,585.422 285.752,585.722 285.552,585.972 C285.202,586.422 284.252,586.622 282.102,586.672 L281.902,586.672 L281.902,588.472 L294.552,588.472 L294.552,586.672 L294.352,586.672 C291.002,586.572 290.552,586.322 290.552,584.522 L290.552,577.122 C290.552,574.672 290.902,572.422 291.452,571.272 C292.502,569.022 294.752,567.472 296.902,567.472 C298.202,567.472 299.702,568.172 300.452,569.222 C301.202,570.322 301.552,571.822 301.552,574.222 L301.552,584.672 C301.502,585.422 301.452,585.722 301.252,585.972 C300.902,586.422 299.902,586.622 297.752,586.672 L297.552,586.672 L297.552,588.472 L310.202,588.472 L310.202,586.672 L310.002,586.672 C306.702,586.572 306.252,586.322 306.252,584.522 L306.252,574.472 C306.252,570.872 306.102,569.972 305.202,568.272 C303.952,565.872 301.452,564.422 298.452,564.422 C295.202,564.422 292.752,565.922 290.552,569.222 L290.552,565.172 M330.098,588.822 L338.798,588.472 L338.798,586.322 L337.898,586.322 C335.048,586.172 334.798,585.872 334.798,582.672 L334.798,551.622 L324.998,552.172 L324.998,554.322 L327.948,554.322 C329.848,554.372 330.098,554.672 330.098,556.822 L330.098,568.122 C328.248,565.572 326.098,564.422 323.198,564.422 C317.548,564.422 313.248,569.872 313.248,577.072 C313.248,584.172 317.398,589.222 323.198,589.222 C326.348,589.222 328.498,587.872 330.098,584.872 L330.098,588.822 M324.198,567.122 C326.248,567.122 328.198,568.622 329.098,570.922 C329.748,572.422 330.048,574.472 330.048,576.922 C330.048,582.772 327.748,586.522 324.148,586.522 C320.598,586.522 318.498,583.222 318.498,577.672 C318.498,574.672 318.798,572.422 319.448,570.772 C320.298,568.522 322.148,567.122 324.198,567.122 M385.627,552.022 L383.727,552.022 L381.727,554.972 C378.077,552.322 376.227,551.622 372.777,551.622 C368.027,551.622 363.977,553.622 360.627,557.622 C357.427,561.422 355.927,565.622 355.927,570.772 C355.927,581.572 362.977,589.222 372.827,589.222 C380.827,589.222 385.927,584.522 387.077,576.122 L384.727,575.722 C383.377,583.172 379.577,586.872 373.427,586.872 C366.027,586.872 362.527,581.772 362.527,570.972 C362.527,565.272 363.277,561.522 364.977,558.522 C366.527,555.722 369.577,553.972 372.827,553.972 C376.327,553.972 379.427,555.822 381.327,559.022 C382.277,560.672 382.977,562.522 384.177,566.472 L386.377,566.472 L385.627,552.022 M399.97,551.622 L390.72,552.172 L390.72,554.322 L393.17,554.322 C395.02,554.372 395.27,554.672 395.27,556.822 L395.27,584.672 C395.22,585.422 395.17,585.722 394.97,585.972 C394.62,586.422 393.67,586.622 391.52,586.672 L391.17,586.672 L391.17,588.472 L404.12,588.472 L404.12,586.672 L403.77,586.672 C400.42,586.572 399.97,586.322 399.97,584.522 L399.97,551.622 M428.12,572.372 C428.12,569.222 427.57,567.622 426.12,566.422 C424.47,565.072 422.02,564.422 418.82,564.422 C413.17,564.422 409.07,567.072 409.07,570.722 C409.07,572.572 410.22,573.772 411.97,573.772 C413.57,573.772 414.67,572.722 414.67,571.222 C414.67,570.572 414.42,569.872 413.92,569.172 C413.62,568.822 413.57,568.722 413.57,568.472 C413.57,567.472 415.57,566.572 417.97,566.572 C419.57,566.572 421.32,567.072 422.12,567.822 C423.07,568.622 423.42,569.822 423.42,572.072 L423.42,574.022 C418.22,574.922 416.57,575.322 414.12,576.272 C409.77,577.872 407.72,580.172 407.72,583.372 C407.72,586.972 410.52,589.222 414.97,589.222 C418.42,589.222 421.52,587.822 423.67,585.272 C424.47,587.822 425.72,588.822 428.07,588.822 C430.32,588.822 432.67,587.372 432.67,585.922 C432.67,585.572 432.47,585.322 432.17,585.322 C431.97,585.322 431.77,585.372 431.42,585.522 C430.72,585.822 430.42,585.872 430.02,585.872 C428.62,585.872 428.12,584.972 428.12,582.422 L428.12,572.372 M423.42,578.472 C423.42,581.472 423.27,582.172 422.42,583.472 C421.17,585.322 418.92,586.572 416.72,586.572 C414.42,586.572 412.77,584.922 412.77,582.672 C412.77,580.572 413.82,579.072 416.02,578.022 C417.57,577.322 419.52,576.822 423.42,576.172 L423.42,578.472 M443.367,565.172 L434.717,565.722 L434.717,567.872 L436.517,567.872 C438.417,567.922 438.667,568.222 438.667,570.372 L438.667,594.822 C438.617,595.522 438.567,595.822 438.367,596.072 C438.017,596.522 437.067,596.722 434.917,596.772 L434.717,596.772 L434.717,598.572 L447.717,598.572 L447.717,596.772 L447.167,596.772 C443.817,596.672 443.367,596.422 443.367,594.622 L443.367,585.172 C445.017,588.072 446.867,589.222 449.967,589.222 C456.617,589.222 460.067,582.672 460.067,576.722 C460.067,571.072 456.617,564.422 450.267,564.422 C447.167,564.422 445.117,565.722 443.367,568.722 L443.367,565.172 M449.367,567.122 C452.817,567.122 454.817,570.572 454.817,576.422 C454.817,582.872 452.817,586.522 449.217,586.522 C445.617,586.522 443.317,582.822 443.317,577.072 C443.317,570.822 445.567,567.122 449.367,567.122 M501.145,577.672 L498.945,577.672 L498.445,580.222 C497.795,583.472 497.395,583.772 494.295,583.772 L483.095,583.772 C486.545,580.172 487.695,579.122 490.895,576.622 C495.445,573.122 497.395,571.372 498.545,569.872 C500.145,567.672 500.945,565.472 500.945,563.022 C500.945,557.322 496.245,553.272 489.695,553.272 C483.345,553.272 478.495,557.322 478.495,562.672 C478.495,565.822 480.095,567.972 482.445,567.972 C484.295,567.972 485.545,566.722 485.545,564.922 C485.545,563.672 484.845,562.522 483.795,562.072 C481.945,561.322 481.845,561.222 481.845,560.572 C481.845,559.822 482.345,558.672 483.045,557.822 C484.295,556.272 486.345,555.422 488.695,555.422 C492.845,555.422 495.295,557.972 495.295,562.172 C495.295,565.872 493.545,569.222 489.395,573.622 C485.695,577.522 483.395,579.972 482.545,580.922 C480.745,583.022 479.845,584.172 477.645,587.072 L477.645,588.472 L500.195,588.472 L501.145,577.672 "/>
<polyline class="BarLine" fill="none" stroke="#000000" stroke-width="4.46" stroke-linejoin="bevel" points="528.224,335.234 528.224,575.097"/>
<path class="BarLine" transform="matrix(0.992,0,0,0.992,2717.83,373.798)" d="M10.4,0 C10.4,-2.9 8.1,-5.3 5.2,-5.3 C2.3,-5.3 0,-2.9 0,0 C0,2.9 2.3,5.3 5.2,5.3 C8.1,5.3 10.4,2.9 10.4,0"/>
<path class="BarLine" transform="matrix(0.992,0,0,0.992,2717.83,398.598)" d="M10.4,0 C10.4,-2.9 8.1,-5.3 5.2,-5.3 C2.3,-5.3 0,-2.9 0,0 C0,2.9 2.3,5.3 5.2,5.3 C8.1,5.3 10.4,2.9 10.4,0"/>
<polyline class="BarLine" fill="none" stroke="#000000" stroke-width="4.46" stroke-linejoin="bevel" points="2739.55,335.234 2739.55,437.162"/>
<polyline class="BarLine" fill="none" stroke="#000000" stroke-width="13.64" stroke-linejoin="bevel" points="2757.78,335.234 2757.78,437.162"/>
<polyline class="BarLine" fill="none" stroke="#000000" stroke-width="4.46" stroke-linejoin="bevel" points="1724.04,335.234 1724.04,437.162"/>
<polyline class="BarLine" fill="none" stroke="#000000" stroke-width="13.64" stroke-linejoin="bevel" points="690.292,335.234 690.292,437.162"/>
<polyline class="BarLine" fill="none" stroke="#000000" stroke-width="4.46" stroke-linejoin="bevel" points="708.52,335.234 708.52,437.162"/>
<path class="BarLine" transform="matrix(0.992,0,0,0.992,719.928,373.798)" d="M10.4,0 C10.4,-2.9 8.1,-5.3 5.2,-5.3 C2.3,-5.3 0,-2.9 0,0 C0,2.9 2.3,5.3 5.2,5.3 C8.1,5.3 10.4,2.9 10.4,0"/>
<path class="BarLine" transform="matrix(0.992,0,0,0.992,719.928,398.598)" d="M10.4,0 C10.4,-2.9 8.1,-5.3 5.2,-5.3 C2.3,-5.3 0,-2.9 0,0 C0,2.9 2.3,5.3 5.2,5.3 C8.1,5.3 10.4,2.9 10.4,0"/>
<polyline class="BarLine" fill="none" stroke="#000000" stroke-width="4.46" stroke-linejoin="bevel" points="1724.04,524.133 1724.04,626.061"/>
<polyline class="BarLine" fill="none" stroke="#000000" stroke-width="4.46" stroke-linejoin="bevel" points="528.224,524.133 528.224,626.061"/>
<path class="BarLine" transform="matrix(0.992,0,0,0.992,2717.83,562.697)" d="M10.4,0 C10.4,-2.9 8.1,-5.3 5.2,-5.3 C2.3,-5.3 0,-2.9 0,0 C0,2.9 2.3,5.3 5.2,5.3 C8.1,5.3 10.4,2.9 10.4,0"/>
<path class="BarLine" transform="matrix(0.992,0,0,0.992,2717.83,587.497)" d="M10.4,0 C10.4,-2.9 8.1,-5.3 5.2,-5.3 C2.3,-5.3 0,-2.9 0,0 C0,2.9 2.3,5.3 5.2,5.3 C8.1,5.3 10.4,2.9 10.4,0"/>
<polyline class="BarLine" fill="none" stroke="#000000" stroke-width="4.46" stroke-linejoin="bevel" points="2739.55,524.133 2739.55,626.061"/>
<polyline class="BarLine" fill="none" stroke="#000000" stroke-width="13.64" stroke-linejoin="bevel" points="2757.78,524.133 2757.78,626.061"/>
<polyline class="BarLine" fill="none" stroke="#000000" stroke-width="13.64" stroke-linejoin="bevel" points="690.292,524.133 690.292,626.061"/>
<polyline class="BarLine" fill="none" stroke="#000000" stroke-width="4.46" stroke-linejoin="bevel" points="708.52,524.133 708.52,626.061"/>
<path class="BarLine" transform="matrix(0.992,0,0,0.992,719.928,562.697)" d="M10.4,0 C10.4,-2.9 8.1,-5.3 5.2,-5.3 C2.3,-5.3 0,-2.9 0,0 C0,2.9 2.3,5.3 5.2,5.3 C8.1,5.3 10.4,2.9 10.4,0"/>
<path class="BarLine" transform="matrix(0.992,0,0,0.992,719.928,587.497)" d="M10.4,0 C10.4,-2.9 8.1,-5.3 5.2,-5.3 C2.3,-5.3 0,-2.9 0,0 C0,2.9 2.3,5.3 5.2,5.3 C8.1,5.3 10.4,2.9 10.4,0"/>
<polyline class="Stem" fill="none" stroke="#000000" stroke-width="2.48" stroke-linejoin="bevel" points="2429.05,382.23 2429.05,324.198"/>
<polyline class="Stem" fill="none" stroke="#000000" stroke-width="2.48" stroke-linejoin="bevel" points="2322.46,382.23 2322.46,324.198"/>
<polyline class="Stem" fill="none" stroke="#000000" stroke-width="2.48" stroke-linejoin="bevel" points="2215.87,382.23 2215.87,324.198"/>
<polyline class="Stem" fill="none" stroke="#000000" stroke-width="2.48" stroke-linejoin="bevel" points="2109.27,382.23 2109.27,324.198"/>
<polyline class="Stem" fill="none" stroke="#000000" stroke-width="2.48" stroke-linejoin="bevel" points="900.067,382.23 900.067,324.198"/>
<polyline class="Stem" fill="none" stroke="#000000" stroke-width="2.48" stroke-linejoin="bevel" points="2002.68,382.23 2002.68,324.198"/>
<polyline class="Stem" fill="none" stroke="#000000" stroke-width="2.48" stroke-linejoin="bevel" points="1006.66,382.23 1006.66,324.198"/>
<polyline class="Stem" fill="none" stroke="#000000" stroke-width="2.48" stroke-linejoin="bevel" points="1896.09,382.23 1896.09,324.198"/>
<polyline class="Stem" fill="none" stroke="#000000" stroke-width="2.48" stroke-linejoin="bevel" points="1113.25,382.23 1113.25,324.198"/>
<polyline class="Stem" fill="none" stroke="#000000" stroke-width="2.48" stroke-linejoin="bevel" points="2535.64,382.23 2535.64,324.198"/>
<polyline class="Stem" fill="none" stroke="#000000" stroke-width="2.48" stroke-linejoin="bevel" points="1789.5,382.23 1789.5,324.198"/>
<polyline class="Stem" fill="none" stroke="#000000" stroke-width="2.48" stroke-linejoin="bevel" points="1219.84,382.23 1219.84,324.198"/>
<polyline class="Stem" fill="none" stroke="#000000" stroke-width="2.48" stroke-linejoin="bevel" points="1326.43,382.23 1326.43,324.198"/>
<polyline class="Stem" fill="none" stroke="#000000" stroke-width="2.48" stroke-linejoin="bevel" points="793.476,382.23 793.476,324.198"/>
<polyline class="Stem" fill="none" stroke="#000000" stroke-width="2.48" stroke-linejoin="bevel" points="1433.02,382.23 1433.02,324.198"/>
<polyline class="Stem" fill="none" stroke="#000000" stroke-width="2.48" stroke-linejoin="bevel" points="1646.21,382.23 1646.21,324.198"/>
<polyline class="Stem" fill="none" stroke="#000000" stroke-width="2.48" stroke-linejoin="bevel" points="1539.61,382.23 1539.61,324.198"/>
<polyline class="Stem" fill="none" stroke="#000000" stroke-width="2.48" stroke-linejoin="bevel" points="2642.23,382.23 2642.23,324.198"/>
<polyline class="Stem" fill="none" stroke="#000000" stroke-width="2.48" stroke-linejoin="bevel" points="2429.05,571.129 2429.05,513.097"/>
<polyline class="Stem" fill="none" stroke="#000000" stroke-width="2.48" stroke-linejoin="bevel" points="793.476,571.129 793.476,513.097"/>
<polyline class="Stem" fill="none" stroke="#000000" stroke-width="2.48" stroke-linejoin="bevel" points="2109.27,571.129 2109.27,513.097"/>
<polyline class="Stem" fill="none" stroke="#000000" stroke-width="2.48" stroke-linejoin="bevel" points="1789.5,571.129 1789.5,513.097"/>
<polyline class="Stem" fill="none" stroke="#000000" stroke-width="2.48" stroke-linejoin="bevel" points="1113.25,571.129 1113.25,513.097"/>
<polyline class="Stem" fill="none" stroke="#000000" stroke-width="2.48" stroke-linejoin="bevel" points="1433.02,571.129 1433.02,513.097"/>
<path class="Note" transform="matrix(0.992,0,0,0.992,762.483,386.198)" d="M0,4.2 C0,8.5 3.1,13.3 11.2,13.3 C21.6,13.3 32.5,4.8 32.5,-4 C32.5,-9.9 27.5,-13.2 21.3,-13.2 C11.6,-13.2 0,-5 0,4.2"/>
<path class="Note" transform="matrix(0.992,0,0,0.992,2611.24,386.198)" d="M0,4.2 C0,8.5 3.1,13.3 11.2,13.3 C21.6,13.3 32.5,4.8 32.5,-4 C32.5,-9.9 27.5,-13.2 21.3,-13.2 C11.6,-13.2 0,-5 0,4.2"/>
<path class="Note" transform="matrix(0.992,0,0,0.992,1508.62,386.198)" d="M0,4.2 C0,8.5 3.1,13.3 11.2,13.3 C21.6,13.3 32.5,4.8 32.5,-4 C32.5,-9.9 27.5,-13.2 21.3,-13.2 C11.6,-13.2 0,-5 0,4.2"/>
<path class="Note" transform="matrix(0.992,0,0,0.992,1402.03,386.198)" d="M0,4.2 C0,8.5 3.1,13.3 11.2,13.3 C21.6,13.3 32.5,4.8 32.5,-4 C32.5,-9.9 27.5,-13.2 21.3,-13.2 C11.6,-13.2 0,-5 0,4.2"/>
<path class="Note" transform="matrix(0.992,0,0,0.992,1615.21,386.198)" d="M0,4.2 C0,8.5 3.1,13.3 11.2,13.3 C21.6,13.3 32.5,4.8 32.5,-4 C32.5,-9.9 27.5,-13.2 21.3,-13.2 C11.6,-13.2 0,-5 0,4.2"/>
<path class="Note" transform="matrix(0.992,0,0,0.992,2398.06,386.198)" d="M0,4.2 C0,8.5 3.1,13.3 11.2,13.3 C21.6,13.3 32.5,4.8 32.5,-4 C32.5,-9.9 27.5,-13.2 21.3,-13.2 C11.6,-13.2 0,-5 0,4.2"/>
<path class="Note" transform="matrix(0.992,0,0,0.992,1295.44,386.198)" d="M0,4.2 C0,8.5 3.1,13.3 11.2,13.3 C21.6,13.3 32.5,4.8 32.5,-4 C32.5,-9.9 27.5,-13.2 21.3,-13.2 C11.6,-13.2 0,-5 0,4.2"/>
<path class="Note" transform="matrix(0.992,0,0,0.992,1188.85,386.198)" d="M0,4.2 C0,8.5 3.1,13.3 11.2,13.3 C21.6,13.3 32.5,4.8 32.5,-4 C32.5,-9.9 27.5,-13.2 21.3,-13.2 C11.6,-13.2 0,-5 0,4.2"/>
<path class="Note" transform="matrix(0.992,0,0,0.992,2291.47,386.198)" d="M0,4.2 C0,8.5 3.1,13.3 11.2,13.3 C21.6,13.3 32.5,4.8 32.5,-4 C32.5,-9.9 27.5,-13.2 21.3,-13.2 C11.6,-13.2 0,-5 0,4.2"/>
<path class="Note" transform="matrix(0.992,0,0,0.992,2184.87,386.198)" d="M0,4.2 C0,8.5 3.1,13.3 11.2,13.3 C21.6,13.3 32.5,4.8 32.5,-4 C32.5,-9.9 27.5,-13.2 21.3,-13.2 C11.6,-13.2 0,-5 0,4.2"/>
<path class="Note" transform="matrix(0.992,0,0,0.992,1758.51,386.198)" d="M0,4.2 C0,8.5 3.1,13.3 11.2,13.3 C21.6,13.3 32.5,4.8 32.5,-4 C32.5,-9.9 27.5,-13.2 21.3,-13.2 C11.6,-13.2 0,-5 0,4.2"/>
<path class="Note" transform="matrix(0.992,0,0,0.992,2504.65,386.198)" d="M0,4.2 C0,8.5 3.1,13.3 11.2,13.3 C21.6,13.3 32.5,4.8 32.5,-4 C32.5,-9.9 27.5,-13.2 21.3,-13.2 C11.6,-13.2 0,-5 0,4.2"/>
<path class="Note" transform="matrix(0.992,0,0,0.992,2078.28,386.198)" d="M0,4.2 C0,8.5 3.1,13.3 11.2,13.3 C21.6,13.3 32.5,4.8 32.5,-4 C32.5,-9.9 27.5,-13.2 21.3,-13.2 C11.6,-13.2 0,-5 0,4.2"/>
<path class="Note" transform="matrix(0.992,0,0,0.992,1971.69,386.198)" d="M0,4.2 C0,8.5 3.1,13.3 11.2,13.3 C21.6,13.3 32.5,4.8 32.5,-4 C32.5,-9.9 27.5,-13.2 21.3,-13.2 C11.6,-13.2 0,-5 0,4.2"/>
<path class="Note" transform="matrix(0.992,0,0,0.992,1082.26,386.198)" d="M0,4.2 C0,8.5 3.1,13.3 11.2,13.3 C21.6,13.3 32.5,4.8 32.5,-4 C32.5,-9.9 27.5,-13.2 21.3,-13.2 C11.6,-13.2 0,-5 0,4.2"/>
<path class="Note" transform="matrix(0.992,0,0,0.992,975.666,386.198)" d="M0,4.2 C0,8.5 3.1,13.3 11.2,13.3 C21.6,13.3 32.5,4.8 32.5,-4 C32.5,-9.9 27.5,-13.2 21.3,-13.2 C11.6,-13.2 0,-5 0,4.2"/>
<path class="Note" transform="matrix(0.992,0,0,0.992,1865.1,386.198)" d="M0,4.2 C0,8.5 3.1,13.3 11.2,13.3 C21.6,13.3 32.5,4.8 32.5,-4 C32.5,-9.9 27.5,-13.2 21.3,-13.2 C11.6,-13.2 0,-5 0,4.2"/>
<path class="Note" transform="matrix(0.992,0,0,0.992,869.075,386.198)" d="M0,4.2 C0,8.5 3.1,13.3 11.2,13.3 C21.6,13.3 32.5,4.8 32.5,-4 C32.5,-9.9 27.5,-13.2 21.3,-13.2 C11.6,-13.2 0,-5 0,4.2"/>
<path class="Note" transform="matrix(0.992,0,0,0.992,1758.51,575.097)" d="M0,4.2 C0,8.5 3.1,13.3 11.2,13.3 C21.6,13.3 32.5,4.8 32.5,-4 C32.5,-9.9 27.5,-13.2 21.3,-13.2 C11.6,-13.2 0,-5 0,4.2"/>
<path class="Note" transform="matrix(0.992,0,0,0.992,2078.28,575.097)" d="M0,4.2 C0,8.5 3.1,13.3 11.2,13.3 C21.6,13.3 32.5,4.8 32.5,-4 C32.5,-9.9 27.5,-13.2 21.3,-13.2 C11.6,-13.2 0,-5 0,4.2"/>
<path class="Note" transform="matrix(0.992,0,0,0.992,2398.06,575.097)" d="M0,4.2 C0,8.5 3.1,13.3 11.2,13.3 C21.6,13.3 32.5,4.8 32.5,-4 C32.5,-9.9 27.5,-13.2 21.3,-13.2 C11.6,-13.2 0,-5 0,4.2"/>
<path class="Note" transform="matrix(0.992,0,0,0.992,1082.26,575.097)" d="M0,4.2 C0,8.5 3.1,13.3 11.2,13.3 C21.6,13.3 32.5,4.8 32.5,-4 C32.5,-9.9 27.5,-13.2 21.3,-13.2 C11.6,-13.2 0,-5 0,4.2"/>
<path class="Note" transform="matrix(0.992,0,0,0.992,762.483,575.097)" d="M0,4.2 C0,8.5 3.1,13.3 11.2,13.3 C21.6,13.3 32.5,4.8 32.5,-4 C32.5,-9.9 27.5,-13.2 21.3,-13.2 C11.6,-13.2 0,-5 0,4.2"/>
<path class="Note" transform="matrix(0.992,0,0,0.992,1402.03,575.097)" d="M0,4.2 C0,8.5 3.1,13.3 11.2,13.3 C21.6,13.3 32.5,4.8 32.5,-4 C32.5,-9.9 27.5,-13.2 21.3,-13.2 C11.6,-13.2 0,-5 0,4.2"/>
<path class="Clef" transform="matrix(0.992,0,0,0.992,549.056,386.198)" d="M1.3,-25.2 C0.6,-25.2 0,-24.6 0,-23.9 L0,23.9 C0,24.6 0.6,25.2 1.3,25.2 L12.3,25.2 C13,25.2 13.6,24.6 13.6,23.9 L13.6,-23.9 C13.6,-24.6 13,-25.2 12.3,-25.2 L1.3,-25.2 M22.9,-25.2 C22.2,-25.2 21.6,-24.6 21.6,-23.9 L21.6,23.9 C21.6,24.6 22.2,25.2 22.9,25.2 L33.9,25.2 C34.6,25.2 35.2,24.6 35.2,23.9 L35.2,-23.9 C35.2,-24.6 34.6,-25.2 33.9,-25.2 L22.9,-25.2 "/>
<path class="Clef" transform="matrix(0.992,0,0,0.992,549.056,575.097)" d="M1.3,-25.2 C0.6,-25.2 0,-24.6 0,-23.9 L0,23.9 C0,24.6 0.6,25.2 1.3,25.2 L12.3,25.2 C13,25.2 13.6,24.6 13.6,23.9 L13.6,-23.9 C13.6,-24.6 13,-25.2 12.3,-25.2 L1.3,-25.2 M22.9,-25.2 C22.2,-25.2 21.6,-24.6 21.6,-23.9 L21.6,23.9 C21.6,24.6 22.2,25.2 22.9,25.2 L33.9,25.2 C34.6,25.2 35.2,24.6 35.2,23.9 L35.2,-23.9 C35.2,-24.6 34.6,-25.2 33.9,-25.2 L22.9,-25.2 "/>
<path class="TimeSig" transform="matrix(0.992,0,0,0.992,607.584,361.894)" d="M15.5,4.7 C21.6,4.7 23.8,2.9 25.2,1.4 C25.5,3.5 25.7,5.1 25.7,6.7 C25.7,12.4 23.7,19.8 16.7,19.8 C14.2,19.8 12.7,19 11.7,17.9 C13.8,17 15.5,14.3 15.5,12 C15.5,8.4 12.7,5.6 9.1,5.6 C5.5,5.6 2.6,8.4 2.6,12 L2.6,12.3 C2.6,13.2 2.8,14.7 3.2,15.5 C4.5,19.1 8.7,24.4 18.7,24.4 C27.7,24.4 34.2,15.8 36.2,11.2 C37.2,8.8 38.7,3.9 38.7,-1.7 C38.7,-7.8 37,-14.7 31.1,-19.9 C25.3,-24.3 21.6,-24.5 18.1,-24.5 C14.6,-24.5 1.5,-20.4 1.5,-8.8 C1.5,1 9.2,4.7 15.5,4.7 M19.2,-20.4 C22.5,-20.4 25.2,-15.8 25.2,-10.2 C25.2,-4.6 22.5,-0.1 19.2,-0.1 C15.9,-0.1 13.1,-4.6 13.1,-10.2 C13.1,-15.8 15.9,-20.4 19.2,-20.4"/>
<path class="TimeSig" transform="matrix(0.992,0,0,0.992,607.29,410.75)" d="M32.4,-1.8 C35.7,-4.3 38,-7.5 38,-11.5 C38,-18.7 30.1,-24.6 20.4,-24.6 C10.7,-24.6 2.8,-18.7 2.8,-11.5 C2.8,-7.5 3.8,-3.9 8.5,-0.9 C4,1.7 1.5,5.4 1.5,10.2 C1.5,18.3 10,24.8 20.4,24.8 C30.8,24.8 39.3,18.3 39.3,10.2 C39.3,5.4 37.6,0.9 32.4,-1.8 M26.8,-4.5 C20,-6.7 12.5,-10 12.5,-14.5 C12.5,-18.4 16.1,-20 20.4,-20 C26.6,-20 30.8,-17.1 30.8,-12.5 C30.8,-7.7 28.6,-5.4 26.8,-4.5 M20.4,19.2 C14,19.2 8.5,15.7 8.5,10.1 C8.5,3.4 13.7,1.8 13.7,1.8 C20.5,4.1 30.2,7.5 30.2,13 C30.2,15.7 26.8,19.2 20.4,19.2"/>
<path class="TimeSig" transform="matrix(0.992,0,0,0.992,607.584,550.793)" d="M15.5,4.7 C21.6,4.7 23.8,2.9 25.2,1.4 C25.5,3.5 25.7,5.1 25.7,6.7 C25.7,12.4 23.7,19.8 16.7,19.8 C14.2,19.8 12.7,19 11.7,17.9 C13.8,17 15.5,14.3 15.5,12 C15.5,8.4 12.7,5.6 9.1,5.6 C5.5,5.6 2.6,8.4 2.6,12 L2.6,12.3 C2.6,13.2 2.8,14.7 3.2,15.5 C4.5,19.1 8.7,24.4 18.7,24.4 C27.7,24.4 34.2,15.8 36.2,11.2 C37.2,8.8 38.7,3.9 38.7,-1.7 C38.7,-7.8 37,-14.7 31.1,-19.9 C25.3,-24.3 21.6,-24.5 18.1,-24.5 C14.6,-24.5 1.5,-20.4 1.5,-8.8 C1.5,1 9.2,4.7 15.5,4.7 M19.2,-20.4 C22.5,-20.4 25.2,-15.8 25.2,-10.2 C25.2,-4.6 22.5,-0.1 19.2,-0.1 C15.9,-0.1 13.1,-4.6 13.1,-10.2 C13.1,-15.8 15.9,-20.4 19.2,-20.4"/>
<path class="TimeSig" transform="matrix(0.992,0,0,0.992,607.29,599.649)" d="M32.4,-1.8 C35.7,-4.3 38,-7.5 38,-11.5 C38,-18.7 30.1,-24.6 20.4,-24.6 C10.7,-24.6 2.8,-18.7 2.8,-11.5 C2.8,-7.5 3.8,-3.9 8.5,-0.9 C4,1.7 1.5,5.4 1.5,10.2 C1.5,18.3 10,24.8 20.4,24.8 C30.8,24.8 39.3,18.3 39.3,10.2 C39.3,5.4 37.6,0.9 32.4,-1.8 M26.8,-4.5 C20,-6.7 12.5,-10 12.5,-14.5 C12.5,-18.4 16.1,-20 20.4,-20 C26.6,-20 30.8,-17.1 30.8,-12.5 C30.8,-7.7 28.6,-5.4 26.8,-4.5 M20.4,19.2 C14,19.2 8.5,15.7 8.5,10.1 C8.5,3.4 13.7,1.8 13.7,1.8 C20.5,4.1 30.2,7.5 30.2,13 C30.2,15.7 26.8,19.2 20.4,19.2"/>
<path class="Dynamic" d="M765.225,456.259 C767.997,446.062 768.789,444.28 770.274,443.092 C771.066,442.498 771.759,442.3 772.254,442.3 C772.452,442.3 772.65,442.399 772.749,442.399 C773.343,442.498 773.838,443.092 773.838,443.686 C773.838,444.181 773.64,444.676 773.244,444.874 C772.254,445.666 771.759,446.953 771.759,448.24 C771.759,448.735 771.858,449.23 771.957,449.725 C772.254,450.616 773.046,451.606 774.036,452.002 C774.432,452.2 775.026,452.299 775.62,452.299 C777.798,452.299 779.877,450.814 780.471,448.735 C780.669,448.141 780.768,447.448 780.768,446.854 C780.768,445.666 780.471,444.478 779.778,443.389 C778.392,440.716 774.432,439.528 771.561,439.528 C762.453,439.528 758.394,449.032 755.919,456.358 L755.82,456.556 L748.296,456.556 C747.702,456.556 747.306,456.952 747.306,457.546 L747.306,459.724 C747.306,460.318 747.702,460.714 748.296,460.714 L754.533,460.714 L754.434,461.11 C753.444,465.07 752.652,468.535 751.959,471.802 C751.167,475.465 750.276,479.326 749.088,483.88 L748.791,485.068 C746.712,493.186 746.019,496.057 743.643,497.641 C743.148,497.938 742.554,498.136 741.96,498.136 C741.465,498.136 741.069,498.037 740.673,497.74 C740.376,497.542 739.98,497.146 740.079,496.651 C740.178,496.255 740.475,495.859 740.97,495.661 C742.851,494.869 743.445,492.988 743.445,491.404 C743.445,490.018 742.455,487.444 738.891,487.444 C736.218,487.444 733.743,490.018 733.743,492.691 C733.743,497.938 737.307,500.71 741.861,500.71 C745.029,500.71 747.306,499.621 749.781,497.146 C754.137,492.79 758.889,477.94 761.364,469.525 C762.255,466.357 763.146,463.189 763.839,460.912 L763.839,460.714 L779.283,460.714 L779.184,461.11 C778.194,465.07 777.402,468.535 776.709,471.802 C775.917,475.465 775.026,479.326 773.838,483.88 L773.541,485.068 C771.462,493.186 770.769,496.057 768.393,497.641 C767.898,497.938 767.304,498.136 766.71,498.136 C766.215,498.136 765.819,498.037 765.423,497.74 C765.126,497.542 764.73,497.047 764.829,496.552 C764.928,496.156 765.225,495.859 765.72,495.661 C767.601,494.869 768.195,492.988 768.195,491.404 C768.195,490.018 767.205,487.444 763.641,487.444 C760.968,487.444 758.493,489.919 758.493,492.592 C758.493,497.839 762.057,500.71 766.611,500.71 C769.779,500.71 772.056,499.621 774.531,497.146 C778.887,492.79 783.639,477.94 786.114,469.525 C787.005,466.357 787.896,463.189 788.589,460.912 L788.589,460.714 L795.816,460.714 C796.41,460.714 796.806,460.318 796.806,459.724 L796.806,457.546 C796.806,456.952 796.41,456.556 795.816,456.556 L789.876,456.556 L789.975,456.259 C792.747,446.062 793.539,444.28 795.024,443.092 C795.816,442.498 796.509,442.3 797.004,442.3 C797.202,442.3 797.4,442.399 797.499,442.399 C798.093,442.498 798.588,443.092 798.588,443.686 C798.588,444.181 798.39,444.676 797.994,444.874 C797.004,445.666 796.509,446.953 796.509,448.24 C796.509,448.735 796.608,449.23 796.707,449.725 C797.004,450.616 797.796,451.606 798.786,452.002 C799.182,452.2 799.776,452.299 800.37,452.299 C802.548,452.299 804.627,450.814 805.221,448.735 C805.419,448.141 805.518,447.448 805.518,446.854 C805.518,445.666 805.221,444.478 804.528,443.389 C803.142,440.716 799.182,439.528 796.311,439.528 C787.203,439.528 783.144,449.032 780.669,456.358 L780.57,456.556 L765.126,456.556 L765.225,456.259 "/>
<path class="Dynamic" d="M2625.28,460.417 C2625.28,460.417 2624.39,457.051 2621.52,456.358 C2621.02,456.259 2620.53,456.16 2620.03,456.16 C2616.07,456.16 2613.8,460.516 2612.81,463.783 L2614.29,464.575 C2614.29,464.575 2615.97,459.229 2618.15,459.229 C2618.35,459.229 2618.45,459.229 2618.65,459.328 C2619.14,459.526 2619.34,460.12 2619.34,460.912 C2619.34,462.595 2618.45,465.466 2617.36,468.931 L2613.99,479.722 C2613.99,479.821 2613.99,479.92 2613.99,480.118 C2613.99,480.811 2614.19,481.306 2614.98,481.306 L2620.43,481.306 C2620.92,481.306 2621.32,481.207 2621.52,480.118 C2621.52,480.019 2621.62,479.722 2621.62,479.425 C2623.6,465.466 2626.77,461.308 2629.24,460.318 L2629.34,460.219 C2629.44,460.219 2629.54,460.219 2629.54,460.219 L2629.64,460.318 C2629.93,460.417 2630.03,460.615 2630.13,461.011 C2630.13,463.882 2628.45,468.931 2627.46,471.505 C2626.86,472.99 2626.57,474.475 2626.57,475.762 C2626.57,478.831 2628.15,481.405 2631.52,481.405 C2635.97,481.405 2637.75,477.742 2639.14,474.178 L2639.14,473.881 C2639.24,473.881 2639.24,473.782 2639.24,473.782 L2637.56,472.99 C2637.56,472.99 2636.47,475.663 2635.77,476.851 C2635.28,477.742 2634.78,477.94 2634.29,477.94 C2634.09,477.94 2633.99,477.94 2633.79,477.841 C2633.2,477.643 2633,477.247 2633,476.653 C2633,475.762 2633.4,474.574 2633.79,473.386 C2635.08,469.624 2636.07,465.862 2636.07,461.803 C2636.07,461.308 2636.07,460.813 2635.97,460.417 C2635.48,457.744 2634.29,456.457 2632.21,456.457 C2629.64,456.457 2626.86,458.239 2625.58,460.021 L2625.28,460.417 "/>
<path class="Dynamic" d="M764.605,656.153 C764.605,656.153 763.714,652.787 760.843,652.094 C760.348,651.995 759.853,651.896 759.358,651.896 C755.398,651.896 753.121,656.252 752.131,659.519 L753.616,660.311 C753.616,660.311 755.299,654.965 757.477,654.965 C757.675,654.965 757.774,654.965 757.972,655.064 C758.467,655.262 758.665,655.856 758.665,656.648 C758.665,658.331 757.774,661.202 756.685,664.667 L753.319,675.458 C753.319,675.557 753.319,675.656 753.319,675.854 C753.319,676.547 753.517,677.042 754.309,677.042 L759.754,677.042 C760.249,677.042 760.645,676.943 760.843,675.854 C760.843,675.755 760.942,675.458 760.942,675.161 C762.922,661.202 766.09,657.044 768.565,656.054 L768.664,655.955 C768.763,655.955 768.862,655.955 768.862,655.955 L768.961,656.054 C769.258,656.153 769.357,656.351 769.456,656.747 C769.456,659.618 767.773,664.667 766.783,667.241 C766.189,668.726 765.892,670.211 765.892,671.498 C765.892,674.567 767.476,677.141 770.842,677.141 C775.297,677.141 777.079,673.478 778.465,669.914 L778.465,669.617 C778.564,669.617 778.564,669.518 778.564,669.518 L776.881,668.726 C776.881,668.726 775.792,671.399 775.099,672.587 C774.604,673.478 774.109,673.676 773.614,673.676 C773.416,673.676 773.317,673.676 773.119,673.577 C772.525,673.379 772.327,672.983 772.327,672.389 C772.327,671.498 772.723,670.31 773.119,669.122 C774.406,665.36 775.396,661.598 775.396,657.539 C775.396,657.044 775.396,656.549 775.297,656.153 C774.802,653.48 773.614,652.193 771.535,652.193 C768.961,652.193 766.189,653.975 764.902,655.757 L764.605,656.153 "/>
<path class="Dynamic" d="M2665.43,651.995 C2668.21,641.798 2669,640.016 2670.48,638.828 C2671.28,638.234 2671.97,638.036 2672.46,638.036 C2672.66,638.036 2672.86,638.135 2672.96,638.135 C2673.55,638.234 2674.05,638.828 2674.05,639.422 C2674.05,639.917 2673.85,640.412 2673.45,640.61 C2672.46,641.402 2671.97,642.689 2671.97,643.976 C2671.97,644.471 2672.07,644.966 2672.17,645.461 C2672.46,646.352 2673.26,647.342 2674.25,647.738 C2674.64,647.936 2675.24,648.035 2675.83,648.035 C2678.01,648.035 2680.09,646.55 2680.68,644.471 C2680.88,643.877 2680.98,643.184 2680.98,642.59 C2680.98,641.402 2680.68,640.214 2679.99,639.125 C2678.6,636.452 2674.64,635.264 2671.77,635.264 C2662.66,635.264 2658.6,644.768 2656.13,652.094 L2656.03,652.292 L2648.51,652.292 C2647.91,652.292 2647.52,652.688 2647.52,653.282 L2647.52,655.46 C2647.52,656.054 2647.91,656.45 2648.51,656.45 L2654.74,656.45 L2654.64,656.846 C2653.65,660.806 2652.86,664.271 2652.17,667.538 C2651.38,671.201 2650.49,675.062 2649.3,679.616 L2649,680.804 C2646.92,688.922 2646.23,691.793 2643.85,693.377 C2643.36,693.674 2642.76,693.872 2642.17,693.872 C2641.67,693.872 2641.28,693.773 2640.88,693.476 C2640.59,693.278 2640.19,692.882 2640.29,692.387 C2640.39,691.991 2640.68,691.595 2641.18,691.397 C2643.06,690.605 2643.65,688.724 2643.65,687.14 C2643.65,685.754 2642.66,683.18 2639.1,683.18 C2636.43,683.18 2633.95,685.754 2633.95,688.427 C2633.95,693.674 2637.52,696.446 2642.07,696.446 C2645.24,696.446 2647.52,695.357 2649.99,692.882 C2654.35,688.526 2659.1,673.676 2661.57,665.261 C2662.46,662.093 2663.36,658.925 2664.05,656.648 L2664.05,656.45 L2679.49,656.45 L2679.39,656.846 C2678.4,660.806 2677.61,664.271 2676.92,667.538 C2676.13,671.201 2675.24,675.062 2674.05,679.616 L2673.75,680.804 C2671.67,688.922 2670.98,691.793 2668.6,693.377 C2668.11,693.674 2667.51,693.872 2666.92,693.872 C2666.42,693.872 2666.03,693.773 2665.63,693.476 C2665.34,693.278 2664.94,692.783 2665.04,692.288 C2665.14,691.892 2665.43,691.595 2665.93,691.397 C2667.81,690.605 2668.4,688.724 2668.4,687.14 C2668.4,685.754 2667.41,683.18 2663.85,683.18 C2661.18,683.18 2658.7,685.655 2658.7,688.328 C2658.7,693.575 2662.27,696.446 2666.82,696.446 C2669.99,696.446 2672.27,695.357 2674.74,692.882 C2679.1,688.526 2683.85,673.676 2686.32,665.261 C2687.21,662.093 2688.11,658.925 2688.8,656.648 L2688.8,656.45 L2696.03,656.45 C2696.62,656.45 2697.02,656.054 2697.02,655.46 L2697.02,653.282 C2697.02,652.688 2696.62,652.292 2696.03,652.292 L2690.09,652.292 L2690.18,651.995 C2692.96,641.798 2693.75,640.016 2695.23,638.828 C2696.03,638.234 2696.72,638.036 2697.21,638.036 C2697.41,638.036 2697.61,638.135 2697.71,638.135 C2698.3,638.234 2698.8,638.828 2698.8,639.422 C2698.8,639.917 2698.6,640.412 2698.2,640.61 C2697.21,641.402 2696.72,642.689 2696.72,643.976 C2696.72,644.471 2696.82,644.966 2696.92,645.461 C2697.21,646.352 2698.01,647.342 2699,647.738 C2699.39,647.936 2699.99,648.035 2700.58,648.035 C2702.76,648.035 2704.84,646.55 2705.43,644.471 C2705.63,643.877 2705.73,643.184 2705.73,642.59 C2705.73,641.402 2705.43,640.214 2704.74,639.125 C2703.35,636.452 2699.39,635.264 2696.52,635.264 C2687.41,635.264 2683.35,644.768 2680.88,652.094 L2680.78,652.292 L2665.34,652.292 L2665.43,651.995 "/>
<path class="Beam" fill-rule="evenodd" d="M2427.81,317.998 L2643.47,317.998 L2643.47,330.398 L2427.81,330.398 L2427.81,317.998 "/>
<path class="Beam" fill-rule="evenodd" d="M2108.03,317.998 L2323.7,317.998 L2323.7,330.398 L2108.03,330.398 L2108.03,317.998 "/>
<path class="Beam" fill-rule="evenodd" d="M1788.26,317.998 L2003.92,317.998 L2003.92,330.398 L1788.26,330.398 L1788.26,317.998 "/>
<path class="Beam" fill-rule="evenodd" d="M1431.78,317.998 L1647.45,317.998 L1647.45,330.398 L1431.78,330.398 L1431.78,317.998 "/>
<path class="Beam" fill-rule="evenodd" d="M1112.01,317.998 L1327.67,317.998 L1327.67,330.398 L1112.01,330.398 L1112.01,317.998 "/>
<path class="Beam" fill-rule="evenodd" d="M792.236,317.998 L1007.9,317.998 L1007.9,330.398 L792.236,330.398 L792.236,317.998 "/>
<path class="Tempo" d="M2636.48,244.122 L2633.22,244.122 L2633.22,286.395 C2632.13,285.702 2630.74,285.306 2629.16,285.108 C2625.59,285.108 2622.72,285.504 2619.56,287.286 C2615.6,289.365 2611.24,293.721 2611.24,298.572 C2611.24,303.324 2615.5,305.601 2619.85,305.601 C2626.78,305.601 2636.48,299.661 2636.48,292.137 L2636.48,244.122 M2645.09,290.355 C2642.32,290.355 2640.04,292.632 2640.04,295.404 C2640.04,298.176 2642.32,300.453 2645.09,300.453 C2647.86,300.453 2650.14,298.176 2650.14,295.404 C2650.14,292.632 2647.86,290.355 2645.09,290.355"/>
<path class="Tempo" d="M2671.89,282.078 L2702.13,282.078 L2702.13,275.178 L2671.89,275.178 L2671.89,282.078 M2671.89,294.438 L2702.13,294.438 L2702.13,287.538 L2671.89,287.538 L2671.89,294.438 M2744.67,257.478 L2742.57,257.478 C2738.79,260.298 2734.53,261.498 2727.39,261.618 L2727.39,264.978 L2729.91,264.978 C2735.25,264.978 2735.31,265.098 2735.25,270.018 L2735.25,291.318 C2735.25,295.038 2735.25,295.218 2734.83,295.818 C2734.29,296.478 2733.09,296.718 2729.85,296.718 L2727.93,296.718 L2727.93,299.958 L2751.87,299.958 L2751.87,296.718 L2749.95,296.718 C2746.77,296.718 2745.63,296.478 2745.09,295.818 C2744.67,295.218 2744.67,294.978 2744.67,291.318 L2744.67,257.478 M2785.47,283.998 L2784.81,286.998 C2784.27,289.398 2783.91,290.178 2783.43,290.478 C2782.83,290.898 2782.71,290.898 2778.93,290.958 L2767.35,290.958 C2769.45,289.158 2771.01,288.018 2773.35,286.458 C2781.81,280.998 2783.55,279.678 2785.29,277.458 C2787.33,274.758 2788.53,271.578 2788.53,268.758 C2788.53,262.338 2782.23,257.478 2773.77,257.478 C2765.61,257.478 2759.31,262.758 2759.31,269.598 C2759.31,273.798 2761.65,276.498 2765.25,276.498 C2768.37,276.498 2770.35,274.518 2770.35,271.398 C2770.35,268.818 2769.21,267.318 2766.45,265.998 C2765.79,265.698 2765.49,265.338 2765.49,264.858 C2765.49,262.938 2768.73,260.898 2771.73,260.898 C2775.93,260.898 2778.33,263.478 2778.33,267.918 C2778.33,272.898 2776.41,276.438 2770.05,283.218 C2763.33,290.358 2760.99,293.058 2757.99,297.378 L2757.99,300.198 C2759.55,300.018 2760.21,299.958 2761.11,299.958 L2783.67,299.958 C2784.81,299.958 2785.53,300.018 2787.33,300.198 L2788.71,283.998 L2785.47,283.998 M2808.51,257.478 C2799.51,257.478 2792.91,266.658 2792.91,279.138 C2792.91,291.618 2799.51,300.798 2808.51,300.798 C2817.33,300.798 2824.05,291.618 2824.05,279.438 C2824.05,272.358 2822.43,267.138 2818.89,262.698 C2816.07,259.278 2812.53,257.478 2808.51,257.478 M2808.45,260.598 C2810.25,260.598 2811.69,261.678 2812.35,263.598 C2813.13,265.578 2813.61,271.878 2813.61,279.318 C2813.61,285.498 2813.13,291.978 2812.59,294.018 C2811.93,296.418 2810.49,297.678 2808.45,297.678 C2806.59,297.678 2805.21,296.658 2804.49,294.678 C2803.71,292.698 2803.23,286.338 2803.23,279.138 C2803.23,272.838 2803.71,266.298 2804.25,264.258 C2804.91,261.858 2806.35,260.598 2808.45,260.598"/>
<path class="Tempo" d="M639.961,259.269 C636.793,256.101 632.536,247.686 631.843,243.132 L631.744,242.736 C631.645,242.439 631.447,241.845 630.556,241.845 C629.665,241.845 629.269,242.439 629.269,243.132 L629.269,286.494 C628.18,285.801 626.794,285.405 625.21,285.207 C618.577,285.207 611.647,288.078 608.479,294.216 C607.687,295.701 607.291,297.186 607.291,298.869 C607.291,303.423 611.845,305.601 615.904,305.601 C622.933,305.601 632.536,299.76 632.536,292.137 L632.536,260.655 C636.892,263.427 646.495,270.852 646.495,282.039 C646.495,288.177 645.802,292.335 644.515,297.384 C644.416,297.78 644.317,298.077 644.317,298.473 C644.317,298.869 644.416,299.265 644.911,299.463 C645.109,299.463 645.208,299.562 645.307,299.562 C645.802,299.562 646.099,298.869 646.396,298.275 C648.97,292.533 649.465,285.999 649.465,279.762 C649.168,271.743 646,267.09 644.02,264.516 C642.139,261.942 640.159,259.566 639.961,259.269"/>
<path class="Tempo" d="M671.818,282.078 L702.058,282.078 L702.058,275.178 L671.818,275.178 L671.818,282.078 M671.818,294.438 L702.058,294.438 L702.058,287.538 L671.818,287.538 L671.818,294.438 M744.597,257.478 L742.497,257.478 C738.717,260.298 734.457,261.498 727.317,261.618 L727.317,264.978 L729.837,264.978 C735.177,264.978 735.237,265.098 735.177,270.018 L735.177,291.318 C735.177,295.038 735.177,295.218 734.757,295.818 C734.217,296.478 733.017,296.718 729.777,296.718 L727.857,296.718 L727.857,299.958 L751.797,299.958 L751.797,296.718 L749.877,296.718 C746.697,296.718 745.557,296.478 745.017,295.818 C744.597,295.218 744.597,294.978 744.597,291.318 L744.597,257.478 M785.394,283.998 L784.734,286.998 C784.194,289.398 783.834,290.178 783.354,290.478 C782.754,290.898 782.634,290.898 778.854,290.958 L767.274,290.958 C769.374,289.158 770.934,288.018 773.274,286.458 C781.734,280.998 783.474,279.678 785.214,277.458 C787.254,274.758 788.454,271.578 788.454,268.758 C788.454,262.338 782.154,257.478 773.694,257.478 C765.534,257.478 759.234,262.758 759.234,269.598 C759.234,273.798 761.574,276.498 765.174,276.498 C768.294,276.498 770.274,274.518 770.274,271.398 C770.274,268.818 769.134,267.318 766.374,265.998 C765.714,265.698 765.414,265.338 765.414,264.858 C765.414,262.938 768.654,260.898 771.654,260.898 C775.854,260.898 778.254,263.478 778.254,267.918 C778.254,272.898 776.334,276.438 769.974,283.218 C763.254,290.358 760.914,293.058 757.914,297.378 L757.914,300.198 C759.474,300.018 760.134,299.958 761.034,299.958 L783.594,299.958 C784.734,299.958 785.454,300.018 787.254,300.198 L788.634,283.998 L785.394,283.998 M808.432,257.478 C799.432,257.478 792.832,266.658 792.832,279.138 C792.832,291.618 799.432,300.798 808.432,300.798 C817.252,300.798 823.972,291.618 823.972,279.438 C823.972,272.358 822.352,267.138 818.812,262.698 C815.992,259.278 812.452,257.478 808.432,257.478 M808.372,260.598 C810.172,260.598 811.612,261.678 812.272,263.598 C813.052,265.578 813.532,271.878 813.532,279.318 C813.532,285.498 813.052,291.978 812.512,294.018 C811.852,296.418 810.412,297.678 808.372,297.678 C806.512,297.678 805.132,296.658 804.412,294.678 C803.632,292.698 803.152,286.338 803.152,279.138 C803.152,272.838 803.632,266.298 804.172,264.258 C804.832,261.858 806.272,260.598 808.372,260.598"/>
<polyline class="HairpinSegment" fill="none" stroke="#000000" stroke-width="2.98" stroke-linejoin="bevel" points="817.902,483.166 2600.4,468.906 817.902,454.646"/>
<polyline class="HairpinSegment" fill="none" stroke="#000000" stroke-width="2.98" stroke-linejoin="bevel" points="790.945,678.902 2621.54,664.642 790.945,650.382"/>
<path class="GradualTempoChangeSegment" d="M900.263,276.233 C900.263,272.333 899.543,270.473 897.443,268.733 C895.223,266.993 891.503,266.033 886.763,266.033 C878.483,266.033 873.083,269.093 873.083,273.773 C873.083,276.353 875.123,278.273 877.943,278.273 C880.763,278.273 882.863,276.593 882.863,274.373 C882.863,273.653 882.563,272.813 882.023,272.093 C881.483,271.373 881.483,271.373 881.483,271.073 C881.483,270.053 883.463,269.153 885.863,269.153 C889.523,269.153 890.843,270.653 890.843,274.853 L890.843,277.973 C887.003,278.753 883.103,279.593 879.443,280.853 C873.863,282.713 871.463,285.233 871.463,289.193 C871.463,293.633 874.823,296.213 880.703,296.213 C885.863,296.213 888.983,295.073 892.163,291.953 C893.183,294.653 895.463,296.213 898.523,296.213 C901.943,296.213 905.123,293.813 905.123,291.233 C905.123,290.633 904.823,290.273 904.223,290.273 C903.863,290.273 903.503,290.393 903.023,290.693 C902.483,291.053 902.303,291.113 901.883,291.113 C900.563,291.113 900.263,290.333 900.263,286.793 L900.263,276.233 M890.843,281.213 L890.843,284.573 C890.843,289.193 888.743,292.133 885.323,292.133 C882.983,292.133 881.483,290.513 881.483,287.993 C881.483,284.753 883.343,282.953 887.663,281.933 L890.843,281.213 M934.459,284.693 C932.959,288.713 930.739,292.133 925.879,292.133 C920.959,292.133 918.199,287.933 918.199,280.493 C918.199,273.293 920.839,269.153 925.339,269.153 C927.079,269.153 928.459,269.873 928.459,270.833 C928.459,271.073 928.459,271.073 927.799,271.913 C926.779,273.293 926.599,273.773 926.599,274.913 C926.599,277.493 928.639,279.293 931.519,279.293 C934.759,279.293 936.859,277.313 936.859,274.193 C936.859,269.213 932.179,266.033 924.919,266.033 C914.959,266.033 907.819,272.513 907.819,281.573 C907.819,290.333 914.299,296.213 923.959,296.213 C931.159,296.213 935.479,292.253 937.579,285.713 L934.459,284.693 M967.756,284.693 C966.256,288.713 964.036,292.133 959.176,292.133 C954.256,292.133 951.496,287.933 951.496,280.493 C951.496,273.293 954.136,269.153 958.636,269.153 C960.376,269.153 961.756,269.873 961.756,270.833 C961.756,271.073 961.756,271.073 961.096,271.913 C960.076,273.293 959.896,273.773 959.896,274.913 C959.896,277.493 961.936,279.293 964.816,279.293 C968.056,279.293 970.156,277.313 970.156,274.193 C970.156,269.213 965.476,266.033 958.216,266.033 C948.256,266.033 941.116,272.513 941.116,281.573 C941.116,290.333 947.596,296.213 957.256,296.213 C964.456,296.213 968.776,292.253 970.876,285.713 L967.756,284.693 M1004.89,281.633 L1004.89,280.673 C1004.89,271.733 999.37,266.033 990.55,266.033 C985.69,266.033 981.73,267.593 978.73,270.653 C976.03,273.473 974.41,277.433 974.41,281.393 C974.41,285.713 976.27,289.973 979.27,292.553 C982.03,294.893 986.05,296.213 990.61,296.213 C997.63,296.213 1002.25,293.093 1004.89,286.673 L1001.95,285.473 C999.55,290.153 996.91,292.133 992.95,292.133 C990.19,292.133 987.79,290.813 986.29,288.533 C985.27,286.913 984.85,285.053 984.79,281.633 L1004.89,281.633 M984.85,278.333 C984.85,272.633 987.13,269.153 990.73,269.153 C993.85,269.153 995.47,271.673 995.47,276.413 C995.47,277.853 995.05,278.333 993.85,278.333 L984.85,278.333 M1021.33,251.093 L1006.93,251.993 L1006.93,255.053 L1008.07,255.053 C1011.73,255.053 1011.97,255.353 1011.91,260.633 L1011.91,289.913 C1011.85,290.753 1011.79,291.113 1011.55,291.473 C1011.13,292.013 1009.99,292.253 1007.35,292.253 L1007.11,292.253 L1007.11,295.313 L1025.83,295.313 L1025.83,292.253 L1025.41,292.253 C1021.81,292.133 1021.33,291.833 1021.33,289.673 L1021.33,251.093 M1035.66,284.933 C1032.54,284.933 1030.02,287.453 1030.02,290.573 C1030.02,293.633 1032.54,296.213 1035.6,296.213 C1038.78,296.213 1041.3,293.693 1041.3,290.573 C1041.3,287.453 1038.78,284.933 1035.66,284.933"/>
<path class="NoteDot" transform="matrix(0.992,0,0,0.992,2122.91,562.697)" d="M0,0 C0,2.8 2.2,5 5,5 C7.8,5 10,2.8 10,0 C10,-2.8 7.8,-5 5,-5 C2.2,-5 0,-2.8 0,0"/>
<path class="NoteDot" transform="matrix(0.992,0,0,0.992,2442.69,562.697)" d="M0,0 C0,2.8 2.2,5 5,5 C7.8,5 10,2.8 10,0 C10,-2.8 7.8,-5 5,-5 C2.2,-5 0,-2.8 0,0"/>
<path class="NoteDot" transform="matrix(0.992,0,0,0.992,1803.14,562.697)" d="M0,0 C0,2.8 2.2,5 5,5 C7.8,5 10,2.8 10,0 C10,-2.8 7.8,-5 5,-5 C2.2,-5 0,-2.8 0,0"/>
<path class="NoteDot" transform="matrix(0.992,0,0,0.992,1446.66,562.697)" d="M0,0 C0,2.8 2.2,5 5,5 C7.8,5 10,2.8 10,0 C10,-2.8 7.8,-5 5,-5 C2.2,-5 0,-2.8 0,0"/>
<path class="NoteDot" transform="matrix(0.992,0,0,0.992,1126.89,562.697)" d="M0,0 C0,2.8 2.2,5 5,5 C7.8,5 10,2.8 10,0 C10,-2.8 7.8,-5 5,-5 C2.2,-5 0,-2.8 0,0"/>
<path class="NoteDot" transform="matrix(0.992,0,0,0.992,807.116,562.697)" d="M0,0 C0,2.8 2.2,5 5,5 C7.8,5 10,2.8 10,0 C10,-2.8 7.8,-5 5,-5 C2.2,-5 0,-2.8 0,0"/>
</svg>
