<?xml version="1.0" encoding="UTF-8" standalone="no"?>
<svg width="2977.2px" height="900px" viewBox="0 0 2977.2 900"
 xmlns="http://www.w3.org/2000/svg" xmlns:xlink="http://www.w3.org/1999/xlink" version="1.2" baseProfile="tiny">
<title>Untitled score</title>
<desc>Generated by MuseScore 4.1.0</desc>
<path class="" fill="#ffffff" fill-rule="evenodd" d="M0,0 L2977.2,0 L2977.2,900 L0,900 L0,0 "/>
<polyline class="StaffLines" fill="none" stroke="#000000" stroke-width="2.73" stroke-linejoin="bevel" points="525.992,397.581 2764.6,397.581"/>
<polyline class="StaffLines" fill="none" stroke="#000000" stroke-width="2.73" stroke-linejoin="bevel" points="525.992,592.68 2764.6,592.68"/>
<path class="InstrumentName" d="M240.814,393.606 L240.814,404.806 C240.814,407.356 240.814,407.456 240.514,407.906 C240.114,408.406 239.164,408.606 236.314,408.606 L235.414,408.606 L235.414,410.956 L251.814,410.956 L251.814,408.606 L250.914,408.606 C248.064,408.606 247.114,408.406 246.714,407.906 C246.414,407.456 246.414,407.406 246.414,404.806 L246.414,381.006 C246.414,378.406 246.414,378.356 246.714,377.906 C247.164,377.356 248.064,377.206 250.914,377.206 L251.814,377.206 L251.814,374.856 L235.614,374.856 L235.614,377.206 L236.314,377.206 C239.164,377.206 240.064,377.356 240.514,377.906 C240.814,378.356 240.814,378.456 240.814,381.006 L240.814,390.906 L224.064,390.906 L224.064,381.006 C224.064,378.456 224.064,378.356 224.414,377.906 C224.814,377.356 225.714,377.206 228.564,377.206 L229.514,377.206 L229.514,374.856 L213.064,374.856 L213.064,377.206 L213.964,377.206 C216.814,377.206 217.714,377.356 218.164,377.906 C218.464,378.356 218.464,378.456 218.464,381.006 L218.464,404.806 C218.464,407.306 218.464,407.456 218.164,407.906 C217.764,408.406 216.814,408.606 213.964,408.606 L213.064,408.606 L213.064,410.956 L229.514,410.956 L229.514,408.606 L228.564,408.606 C225.714,408.556 224.814,408.406 224.414,407.906 C224.064,407.456 224.064,407.356 224.064,404.806 L224.064,393.606 L240.814,393.606 M275.808,394.856 C275.808,391.706 275.258,390.106 273.808,388.906 C272.158,387.556 269.708,386.906 266.508,386.906 C260.858,386.906 256.758,389.556 256.758,393.206 C256.758,395.056 257.908,396.256 259.658,396.256 C261.258,396.256 262.358,395.206 262.358,393.706 C262.358,393.056 262.108,392.356 261.608,391.656 C261.308,391.306 261.258,391.206 261.258,390.956 C261.258,389.956 263.258,389.056 265.658,389.056 C267.258,389.056 269.008,389.556 269.808,390.306 C270.758,391.106 271.108,392.306 271.108,394.556 L271.108,396.506 C265.908,397.406 264.258,397.806 261.808,398.756 C257.458,400.356 255.408,402.656 255.408,405.856 C255.408,409.456 258.208,411.706 262.658,411.706 C266.108,411.706 269.208,410.306 271.358,407.756 C272.158,410.306 273.408,411.306 275.758,411.306 C278.008,411.306 280.358,409.856 280.358,408.406 C280.358,408.056 280.158,407.806 279.858,407.806 C279.658,407.806 279.458,407.856 279.108,408.006 C278.408,408.306 278.108,408.356 277.708,408.356 C276.308,408.356 275.808,407.456 275.808,404.906 L275.808,394.856 M271.108,400.956 C271.108,403.956 270.958,404.656 270.108,405.956 C268.858,407.806 266.608,409.056 264.408,409.056 C262.108,409.056 260.458,407.406 260.458,405.156 C260.458,403.056 261.508,401.556 263.708,400.506 C265.258,399.806 267.208,399.306 271.108,398.656 L271.108,400.956 M291.005,387.656 L282.355,388.206 L282.355,390.356 L284.155,390.356 C286.055,390.406 286.305,390.706 286.305,392.856 L286.305,407.156 C286.255,407.906 286.205,408.206 286.005,408.456 C285.655,408.906 284.705,409.106 282.555,409.156 L282.355,409.156 L282.355,410.956 L295.005,410.956 L295.005,409.156 L294.805,409.156 C291.455,409.056 291.005,408.806 291.005,407.006 L291.005,399.606 C291.005,397.156 291.355,394.906 291.905,393.756 C292.955,391.506 295.205,389.956 297.355,389.956 C298.655,389.956 300.155,390.656 300.905,391.706 C301.655,392.806 302.005,394.306 302.005,396.706 L302.005,407.156 C301.955,407.906 301.905,408.206 301.705,408.456 C301.355,408.906 300.355,409.106 298.205,409.156 L298.005,409.156 L298.005,410.956 L310.655,410.956 L310.655,409.156 L310.455,409.156 C307.155,409.056 306.705,408.806 306.705,407.006 L306.705,396.956 C306.705,393.356 306.555,392.456 305.655,390.756 C304.405,388.356 301.905,386.906 298.905,386.906 C295.655,386.906 293.205,388.406 291.005,391.706 L291.005,387.656 M330.552,411.306 L339.252,410.956 L339.252,408.806 L338.352,408.806 C335.502,408.656 335.252,408.356 335.252,405.156 L335.252,374.106 L325.452,374.656 L325.452,376.806 L328.402,376.806 C330.302,376.856 330.552,377.156 330.552,379.306 L330.552,390.606 C328.702,388.056 326.552,386.906 323.652,386.906 C318.002,386.906 313.702,392.356 313.702,399.556 C313.702,406.656 317.852,411.706 323.652,411.706 C326.802,411.706 328.952,410.356 330.552,407.356 L330.552,411.306 M324.652,389.606 C326.702,389.606 328.652,391.106 329.552,393.406 C330.202,394.906 330.502,396.956 330.502,399.406 C330.502,405.256 328.202,409.006 324.602,409.006 C321.052,409.006 318.952,405.706 318.952,400.156 C318.952,397.156 319.252,394.906 319.902,393.256 C320.752,391.006 322.602,389.606 324.652,389.606 M386.08,374.506 L384.18,374.506 L382.18,377.456 C378.53,374.806 376.68,374.106 373.23,374.106 C368.48,374.106 364.43,376.106 361.08,380.106 C357.88,383.906 356.38,388.106 356.38,393.256 C356.38,404.056 363.43,411.706 373.28,411.706 C381.28,411.706 386.38,407.006 387.53,398.606 L385.18,398.206 C383.83,405.656 380.03,409.356 373.88,409.356 C366.48,409.356 362.98,404.256 362.98,393.456 C362.98,387.756 363.73,384.006 365.43,381.006 C366.98,378.206 370.03,376.456 373.28,376.456 C376.78,376.456 379.88,378.306 381.78,381.506 C382.73,383.156 383.43,385.006 384.63,388.956 L386.83,388.956 L386.08,374.506 M400.423,374.106 L391.173,374.656 L391.173,376.806 L393.623,376.806 C395.473,376.856 395.723,377.156 395.723,379.306 L395.723,407.156 C395.673,407.906 395.623,408.206 395.423,408.456 C395.073,408.906 394.123,409.106 391.973,409.156 L391.623,409.156 L391.623,410.956 L404.573,410.956 L404.573,409.156 L404.223,409.156 C400.873,409.056 400.423,408.806 400.423,407.006 L400.423,374.106 M428.573,394.856 C428.573,391.706 428.023,390.106 426.573,388.906 C424.923,387.556 422.473,386.906 419.273,386.906 C413.623,386.906 409.523,389.556 409.523,393.206 C409.523,395.056 410.673,396.256 412.423,396.256 C414.023,396.256 415.123,395.206 415.123,393.706 C415.123,393.056 414.873,392.356 414.373,391.656 C414.073,391.306 414.023,391.206 414.023,390.956 C414.023,389.956 416.023,389.056 418.423,389.056 C420.023,389.056 421.773,389.556 422.573,390.306 C423.523,391.106 423.873,392.306 423.873,394.556 L423.873,396.506 C418.673,397.406 417.023,397.806 414.573,398.756 C410.223,400.356 408.173,402.656 408.173,405.856 C408.173,409.456 410.973,411.706 415.423,411.706 C418.873,411.706 421.973,410.306 424.123,407.756 C424.923,410.306 426.173,411.306 428.523,411.306 C430.773,411.306 433.123,409.856 433.123,408.406 C433.123,408.056 432.923,407.806 432.623,407.806 C432.423,407.806 432.223,407.856 431.873,408.006 C431.173,408.306 430.873,408.356 430.473,408.356 C429.073,408.356 428.573,407.456 428.573,404.906 L428.573,394.856 M423.873,400.956 C423.873,403.956 423.723,404.656 422.873,405.956 C421.623,407.806 419.373,409.056 417.173,409.056 C414.873,409.056 413.223,407.406 413.223,405.156 C413.223,403.056 414.273,401.556 416.473,400.506 C418.023,399.806 419.973,399.306 423.873,398.656 L423.873,400.956 M443.82,387.656 L435.17,388.206 L435.17,390.356 L436.97,390.356 C438.87,390.406 439.12,390.706 439.12,392.856 L439.12,417.306 C439.07,418.006 439.02,418.306 438.82,418.556 C438.47,419.006 437.52,419.206 435.37,419.256 L435.17,419.256 L435.17,421.056 L448.17,421.056 L448.17,419.256 L447.62,419.256 C444.27,419.156 443.82,418.906 443.82,417.106 L443.82,407.656 C445.47,410.556 447.32,411.706 450.42,411.706 C457.07,411.706 460.52,405.156 460.52,399.206 C460.52,393.556 457.07,386.906 450.72,386.906 C447.62,386.906 445.57,388.206 443.82,391.206 L443.82,387.656 M449.82,389.606 C453.27,389.606 455.27,393.056 455.27,398.906 C455.27,405.356 453.27,409.006 449.67,409.006 C446.07,409.006 443.77,405.306 443.77,399.556 C443.77,393.306 446.02,389.606 449.82,389.606 M492.448,375.756 C490.748,377.806 486.148,379.356 481.548,379.456 L481.548,381.606 L485.948,381.606 C488.848,381.656 489.148,381.956 489.048,384.756 L489.048,404.806 C489.048,407.356 489.048,407.456 488.748,407.906 C488.348,408.406 487.398,408.606 484.598,408.606 L481.348,408.606 L481.348,410.956 L501.148,410.956 L501.148,408.606 L498.398,408.606 C495.598,408.606 494.648,408.406 494.248,407.906 C493.898,407.456 493.898,407.406 493.898,404.806 L493.898,384.156 C493.898,381.356 493.998,379.006 494.248,375.756 L492.448,375.756 "/>
<path class="InstrumentName" d="M240.361,588.705 L240.361,599.905 C240.361,602.455 240.361,602.555 240.061,603.005 C239.661,603.505 238.711,603.705 235.861,603.705 L234.961,603.705 L234.961,606.055 L251.361,606.055 L251.361,603.705 L250.461,603.705 C247.611,603.705 246.661,603.505 246.261,603.005 C245.961,602.555 245.961,602.505 245.961,599.905 L245.961,576.105 C245.961,573.505 245.961,573.455 246.261,573.005 C246.711,572.455 247.611,572.305 250.461,572.305 L251.361,572.305 L251.361,569.955 L235.161,569.955 L235.161,572.305 L235.861,572.305 C238.711,572.305 239.611,572.455 240.061,573.005 C240.361,573.455 240.361,573.555 240.361,576.105 L240.361,586.005 L223.611,586.005 L223.611,576.105 C223.611,573.555 223.611,573.455 223.961,573.005 C224.361,572.455 225.261,572.305 228.111,572.305 L229.061,572.305 L229.061,569.955 L212.611,569.955 L212.611,572.305 L213.511,572.305 C216.361,572.305 217.261,572.455 217.711,573.005 C218.011,573.455 218.011,573.555 218.011,576.105 L218.011,599.905 C218.011,602.405 218.011,602.555 217.711,603.005 C217.311,603.505 216.361,603.705 213.511,603.705 L212.611,603.705 L212.611,606.055 L229.061,606.055 L229.061,603.705 L228.111,603.705 C225.261,603.655 224.361,603.505 223.961,603.005 C223.611,602.555 223.611,602.455 223.611,599.905 L223.611,588.705 L240.361,588.705 M275.355,589.955 C275.355,586.805 274.805,585.205 273.355,584.005 C271.705,582.655 269.255,582.005 266.055,582.005 C260.405,582.005 256.305,584.655 256.305,588.305 C256.305,590.155 257.455,591.355 259.205,591.355 C260.805,591.355 261.905,590.305 261.905,588.805 C261.905,588.155 261.655,587.455 261.155,586.755 C260.855,586.405 260.805,586.305 260.805,586.055 C260.805,585.055 262.805,584.155 265.205,584.155 C266.805,584.155 268.555,584.655 269.355,585.405 C270.305,586.205 270.655,587.405 270.655,589.655 L270.655,591.605 C265.455,592.505 263.805,592.905 261.355,593.855 C257.005,595.455 254.955,597.755 254.955,600.955 C254.955,604.555 257.755,606.805 262.205,606.805 C265.655,606.805 268.755,605.405 270.905,602.855 C271.705,605.405 272.955,606.405 275.305,606.405 C277.555,606.405 279.905,604.955 279.905,603.505 C279.905,603.155 279.705,602.905 279.405,602.905 C279.205,602.905 279.005,602.955 278.655,603.105 C277.955,603.405 277.655,603.455 277.255,603.455 C275.855,603.455 275.355,602.555 275.355,600.005 L275.355,589.955 M270.655,596.055 C270.655,599.055 270.505,599.755 269.655,601.055 C268.405,602.905 266.155,604.155 263.955,604.155 C261.655,604.155 260.005,602.505 260.005,600.255 C260.005,598.155 261.055,596.655 263.255,595.605 C264.805,594.905 266.755,594.405 270.655,593.755 L270.655,596.055 M290.552,582.755 L281.902,583.305 L281.902,585.455 L283.702,585.455 C285.602,585.505 285.852,585.805 285.852,587.955 L285.852,602.255 C285.802,603.005 285.752,603.305 285.552,603.555 C285.202,604.005 284.252,604.205 282.102,604.255 L281.902,604.255 L281.902,606.055 L294.552,606.055 L294.552,604.255 L294.352,604.255 C291.002,604.155 290.552,603.905 290.552,602.105 L290.552,594.705 C290.552,592.255 290.902,590.005 291.452,588.855 C292.502,586.605 294.752,585.055 296.902,585.055 C298.202,585.055 299.702,585.755 300.452,586.805 C301.202,587.905 301.552,589.405 301.552,591.805 L301.552,602.255 C301.502,603.005 301.452,603.305 301.252,603.555 C300.902,604.005 299.902,604.205 297.752,604.255 L297.552,604.255 L297.552,606.055 L310.202,606.055 L310.202,604.255 L310.002,604.255 C306.702,604.155 306.252,603.905 306.252,602.105 L306.252,592.055 C306.252,588.455 306.102,587.555 305.202,585.855 C303.952,583.455 301.452,582.005 298.452,582.005 C295.202,582.005 292.752,583.505 290.552,586.805 L290.552,582.755 M330.098,606.405 L338.798,606.055 L338.798,603.905 L337.898,603.905 C335.048,603.755 334.798,603.455 334.798,600.255 L334.798,569.205 L324.998,569.755 L324.998,571.905 L327.948,571.905 C329.848,571.955 330.098,572.255 330.098,574.405 L330.098,585.705 C328.248,583.155 326.098,582.005 323.198,582.005 C317.548,582.005 313.248,587.455 313.248,594.655 C313.248,601.755 317.398,606.805 323.198,606.805 C326.348,606.805 328.498,605.455 330.098,602.455 L330.098,606.405 M324.198,584.705 C326.248,584.705 328.198,586.205 329.098,588.505 C329.748,590.005 330.048,592.055 330.048,594.505 C330.048,600.355 327.748,604.105 324.148,604.105 C320.598,604.105 318.498,600.805 318.498,595.255 C318.498,592.255 318.798,590.005 319.448,588.355 C320.298,586.105 322.148,584.705 324.198,584.705 M385.627,569.605 L383.727,569.605 L381.727,572.555 C378.077,569.905 376.227,569.205 372.777,569.205 C368.027,569.205 363.977,571.205 360.627,575.205 C357.427,579.005 355.927,583.205 355.927,588.355 C355.927,599.155 362.977,606.805 372.827,606.805 C380.827,606.805 385.927,602.105 387.077,593.705 L384.727,593.305 C383.377,600.755 379.577,604.455 373.427,604.455 C366.027,604.455 362.527,599.355 362.527,588.555 C362.527,582.855 363.277,579.105 364.977,576.105 C366.527,573.305 369.577,571.555 372.827,571.555 C376.327,571.555 379.427,573.405 381.327,576.605 C382.277,578.255 382.977,580.105 384.177,584.055 L386.377,584.055 L385.627,569.605 M399.97,569.205 L390.72,569.755 L390.72,571.905 L393.17,571.905 C395.02,571.955 395.27,572.255 395.27,574.405 L395.27,602.255 C395.22,603.005 395.17,603.305 394.97,603.555 C394.62,604.005 393.67,604.205 391.52,604.255 L391.17,604.255 L391.17,606.055 L404.12,606.055 L404.12,604.255 L403.77,604.255 C400.42,604.155 399.97,603.905 399.97,602.105 L399.97,569.205 M428.12,589.955 C428.12,586.805 427.57,585.205 426.12,584.005 C424.47,582.655 422.02,582.005 418.82,582.005 C413.17,582.005 409.07,584.655 409.07,588.305 C409.07,590.155 410.22,591.355 411.97,591.355 C413.57,591.355 414.67,590.305 414.67,588.805 C414.67,588.155 414.42,587.455 413.92,586.755 C413.62,586.405 413.57,586.305 413.57,586.055 C413.57,585.055 415.57,584.155 417.97,584.155 C419.57,584.155 421.32,584.655 422.12,585.405 C423.07,586.205 423.42,587.405 423.42,589.655 L423.42,591.605 C418.22,592.505 416.57,592.905 414.12,593.855 C409.77,595.455 407.72,597.755 407.72,600.955 C407.72,604.555 410.52,606.805 414.97,606.805 C418.42,606.805 421.52,605.405 423.67,602.855 C424.47,605.405 425.72,606.405 428.07,606.405 C430.32,606.405 432.67,604.955 432.67,603.505 C432.67,603.155 432.47,602.905 432.17,602.905 C431.97,602.905 431.77,602.955 431.42,603.105 C430.72,603.405 430.42,603.455 430.02,603.455 C428.62,603.455 428.12,602.555 428.12,600.005 L428.12,589.955 M423.42,596.055 C423.42,599.055 423.27,599.755 422.42,601.055 C421.17,602.905 418.92,604.155 416.72,604.155 C414.42,604.155 412.77,602.505 412.77,600.255 C412.77,598.155 413.82,596.655 416.02,595.605 C417.57,594.905 419.52,594.405 423.42,593.755 L423.42,596.055 M443.367,582.755 L434.717,583.305 L434.717,585.455 L436.517,585.455 C438.417,585.505 438.667,585.805 438.667,587.955 L438.667,612.405 C438.617,613.105 438.567,613.405 438.367,613.655 C438.017,614.105 437.067,614.305 434.917,614.355 L434.717,614.355 L434.717,616.155 L447.717,616.155 L447.717,614.355 L447.167,614.355 C443.817,614.255 443.367,614.005 443.367,612.205 L443.367,602.755 C445.017,605.655 446.867,606.805 449.967,606.805 C456.617,606.805 460.067,600.255 460.067,594.305 C460.067,588.655 456.617,582.005 450.267,582.005 C447.167,582.005 445.117,583.305 443.367,586.305 L443.367,582.755 M449.367,584.705 C452.817,584.705 454.817,588.155 454.817,594.005 C454.817,600.455 452.817,604.105 449.217,604.105 C445.617,604.105 443.317,600.405 443.317,594.655 C443.317,588.405 445.567,584.705 449.367,584.705 M501.145,595.255 L498.945,595.255 L498.445,597.805 C497.795,601.055 497.395,601.355 494.295,601.355 L483.095,601.355 C486.545,597.755 487.695,596.705 490.895,594.205 C495.445,590.705 497.395,588.955 498.545,587.455 C500.145,585.255 500.945,583.055 500.945,580.605 C500.945,574.905 496.245,570.855 489.695,570.855 C483.345,570.855 478.495,574.905 478.495,580.255 C478.495,583.405 480.095,585.555 482.445,585.555 C484.295,585.555 485.545,584.305 485.545,582.505 C485.545,581.255 484.845,580.105 483.795,579.655 C481.945,578.905 481.845,578.805 481.845,578.155 C481.845,577.405 482.345,576.255 483.045,575.405 C484.295,573.855 486.345,573.005 488.695,573.005 C492.845,573.005 495.295,575.555 495.295,579.755 C495.295,583.455 493.545,586.805 489.395,591.205 C485.695,595.105 483.395,597.555 482.545,598.505 C480.745,600.605 479.845,601.755 477.645,604.655 L477.645,606.055 L500.195,606.055 L501.145,595.255 "/>
<polyline class="BarLine" fill="none" stroke="#000000" stroke-width="4.46" stroke-linejoin="bevel" points="528.224,346.617 528.224,592.68"/>
<path class="BarLine" transform="matrix(0.992,0,0,0.992,2717.83,385.181)" d="M10.4,0 C10.4,-2.9 8.1,-5.3 5.2,-5.3 C2.3,-5.3 0,-2.9 0,0 C0,2.9 2.3,5.3 5.2,5.3 C8.1,5.3 10.4,2.9 10.4,0"/>
<path class="BarLine" transform="matrix(0.992,0,0,0.992,2717.83,409.981)" d="M10.4,0 C10.4,-2.9 8.1,-5.3 5.2,-5.3 C2.3,-5.3 0,-2.9 0,0 C0,2.9 2.3,5.3 5.2,5.3 C8.1,5.3 10.4,2.9 10.4,0"/>
<polyline class="BarLine" fill="none" stroke="#000000" stroke-width="4.46" stroke-linejoin="bevel" points="2739.55,346.617 2739.55,448.545"/>
<polyline class="BarLine" fill="none" stroke="#000000" stroke-width="13.64" stroke-linejoin="bevel" points="2757.78,346.617 2757.78,448.545"/>
<polyline class="BarLine" fill="none" stroke="#000000" stroke-width="4.46" stroke-linejoin="bevel" points="1726.51,346.617 1726.51,448.545"/>
<polyline class="BarLine" fill="none" stroke="#000000" stroke-width="13.64" stroke-linejoin="bevel" points="695.244,346.617 695.244,448.545"/>
<polyline class="BarLine" fill="none" stroke="#000000" stroke-width="4.46" stroke-linejoin="bevel" points="713.472,346.617 713.472,448.545"/>
<path class="BarLine" transform="matrix(0.992,0,0,0.992,724.88,385.181)" d="M10.4,0 C10.4,-2.9 8.1,-5.3 5.2,-5.3 C2.3,-5.3 0,-2.9 0,0 C0,2.9 2.3,5.3 5.2,5.3 C8.1,5.3 10.4,2.9 10.4,0"/>
<path class="BarLine" transform="matrix(0.992,0,0,0.992,724.88,409.981)" d="M10.4,0 C10.4,-2.9 8.1,-5.3 5.2,-5.3 C2.3,-5.3 0,-2.9 0,0 C0,2.9 2.3,5.3 5.2,5.3 C8.1,5.3 10.4,2.9 10.4,0"/>
<polyline class="BarLine" fill="none" stroke="#000000" stroke-width="4.46" stroke-linejoin="bevel" points="1726.51,541.716 1726.51,643.644"/>
<polyline class="BarLine" fill="none" stroke="#000000" stroke-width="4.46" stroke-linejoin="bevel" points="528.224,541.716 528.224,643.644"/>
<path class="BarLine" transform="matrix(0.992,0,0,0.992,2717.83,580.28)" d="M10.4,0 C10.4,-2.9 8.1,-5.3 5.2,-5.3 C2.3,-5.3 0,-2.9 0,0 C0,2.9 2.3,5.3 5.2,5.3 C8.1,5.3 10.4,2.9 10.4,0"/>
<path class="BarLine" transform="matrix(0.992,0,0,0.992,2717.83,605.08)" d="M10.4,0 C10.4,-2.9 8.1,-5.3 5.2,-5.3 C2.3,-5.3 0,-2.9 0,0 C0,2.9 2.3,5.3 5.2,5.3 C8.1,5.3 10.4,2.9 10.4,0"/>
<polyline class="BarLine" fill="none" stroke="#000000" stroke-width="4.46" stroke-linejoin="bevel" points="2739.55,541.716 2739.55,643.644"/>
<polyline class="BarLine" fill="none" stroke="#000000" stroke-width="13.64" stroke-linejoin="bevel" points="2757.78,541.716 2757.78,643.644"/>
<polyline class="BarLine" fill="none" stroke="#000000" stroke-width="13.64" stroke-linejoin="bevel" points="695.244,541.716 695.244,643.644"/>
<polyline class="BarLine" fill="none" stroke="#000000" stroke-width="4.46" stroke-linejoin="bevel" points="713.472,541.716 713.472,643.644"/>
<path class="BarLine" transform="matrix(0.992,0,0,0.992,724.88,580.28)" d="M10.4,0 C10.4,-2.9 8.1,-5.3 5.2,-5.3 C2.3,-5.3 0,-2.9 0,0 C0,2.9 2.3,5.3 5.2,5.3 C8.1,5.3 10.4,2.9 10.4,0"/>
<path class="BarLine" transform="matrix(0.992,0,0,0.992,724.88,605.08)" d="M10.4,0 C10.4,-2.9 8.1,-5.3 5.2,-5.3 C2.3,-5.3 0,-2.9 0,0 C0,2.9 2.3,5.3 5.2,5.3 C8.1,5.3 10.4,2.9 10.4,0"/>
<polyline class="Stem" fill="none" stroke="#000000" stroke-width="2.48" stroke-linejoin="bevel" points="1117.38,393.613 1117.38,335.581"/>
<polyline class="Stem" fill="none" stroke="#000000" stroke-width="2.48" stroke-linejoin="bevel" points="2350.14,393.613 2350.14,335.581"/>
<polyline class="Stem" fill="none" stroke="#000000" stroke-width="2.48" stroke-linejoin="bevel" points="1516.06,393.613 1516.06,335.581"/>
<polyline class="Stem" fill="none" stroke="#000000" stroke-width="2.48" stroke-linejoin="bevel" points="1595.8,393.613 1595.8,335.581"/>
<polyline class="Stem" fill="none" stroke="#000000" stroke-width="2.48" stroke-linejoin="bevel" points="2429.87,393.613 2429.87,335.581"/>
<polyline class="Stem" fill="none" stroke="#000000" stroke-width="2.48" stroke-linejoin="bevel" points="2270.4,393.613 2270.4,335.581"/>
<polyline class="Stem" fill="none" stroke="#000000" stroke-width="2.48" stroke-linejoin="bevel" points="2190.66,393.613 2190.66,335.581"/>
<polyline class="Stem" fill="none" stroke="#000000" stroke-width="2.48" stroke-linejoin="bevel" points="1436.32,393.613 1436.32,335.581"/>
<polyline class="Stem" fill="none" stroke="#000000" stroke-width="2.48" stroke-linejoin="bevel" points="878.165,393.613 878.165,335.581"/>
<polyline class="Stem" fill="none" stroke="#000000" stroke-width="2.48" stroke-linejoin="bevel" points="2110.93,393.613 2110.93,335.581"/>
<polyline class="Stem" fill="none" stroke="#000000" stroke-width="2.48" stroke-linejoin="bevel" points="1675.54,393.613 1675.54,335.581"/>
<polyline class="Stem" fill="none" stroke="#000000" stroke-width="2.48" stroke-linejoin="bevel" points="1356.59,393.613 1356.59,335.581"/>
<polyline class="Stem" fill="none" stroke="#000000" stroke-width="2.48" stroke-linejoin="bevel" points="957.902,393.613 957.902,335.581"/>
<polyline class="Stem" fill="none" stroke="#000000" stroke-width="2.48" stroke-linejoin="bevel" points="2509.61,393.613 2509.61,335.581"/>
<polyline class="Stem" fill="none" stroke="#000000" stroke-width="2.48" stroke-linejoin="bevel" points="1037.64,393.613 1037.64,335.581"/>
<polyline class="Stem" fill="none" stroke="#000000" stroke-width="2.48" stroke-linejoin="bevel" points="2031.19,393.613 2031.19,335.581"/>
<polyline class="Stem" fill="none" stroke="#000000" stroke-width="2.48" stroke-linejoin="bevel" points="1951.45,393.613 1951.45,335.581"/>
<polyline class="Stem" fill="none" stroke="#000000" stroke-width="2.48" stroke-linejoin="bevel" points="798.428,393.613 798.428,335.581"/>
<polyline class="Stem" fill="none" stroke="#000000" stroke-width="2.48" stroke-linejoin="bevel" points="1871.71,393.613 1871.71,335.581"/>
<polyline class="Stem" fill="none" stroke="#000000" stroke-width="2.48" stroke-linejoin="bevel" points="2669.09,393.613 2669.09,335.581"/>
<polyline class="Stem" fill="none" stroke="#000000" stroke-width="2.48" stroke-linejoin="bevel" points="1791.98,393.613 1791.98,335.581"/>
<polyline class="Stem" fill="none" stroke="#000000" stroke-width="2.48" stroke-linejoin="bevel" points="1276.85,393.613 1276.85,335.581"/>
<polyline class="Stem" fill="none" stroke="#000000" stroke-width="2.48" stroke-linejoin="bevel" points="1197.11,393.613 1197.11,335.581"/>
<polyline class="Stem" fill="none" stroke="#000000" stroke-width="2.48" stroke-linejoin="bevel" points="2589.35,393.613 2589.35,335.581"/>
<polyline class="Stem" fill="none" stroke="#000000" stroke-width="2.48" stroke-linejoin="bevel" points="1791.98,588.712 1791.98,530.68"/>
<polyline class="Stem" fill="none" stroke="#000000" stroke-width="2.48" stroke-linejoin="bevel" points="1157.24,588.712 1157.24,530.68"/>
<polyline class="Stem" fill="none" stroke="#000000" stroke-width="2.48" stroke-linejoin="bevel" points="2509.61,588.712 2509.61,530.68"/>
<polyline class="Stem" fill="none" stroke="#000000" stroke-width="2.48" stroke-linejoin="bevel" points="2390.01,588.712 2390.01,530.68"/>
<polyline class="Stem" fill="none" stroke="#000000" stroke-width="2.48" stroke-linejoin="bevel" points="1276.85,588.712 1276.85,530.68"/>
<polyline class="Stem" fill="none" stroke="#000000" stroke-width="2.48" stroke-linejoin="bevel" points="1037.64,588.712 1037.64,530.68"/>
<polyline class="Stem" fill="none" stroke="#000000" stroke-width="2.48" stroke-linejoin="bevel" points="1911.58,588.712 1911.58,530.68"/>
<polyline class="Stem" fill="none" stroke="#000000" stroke-width="2.48" stroke-linejoin="bevel" points="2031.19,588.712 2031.19,530.68"/>
<polyline class="Stem" fill="none" stroke="#000000" stroke-width="2.48" stroke-linejoin="bevel" points="918.034,588.712 918.034,530.68"/>
<polyline class="Stem" fill="none" stroke="#000000" stroke-width="2.48" stroke-linejoin="bevel" points="1396.46,588.712 1396.46,530.68"/>
<polyline class="Stem" fill="none" stroke="#000000" stroke-width="2.48" stroke-linejoin="bevel" points="1635.67,588.712 1635.67,530.68"/>
<polyline class="Stem" fill="none" stroke="#000000" stroke-width="2.48" stroke-linejoin="bevel" points="2150.79,588.712 2150.79,530.68"/>
<polyline class="Stem" fill="none" stroke="#000000" stroke-width="2.48" stroke-linejoin="bevel" points="2270.4,588.712 2270.4,530.68"/>
<polyline class="Stem" fill="none" stroke="#000000" stroke-width="2.48" stroke-linejoin="bevel" points="798.428,588.712 798.428,530.68"/>
<polyline class="Stem" fill="none" stroke="#000000" stroke-width="2.48" stroke-linejoin="bevel" points="1516.06,588.712 1516.06,530.68"/>
<polyline class="Stem" fill="none" stroke="#000000" stroke-width="2.48" stroke-linejoin="bevel" points="2629.22,588.712 2629.22,530.68"/>
<path class="Note" transform="matrix(0.992,0,0,0.992,2558.36,397.581)" d="M0,4.2 C0,8.5 3.1,13.3 11.2,13.3 C21.6,13.3 32.5,4.8 32.5,-4 C32.5,-9.9 27.5,-13.2 21.3,-13.2 C11.6,-13.2 0,-5 0,4.2"/>
<path class="Note" transform="matrix(0.992,0,0,0.992,1485.07,397.581)" d="M0,4.2 C0,8.5 3.1,13.3 11.2,13.3 C21.6,13.3 32.5,4.8 32.5,-4 C32.5,-9.9 27.5,-13.2 21.3,-13.2 C11.6,-13.2 0,-5 0,4.2"/>
<path class="Note" transform="matrix(0.992,0,0,0.992,767.436,397.581)" d="M0,4.2 C0,8.5 3.1,13.3 11.2,13.3 C21.6,13.3 32.5,4.8 32.5,-4 C32.5,-9.9 27.5,-13.2 21.3,-13.2 C11.6,-13.2 0,-5 0,4.2"/>
<path class="Note" transform="matrix(0.992,0,0,0.992,1405.33,397.581)" d="M0,4.2 C0,8.5 3.1,13.3 11.2,13.3 C21.6,13.3 32.5,4.8 32.5,-4 C32.5,-9.9 27.5,-13.2 21.3,-13.2 C11.6,-13.2 0,-5 0,4.2"/>
<path class="Note" transform="matrix(0.992,0,0,0.992,1564.81,397.581)" d="M0,4.2 C0,8.5 3.1,13.3 11.2,13.3 C21.6,13.3 32.5,4.8 32.5,-4 C32.5,-9.9 27.5,-13.2 21.3,-13.2 C11.6,-13.2 0,-5 0,4.2"/>
<path class="Note" transform="matrix(0.992,0,0,0.992,2319.14,397.581)" d="M0,4.2 C0,8.5 3.1,13.3 11.2,13.3 C21.6,13.3 32.5,4.8 32.5,-4 C32.5,-9.9 27.5,-13.2 21.3,-13.2 C11.6,-13.2 0,-5 0,4.2"/>
<path class="Note" transform="matrix(0.992,0,0,0.992,2398.88,397.581)" d="M0,4.2 C0,8.5 3.1,13.3 11.2,13.3 C21.6,13.3 32.5,4.8 32.5,-4 C32.5,-9.9 27.5,-13.2 21.3,-13.2 C11.6,-13.2 0,-5 0,4.2"/>
<path class="Note" transform="matrix(0.992,0,0,0.992,1325.6,397.581)" d="M0,4.2 C0,8.5 3.1,13.3 11.2,13.3 C21.6,13.3 32.5,4.8 32.5,-4 C32.5,-9.9 27.5,-13.2 21.3,-13.2 C11.6,-13.2 0,-5 0,4.2"/>
<path class="Note" transform="matrix(0.992,0,0,0.992,1644.54,397.581)" d="M0,4.2 C0,8.5 3.1,13.3 11.2,13.3 C21.6,13.3 32.5,4.8 32.5,-4 C32.5,-9.9 27.5,-13.2 21.3,-13.2 C11.6,-13.2 0,-5 0,4.2"/>
<path class="Note" transform="matrix(0.992,0,0,0.992,2239.41,397.581)" d="M0,4.2 C0,8.5 3.1,13.3 11.2,13.3 C21.6,13.3 32.5,4.8 32.5,-4 C32.5,-9.9 27.5,-13.2 21.3,-13.2 C11.6,-13.2 0,-5 0,4.2"/>
<path class="Note" transform="matrix(0.992,0,0,0.992,2159.67,397.581)" d="M0,4.2 C0,8.5 3.1,13.3 11.2,13.3 C21.6,13.3 32.5,4.8 32.5,-4 C32.5,-9.9 27.5,-13.2 21.3,-13.2 C11.6,-13.2 0,-5 0,4.2"/>
<path class="Note" transform="matrix(0.992,0,0,0.992,2079.93,397.581)" d="M0,4.2 C0,8.5 3.1,13.3 11.2,13.3 C21.6,13.3 32.5,4.8 32.5,-4 C32.5,-9.9 27.5,-13.2 21.3,-13.2 C11.6,-13.2 0,-5 0,4.2"/>
<path class="Note" transform="matrix(0.992,0,0,0.992,847.173,397.581)" d="M0,4.2 C0,8.5 3.1,13.3 11.2,13.3 C21.6,13.3 32.5,4.8 32.5,-4 C32.5,-9.9 27.5,-13.2 21.3,-13.2 C11.6,-13.2 0,-5 0,4.2"/>
<path class="Note" transform="matrix(0.992,0,0,0.992,1245.86,397.581)" d="M0,4.2 C0,8.5 3.1,13.3 11.2,13.3 C21.6,13.3 32.5,4.8 32.5,-4 C32.5,-9.9 27.5,-13.2 21.3,-13.2 C11.6,-13.2 0,-5 0,4.2"/>
<path class="Note" transform="matrix(0.992,0,0,0.992,1760.99,397.581)" d="M0,4.2 C0,8.5 3.1,13.3 11.2,13.3 C21.6,13.3 32.5,4.8 32.5,-4 C32.5,-9.9 27.5,-13.2 21.3,-13.2 C11.6,-13.2 0,-5 0,4.2"/>
<path class="Note" transform="matrix(0.992,0,0,0.992,1166.12,397.581)" d="M0,4.2 C0,8.5 3.1,13.3 11.2,13.3 C21.6,13.3 32.5,4.8 32.5,-4 C32.5,-9.9 27.5,-13.2 21.3,-13.2 C11.6,-13.2 0,-5 0,4.2"/>
<path class="Note" transform="matrix(0.992,0,0,0.992,926.91,397.581)" d="M0,4.2 C0,8.5 3.1,13.3 11.2,13.3 C21.6,13.3 32.5,4.8 32.5,-4 C32.5,-9.9 27.5,-13.2 21.3,-13.2 C11.6,-13.2 0,-5 0,4.2"/>
<path class="Note" transform="matrix(0.992,0,0,0.992,2478.62,397.581)" d="M0,4.2 C0,8.5 3.1,13.3 11.2,13.3 C21.6,13.3 32.5,4.8 32.5,-4 C32.5,-9.9 27.5,-13.2 21.3,-13.2 C11.6,-13.2 0,-5 0,4.2"/>
<path class="Note" transform="matrix(0.992,0,0,0.992,2000.2,397.581)" d="M0,4.2 C0,8.5 3.1,13.3 11.2,13.3 C21.6,13.3 32.5,4.8 32.5,-4 C32.5,-9.9 27.5,-13.2 21.3,-13.2 C11.6,-13.2 0,-5 0,4.2"/>
<path class="Note" transform="matrix(0.992,0,0,0.992,1086.38,397.581)" d="M0,4.2 C0,8.5 3.1,13.3 11.2,13.3 C21.6,13.3 32.5,4.8 32.5,-4 C32.5,-9.9 27.5,-13.2 21.3,-13.2 C11.6,-13.2 0,-5 0,4.2"/>
<path class="Note" transform="matrix(0.992,0,0,0.992,1006.65,397.581)" d="M0,4.2 C0,8.5 3.1,13.3 11.2,13.3 C21.6,13.3 32.5,4.8 32.5,-4 C32.5,-9.9 27.5,-13.2 21.3,-13.2 C11.6,-13.2 0,-5 0,4.2"/>
<path class="Note" transform="matrix(0.992,0,0,0.992,1840.72,397.581)" d="M0,4.2 C0,8.5 3.1,13.3 11.2,13.3 C21.6,13.3 32.5,4.8 32.5,-4 C32.5,-9.9 27.5,-13.2 21.3,-13.2 C11.6,-13.2 0,-5 0,4.2"/>
<path class="Note" transform="matrix(0.992,0,0,0.992,2638.09,397.581)" d="M0,4.2 C0,8.5 3.1,13.3 11.2,13.3 C21.6,13.3 32.5,4.8 32.5,-4 C32.5,-9.9 27.5,-13.2 21.3,-13.2 C11.6,-13.2 0,-5 0,4.2"/>
<path class="Note" transform="matrix(0.992,0,0,0.992,1920.46,397.581)" d="M0,4.2 C0,8.5 3.1,13.3 11.2,13.3 C21.6,13.3 32.5,4.8 32.5,-4 C32.5,-9.9 27.5,-13.2 21.3,-13.2 C11.6,-13.2 0,-5 0,4.2"/>
<path class="Note" transform="matrix(0.992,0,0,0.992,1485.07,592.68)" d="M0,4.2 C0,8.5 3.1,13.3 11.2,13.3 C21.6,13.3 32.5,4.8 32.5,-4 C32.5,-9.9 27.5,-13.2 21.3,-13.2 C11.6,-13.2 0,-5 0,4.2"/>
<path class="Note" transform="matrix(0.992,0,0,0.992,1880.59,592.68)" d="M0,4.2 C0,8.5 3.1,13.3 11.2,13.3 C21.6,13.3 32.5,4.8 32.5,-4 C32.5,-9.9 27.5,-13.2 21.3,-13.2 C11.6,-13.2 0,-5 0,4.2"/>
<path class="Note" transform="matrix(0.992,0,0,0.992,1006.65,592.68)" d="M0,4.2 C0,8.5 3.1,13.3 11.2,13.3 C21.6,13.3 32.5,4.8 32.5,-4 C32.5,-9.9 27.5,-13.2 21.3,-13.2 C11.6,-13.2 0,-5 0,4.2"/>
<path class="Note" transform="matrix(0.992,0,0,0.992,1760.99,592.68)" d="M0,4.2 C0,8.5 3.1,13.3 11.2,13.3 C21.6,13.3 32.5,4.8 32.5,-4 C32.5,-9.9 27.5,-13.2 21.3,-13.2 C11.6,-13.2 0,-5 0,4.2"/>
<path class="Note" transform="matrix(0.992,0,0,0.992,1126.25,592.68)" d="M0,4.2 C0,8.5 3.1,13.3 11.2,13.3 C21.6,13.3 32.5,4.8 32.5,-4 C32.5,-9.9 27.5,-13.2 21.3,-13.2 C11.6,-13.2 0,-5 0,4.2"/>
<path class="Note" transform="matrix(0.992,0,0,0.992,2478.62,592.68)" d="M0,4.2 C0,8.5 3.1,13.3 11.2,13.3 C21.6,13.3 32.5,4.8 32.5,-4 C32.5,-9.9 27.5,-13.2 21.3,-13.2 C11.6,-13.2 0,-5 0,4.2"/>
<path class="Note" transform="matrix(0.992,0,0,0.992,887.041,592.68)" d="M0,4.2 C0,8.5 3.1,13.3 11.2,13.3 C21.6,13.3 32.5,4.8 32.5,-4 C32.5,-9.9 27.5,-13.2 21.3,-13.2 C11.6,-13.2 0,-5 0,4.2"/>
<path class="Note" transform="matrix(0.992,0,0,0.992,2000.2,592.68)" d="M0,4.2 C0,8.5 3.1,13.3 11.2,13.3 C21.6,13.3 32.5,4.8 32.5,-4 C32.5,-9.9 27.5,-13.2 21.3,-13.2 C11.6,-13.2 0,-5 0,4.2"/>
<path class="Note" transform="matrix(0.992,0,0,0.992,1245.86,592.68)" d="M0,4.2 C0,8.5 3.1,13.3 11.2,13.3 C21.6,13.3 32.5,4.8 32.5,-4 C32.5,-9.9 27.5,-13.2 21.3,-13.2 C11.6,-13.2 0,-5 0,4.2"/>
<path class="Note" transform="matrix(0.992,0,0,0.992,2119.8,592.68)" d="M0,4.2 C0,8.5 3.1,13.3 11.2,13.3 C21.6,13.3 32.5,4.8 32.5,-4 C32.5,-9.9 27.5,-13.2 21.3,-13.2 C11.6,-13.2 0,-5 0,4.2"/>
<path class="Note" transform="matrix(0.992,0,0,0.992,2598.22,592.68)" d="M0,4.2 C0,8.5 3.1,13.3 11.2,13.3 C21.6,13.3 32.5,4.8 32.5,-4 C32.5,-9.9 27.5,-13.2 21.3,-13.2 C11.6,-13.2 0,-5 0,4.2"/>
<path class="Note" transform="matrix(0.992,0,0,0.992,1604.68,592.68)" d="M0,4.2 C0,8.5 3.1,13.3 11.2,13.3 C21.6,13.3 32.5,4.8 32.5,-4 C32.5,-9.9 27.5,-13.2 21.3,-13.2 C11.6,-13.2 0,-5 0,4.2"/>
<path class="Note" transform="matrix(0.992,0,0,0.992,767.436,592.68)" d="M0,4.2 C0,8.5 3.1,13.3 11.2,13.3 C21.6,13.3 32.5,4.8 32.5,-4 C32.5,-9.9 27.5,-13.2 21.3,-13.2 C11.6,-13.2 0,-5 0,4.2"/>
<path class="Note" transform="matrix(0.992,0,0,0.992,2239.41,592.68)" d="M0,4.2 C0,8.5 3.1,13.3 11.2,13.3 C21.6,13.3 32.5,4.8 32.5,-4 C32.5,-9.9 27.5,-13.2 21.3,-13.2 C11.6,-13.2 0,-5 0,4.2"/>
<path class="Note" transform="matrix(0.992,0,0,0.992,2359.01,592.68)" d="M0,4.2 C0,8.5 3.1,13.3 11.2,13.3 C21.6,13.3 32.5,4.8 32.5,-4 C32.5,-9.9 27.5,-13.2 21.3,-13.2 C11.6,-13.2 0,-5 0,4.2"/>
<path class="Note" transform="matrix(0.992,0,0,0.992,1365.46,592.68)" d="M0,4.2 C0,8.5 3.1,13.3 11.2,13.3 C21.6,13.3 32.5,4.8 32.5,-4 C32.5,-9.9 27.5,-13.2 21.3,-13.2 C11.6,-13.2 0,-5 0,4.2"/>
<path class="Clef" transform="matrix(0.992,0,0,0.992,549.056,397.581)" d="M1.3,-25.2 C0.6,-25.2 0,-24.6 0,-23.9 L0,23.9 C0,24.6 0.6,25.2 1.3,25.2 L12.3,25.2 C13,25.2 13.6,24.6 13.6,23.9 L13.6,-23.9 C13.6,-24.6 13,-25.2 12.3,-25.2 L1.3,-25.2 M22.9,-25.2 C22.2,-25.2 21.6,-24.6 21.6,-23.9 L21.6,23.9 C21.6,24.6 22.2,25.2 22.9,25.2 L33.9,25.2 C34.6,25.2 35.2,24.6 35.2,23.9 L35.2,-23.9 C35.2,-24.6 34.6,-25.2 33.9,-25.2 L22.9,-25.2 "/>
<path class="Clef" transform="matrix(0.992,0,0,0.992,549.056,592.68)" d="M1.3,-25.2 C0.6,-25.2 0,-24.6 0,-23.9 L0,23.9 C0,24.6 0.6,25.2 1.3,25.2 L12.3,25.2 C13,25.2 13.6,24.6 13.6,23.9 L13.6,-23.9 C13.6,-24.6 13,-25.2 12.3,-25.2 L1.3,-25.2 M22.9,-25.2 C22.2,-25.2 21.6,-24.6 21.6,-23.9 L21.6,23.9 C21.6,24.6 22.2,25.2 22.9,25.2 L33.9,25.2 C34.6,25.2 35.2,24.6 35.2,23.9 L35.2,-23.9 C35.2,-24.6 34.6,-25.2 33.9,-25.2 L22.9,-25.2 "/>
<path class="TimeSig" transform="matrix(0.992,0,0,0.992,607.383,372.781)" d="M20.8,12.7 L20.8,20.1 L12.5,20.1 C11.8,20.1 11.1,20.7 11.1,21.5 L11.1,23.4 C11.1,24.2 11.8,24.8 12.5,24.8 L42.8,24.8 C43.6,24.8 44.2,24.2 44.2,23.4 L44.2,21.5 C44.2,20.7 43.6,20.1 42.8,20.1 L33.9,20.1 L33.9,12.7 L42.8,12.7 C43.6,12.7 44.2,12 44.2,11.2 L44.2,9.3 C44.2,8.6 43.6,7.9 42.8,7.9 L33.9,7.9 L33.9,-8 C33.9,-8.6 33.6,-9.1 33.1,-9.3 L31.9,-9.9 C31.7,-10 31.4,-10.1 31.2,-10.1 C30.9,-10 30.5,-9.9 30.3,-9.7 L21.2,-1.4 C20.9,-1.1 20.8,-0.7 20.8,-0.3 L20.8,7.9 L9.3,7.9 C9.3,7.9 20.4,-4.1 32.2,-19.9 C32.6,-20.4 32.7,-20.9 32.7,-21.3 C32.7,-21.8 32.5,-22.2 32.4,-22.3 L30.2,-24.5 C30,-24.7 29.6,-24.9 29.2,-24.9 C28.6,-24.9 15.1,-24.9 14.4,-24.9 C13.6,-24.9 13.1,-24.3 13,-23.7 C13,-23.7 12.5,-16.3 9.9,-8.2 C7.3,-0.1 4.3,4.9 1.7,8.6 C1.7,8.6 1.4,9.1 1.4,9.7 C1.4,9.9 1.4,10.1 1.5,10.3 C1.9,11 2.5,12.1 2.5,12.1 C2.5,12.1 2.7,12.7 3.6,12.7 L20.8,12.7 "/>
<path class="TimeSig" transform="matrix(0.992,0,0,0.992,607.383,422.381)" d="M20.8,12.7 L20.8,20.1 L12.5,20.1 C11.8,20.1 11.1,20.7 11.1,21.5 L11.1,23.4 C11.1,24.2 11.8,24.8 12.5,24.8 L42.8,24.8 C43.6,24.8 44.2,24.2 44.2,23.4 L44.2,21.5 C44.2,20.7 43.6,20.1 42.8,20.1 L33.9,20.1 L33.9,12.7 L42.8,12.7 C43.6,12.7 44.2,12 44.2,11.2 L44.2,9.3 C44.2,8.6 43.6,7.9 42.8,7.9 L33.9,7.9 L33.9,-8 C33.9,-8.6 33.6,-9.1 33.1,-9.3 L31.9,-9.9 C31.7,-10 31.4,-10.1 31.2,-10.1 C30.9,-10 30.5,-9.9 30.3,-9.7 L21.2,-1.4 C20.9,-1.1 20.8,-0.7 20.8,-0.3 L20.8,7.9 L9.3,7.9 C9.3,7.9 20.4,-4.1 32.2,-19.9 C32.6,-20.4 32.7,-20.9 32.7,-21.3 C32.7,-21.8 32.5,-22.2 32.4,-22.3 L30.2,-24.5 C30,-24.7 29.6,-24.9 29.2,-24.9 C28.6,-24.9 15.1,-24.9 14.4,-24.9 C13.6,-24.9 13.1,-24.3 13,-23.7 C13,-23.7 12.5,-16.3 9.9,-8.2 C7.3,-0.1 4.3,4.9 1.7,8.6 C1.7,8.6 1.4,9.1 1.4,9.7 C1.4,9.9 1.4,10.1 1.5,10.3 C1.9,11 2.5,12.1 2.5,12.1 C2.5,12.1 2.7,12.7 3.6,12.7 L20.8,12.7 "/>
<path class="TimeSig" transform="matrix(0.992,0,0,0.992,607.383,567.88)" d="M20.8,12.7 L20.8,20.1 L12.5,20.1 C11.8,20.1 11.1,20.7 11.1,21.5 L11.1,23.4 C11.1,24.2 11.8,24.8 12.5,24.8 L42.8,24.8 C43.6,24.8 44.2,24.2 44.2,23.4 L44.2,21.5 C44.2,20.7 43.6,20.1 42.8,20.1 L33.9,20.1 L33.9,12.7 L42.8,12.7 C43.6,12.7 44.2,12 44.2,11.2 L44.2,9.3 C44.2,8.6 43.6,7.9 42.8,7.9 L33.9,7.9 L33.9,-8 C33.9,-8.6 33.6,-9.1 33.1,-9.3 L31.9,-9.9 C31.7,-10 31.4,-10.1 31.2,-10.1 C30.9,-10 30.5,-9.9 30.3,-9.7 L21.2,-1.4 C20.9,-1.1 20.8,-0.7 20.8,-0.3 L20.8,7.9 L9.3,7.9 C9.3,7.9 20.4,-4.1 32.2,-19.9 C32.6,-20.4 32.7,-20.9 32.7,-21.3 C32.7,-21.8 32.5,-22.2 32.4,-22.3 L30.2,-24.5 C30,-24.7 29.6,-24.9 29.2,-24.9 C28.6,-24.9 15.1,-24.9 14.4,-24.9 C13.6,-24.9 13.1,-24.3 13,-23.7 C13,-23.7 12.5,-16.3 9.9,-8.2 C7.3,-0.1 4.3,4.9 1.7,8.6 C1.7,8.6 1.4,9.1 1.4,9.7 C1.4,9.9 1.4,10.1 1.5,10.3 C1.9,11 2.5,12.1 2.5,12.1 C2.5,12.1 2.7,12.7 3.6,12.7 L20.8,12.7 "/>
<path class="TimeSig" transform="matrix(0.992,0,0,0.992,607.383,617.48)" d="M20.8,12.7 L20.8,20.1 L12.5,20.1 C11.8,20.1 11.1,20.7 11.1,21.5 L11.1,23.4 C11.1,24.2 11.8,24.8 12.5,24.8 L42.8,24.8 C43.6,24.8 44.2,24.2 44.2,23.4 L44.2,21.5 C44.2,20.7 43.6,20.1 42.8,20.1 L33.9,20.1 L33.9,12.7 L42.8,12.7 C43.6,12.7 44.2,12 44.2,11.2 L44.2,9.3 C44.2,8.6 43.6,7.9 42.8,7.9 L33.9,7.9 L33.9,-8 C33.9,-8.6 33.6,-9.1 33.1,-9.3 L31.9,-9.9 C31.7,-10 31.4,-10.1 31.2,-10.1 C30.9,-10 30.5,-9.9 30.3,-9.7 L21.2,-1.4 C20.9,-1.1 20.8,-0.7 20.8,-0.3 L20.8,7.9 L9.3,7.9 C9.3,7.9 20.4,-4.1 32.2,-19.9 C32.6,-20.4 32.7,-20.9 32.7,-21.3 C32.7,-21.8 32.5,-22.2 32.4,-22.3 L30.2,-24.5 C30,-24.7 29.6,-24.9 29.2,-24.9 C28.6,-24.9 15.1,-24.9 14.4,-24.9 C13.6,-24.9 13.1,-24.3 13,-23.7 C13,-23.7 12.5,-16.3 9.9,-8.2 C7.3,-0.1 4.3,4.9 1.7,8.6 C1.7,8.6 1.4,9.1 1.4,9.7 C1.4,9.9 1.4,10.1 1.5,10.3 C1.9,11 2.5,12.1 2.5,12.1 C2.5,12.1 2.7,12.7 3.6,12.7 L20.8,12.7 "/>
<path class="Dynamic" d="M770.178,467.642 C772.95,457.445 773.742,455.663 775.227,454.475 C776.019,453.881 776.712,453.683 777.207,453.683 C777.405,453.683 777.603,453.782 777.702,453.782 C778.296,453.881 778.791,454.475 778.791,455.069 C778.791,455.564 778.593,456.059 778.197,456.257 C777.207,457.049 776.712,458.336 776.712,459.623 C776.712,460.118 776.811,460.613 776.91,461.108 C777.207,461.999 777.999,462.989 778.989,463.385 C779.385,463.583 779.979,463.682 780.573,463.682 C782.751,463.682 784.83,462.197 785.424,460.118 C785.622,459.524 785.721,458.831 785.721,458.237 C785.721,457.049 785.424,455.861 784.731,454.772 C783.345,452.099 779.385,450.911 776.514,450.911 C767.406,450.911 763.347,460.415 760.872,467.741 L760.773,467.939 L753.249,467.939 C752.655,467.939 752.259,468.335 752.259,468.929 L752.259,471.107 C752.259,471.701 752.655,472.097 753.249,472.097 L759.486,472.097 L759.387,472.493 C758.397,476.453 757.605,479.918 756.912,483.185 C756.12,486.848 755.229,490.709 754.041,495.263 L753.744,496.451 C751.665,504.569 750.972,507.44 748.596,509.024 C748.101,509.321 747.507,509.519 746.913,509.519 C746.418,509.519 746.022,509.42 745.626,509.123 C745.329,508.925 744.933,508.529 745.032,508.034 C745.131,507.638 745.428,507.242 745.923,507.044 C747.804,506.252 748.398,504.371 748.398,502.787 C748.398,501.401 747.408,498.827 743.844,498.827 C741.171,498.827 738.696,501.401 738.696,504.074 C738.696,509.321 742.26,512.093 746.814,512.093 C749.982,512.093 752.259,511.004 754.734,508.529 C759.09,504.173 763.842,489.323 766.317,480.908 C767.208,477.74 768.099,474.572 768.792,472.295 L768.792,472.097 L784.236,472.097 L784.137,472.493 C783.147,476.453 782.355,479.918 781.662,483.185 C780.87,486.848 779.979,490.709 778.791,495.263 L778.494,496.451 C776.415,504.569 775.722,507.44 773.346,509.024 C772.851,509.321 772.257,509.519 771.663,509.519 C771.168,509.519 770.772,509.42 770.376,509.123 C770.079,508.925 769.683,508.43 769.782,507.935 C769.881,507.539 770.178,507.242 770.673,507.044 C772.554,506.252 773.148,504.371 773.148,502.787 C773.148,501.401 772.158,498.827 768.594,498.827 C765.921,498.827 763.446,501.302 763.446,503.975 C763.446,509.222 767.01,512.093 771.564,512.093 C774.732,512.093 777.009,511.004 779.484,508.529 C783.84,504.173 788.592,489.323 791.067,480.908 C791.958,477.74 792.849,474.572 793.542,472.295 L793.542,472.097 L800.769,472.097 C801.363,472.097 801.759,471.701 801.759,471.107 L801.759,468.929 C801.759,468.335 801.363,467.939 800.769,467.939 L794.829,467.939 L794.928,467.642 C797.7,457.445 798.492,455.663 799.977,454.475 C800.769,453.881 801.462,453.683 801.957,453.683 C802.155,453.683 802.353,453.782 802.452,453.782 C803.046,453.881 803.541,454.475 803.541,455.069 C803.541,455.564 803.343,456.059 802.947,456.257 C801.957,457.049 801.462,458.336 801.462,459.623 C801.462,460.118 801.561,460.613 801.66,461.108 C801.957,461.999 802.749,462.989 803.739,463.385 C804.135,463.583 804.729,463.682 805.323,463.682 C807.501,463.682 809.58,462.197 810.174,460.118 C810.372,459.524 810.471,458.831 810.471,458.237 C810.471,457.049 810.174,455.861 809.481,454.772 C808.095,452.099 804.135,450.911 801.264,450.911 C792.156,450.911 788.097,460.415 785.622,467.741 L785.523,467.939 L770.079,467.939 L770.178,467.642 "/>
<path class="Dynamic" d="M2652.14,471.8 C2652.14,471.8 2651.24,468.434 2648.37,467.741 C2647.88,467.642 2647.38,467.543 2646.89,467.543 C2642.93,467.543 2640.65,471.899 2639.66,475.166 L2641.15,475.958 C2641.15,475.958 2642.83,470.612 2645.01,470.612 C2645.21,470.612 2645.3,470.612 2645.5,470.711 C2646,470.909 2646.2,471.503 2646.2,472.295 C2646.2,473.978 2645.3,476.849 2644.22,480.314 L2640.85,491.105 C2640.85,491.204 2640.85,491.303 2640.85,491.501 C2640.85,492.194 2641.05,492.689 2641.84,492.689 L2647.28,492.689 C2647.78,492.689 2648.18,492.59 2648.37,491.501 C2648.37,491.402 2648.47,491.105 2648.47,490.808 C2650.45,476.849 2653.62,472.691 2656.1,471.701 L2656.19,471.602 C2656.29,471.602 2656.39,471.602 2656.39,471.602 L2656.49,471.701 C2656.79,471.8 2656.89,471.998 2656.99,472.394 C2656.99,475.265 2655.3,480.314 2654.31,482.888 C2653.72,484.373 2653.42,485.858 2653.42,487.145 C2653.42,490.214 2655.01,492.788 2658.37,492.788 C2662.83,492.788 2664.61,489.125 2666,485.561 L2666,485.264 C2666.09,485.264 2666.09,485.165 2666.09,485.165 L2664.41,484.373 C2664.41,484.373 2663.32,487.046 2662.63,488.234 C2662.13,489.125 2661.64,489.323 2661.14,489.323 C2660.95,489.323 2660.85,489.323 2660.65,489.224 C2660.06,489.026 2659.86,488.63 2659.86,488.036 C2659.86,487.145 2660.25,485.957 2660.65,484.769 C2661.94,481.007 2662.93,477.245 2662.93,473.186 C2662.93,472.691 2662.93,472.196 2662.83,471.8 C2662.33,469.127 2661.14,467.84 2659.07,467.84 C2656.49,467.84 2653.72,469.622 2652.43,471.404 L2652.14,471.8 "/>
<path class="Dynamic" d="M2672.49,662.741 C2675.26,652.544 2676.05,650.762 2677.54,649.574 C2678.33,648.98 2679.02,648.782 2679.52,648.782 C2679.72,648.782 2679.91,648.881 2680.01,648.881 C2680.61,648.98 2681.1,649.574 2681.1,650.168 C2681.1,650.663 2680.9,651.158 2680.51,651.356 C2679.52,652.148 2679.02,653.435 2679.02,654.722 C2679.02,655.217 2679.12,655.712 2679.22,656.207 C2679.52,657.098 2680.31,658.088 2681.3,658.484 C2681.7,658.682 2682.29,658.781 2682.88,658.781 C2685.06,658.781 2687.14,657.296 2687.74,655.217 C2687.93,654.623 2688.03,653.93 2688.03,653.336 C2688.03,652.148 2687.74,650.96 2687.04,649.871 C2685.66,647.198 2681.7,646.01 2678.83,646.01 C2669.72,646.01 2665.66,655.514 2663.18,662.84 L2663.08,663.038 L2655.56,663.038 C2654.97,663.038 2654.57,663.434 2654.57,664.028 L2654.57,666.206 C2654.57,666.8 2654.97,667.196 2655.56,667.196 L2661.8,667.196 L2661.7,667.592 C2660.71,671.552 2659.92,675.017 2659.22,678.284 C2658.43,681.947 2657.54,685.808 2656.35,690.362 L2656.06,691.55 C2653.98,699.668 2653.28,702.539 2650.91,704.123 C2650.41,704.42 2649.82,704.618 2649.22,704.618 C2648.73,704.618 2648.33,704.519 2647.94,704.222 C2647.64,704.024 2647.24,703.628 2647.34,703.133 C2647.44,702.737 2647.74,702.341 2648.23,702.143 C2650.12,701.351 2650.71,699.47 2650.71,697.886 C2650.71,696.5 2649.72,693.926 2646.16,693.926 C2643.48,693.926 2641.01,696.5 2641.01,699.173 C2641.01,704.42 2644.57,707.192 2649.13,707.192 C2652.29,707.192 2654.57,706.103 2657.05,703.628 C2661.4,699.272 2666.15,684.422 2668.63,676.007 C2669.52,672.839 2670.41,669.671 2671.1,667.394 L2671.1,667.196 L2686.55,667.196 L2686.45,667.592 C2685.46,671.552 2684.67,675.017 2683.97,678.284 C2683.18,681.947 2682.29,685.808 2681.1,690.362 L2680.81,691.55 C2678.73,699.668 2678.03,702.539 2675.66,704.123 C2675.16,704.42 2674.57,704.618 2673.97,704.618 C2673.48,704.618 2673.08,704.519 2672.69,704.222 C2672.39,704.024 2671.99,703.529 2672.09,703.034 C2672.19,702.638 2672.49,702.341 2672.98,702.143 C2674.87,701.351 2675.46,699.47 2675.46,697.886 C2675.46,696.5 2674.47,693.926 2670.91,693.926 C2668.23,693.926 2665.76,696.401 2665.76,699.074 C2665.76,704.321 2669.32,707.192 2673.88,707.192 C2677.04,707.192 2679.32,706.103 2681.8,703.628 C2686.15,699.272 2690.9,684.422 2693.38,676.007 C2694.27,672.839 2695.16,669.671 2695.85,667.394 L2695.85,667.196 L2703.08,667.196 C2703.67,667.196 2704.07,666.8 2704.07,666.206 L2704.07,664.028 C2704.07,663.434 2703.67,663.038 2703.08,663.038 L2697.14,663.038 L2697.24,662.741 C2700.01,652.544 2700.8,650.762 2702.29,649.574 C2703.08,648.98 2703.77,648.782 2704.27,648.782 C2704.47,648.782 2704.66,648.881 2704.76,648.881 C2705.36,648.98 2705.85,649.574 2705.85,650.168 C2705.85,650.663 2705.65,651.158 2705.26,651.356 C2704.27,652.148 2703.77,653.435 2703.77,654.722 C2703.77,655.217 2703.87,655.712 2703.97,656.207 C2704.27,657.098 2705.06,658.088 2706.05,658.484 C2706.45,658.682 2707.04,658.781 2707.63,658.781 C2709.81,658.781 2711.89,657.296 2712.49,655.217 C2712.68,654.623 2712.78,653.93 2712.78,653.336 C2712.78,652.148 2712.49,650.96 2711.79,649.871 C2710.41,647.198 2706.45,646.01 2703.58,646.01 C2694.47,646.01 2690.41,655.514 2687.93,662.84 L2687.83,663.038 L2672.39,663.038 L2672.49,662.741 "/>
<path class="Dynamic" d="M781.478,666.899 C781.478,666.899 780.587,663.533 777.716,662.84 C777.221,662.741 776.726,662.642 776.231,662.642 C772.271,662.642 769.994,666.998 769.004,670.265 L770.489,671.057 C770.489,671.057 772.172,665.711 774.35,665.711 C774.548,665.711 774.647,665.711 774.845,665.81 C775.34,666.008 775.538,666.602 775.538,667.394 C775.538,669.077 774.647,671.948 773.558,675.413 L770.192,686.204 C770.192,686.303 770.192,686.402 770.192,686.6 C770.192,687.293 770.39,687.788 771.182,687.788 L776.627,687.788 C777.122,687.788 777.518,687.689 777.716,686.6 C777.716,686.501 777.815,686.204 777.815,685.907 C779.795,671.948 782.963,667.79 785.438,666.8 L785.537,666.701 C785.636,666.701 785.735,666.701 785.735,666.701 L785.834,666.8 C786.131,666.899 786.23,667.097 786.329,667.493 C786.329,670.364 784.646,675.413 783.656,677.987 C783.062,679.472 782.765,680.957 782.765,682.244 C782.765,685.313 784.349,687.887 787.715,687.887 C792.17,687.887 793.952,684.224 795.338,680.66 L795.338,680.363 C795.437,680.363 795.437,680.264 795.437,680.264 L793.754,679.472 C793.754,679.472 792.665,682.145 791.972,683.333 C791.477,684.224 790.982,684.422 790.487,684.422 C790.289,684.422 790.19,684.422 789.992,684.323 C789.398,684.125 789.2,683.729 789.2,683.135 C789.2,682.244 789.596,681.056 789.992,679.868 C791.279,676.106 792.269,672.344 792.269,668.285 C792.269,667.79 792.269,667.295 792.17,666.899 C791.675,664.226 790.487,662.939 788.408,662.939 C785.834,662.939 783.062,664.721 781.775,666.503 L781.478,666.899 "/>
<path class="Beam" fill-rule="evenodd" d="M1790.74,329.381 L1952.69,329.381 L1952.69,341.781 L1790.74,341.781 L1790.74,329.381 "/>
<path class="Beam" fill-rule="evenodd" d="M2269.16,329.381 L2431.11,329.381 L2431.11,341.781 L2269.16,341.781 L2269.16,329.381 "/>
<path class="Beam" fill-rule="evenodd" d="M2029.95,329.381 L2191.9,329.381 L2191.9,341.781 L2029.95,341.781 L2029.95,329.381 "/>
<path class="Beam" fill-rule="evenodd" d="M2508.37,329.381 L2670.33,329.381 L2670.33,341.781 L2508.37,341.781 L2508.37,329.381 "/>
<path class="Beam" fill-rule="evenodd" d="M1514.82,329.381 L1676.78,329.381 L1676.78,341.781 L1514.82,341.781 L1514.82,329.381 "/>
<path class="Beam" fill-rule="evenodd" d="M1275.61,329.381 L1437.56,329.381 L1437.56,341.781 L1275.61,341.781 L1275.61,329.381 "/>
<path class="Beam" fill-rule="evenodd" d="M1036.4,329.381 L1198.35,329.381 L1198.35,341.781 L1036.4,341.781 L1036.4,329.381 "/>
<path class="Beam" fill-rule="evenodd" d="M797.188,329.381 L959.142,329.381 L959.142,341.781 L797.188,341.781 L797.188,329.381 "/>
<path class="Beam" fill-rule="evenodd" d="M1790.74,524.48 L2152.03,524.48 L2152.03,536.88 L1790.74,536.88 L1790.74,524.48 "/>
<path class="Beam" fill-rule="evenodd" d="M2269.16,524.48 L2630.46,524.48 L2630.46,536.88 L2269.16,536.88 L2269.16,524.48 "/>
<path class="Beam" fill-rule="evenodd" d="M1275.61,524.48 L1636.91,524.48 L1636.91,536.88 L1275.61,536.88 L1275.61,524.48 "/>
<path class="Beam" fill-rule="evenodd" d="M797.188,524.48 L1158.48,524.48 L1158.48,536.88 L797.188,536.88 L797.188,524.48 "/>
<path class="Tuplet" d="M2352.85,297.501 C2354.97,296.826 2355.82,296.466 2356.9,295.746 C2359.02,294.351 2360.32,291.876 2360.32,289.356 C2360.32,285.081 2356.9,282.201 2351.86,282.201 C2346.96,282.201 2342.82,285.261 2342.82,288.951 C2342.82,290.796 2343.94,292.056 2345.65,292.056 C2347.14,292.056 2348.22,290.976 2348.22,289.491 C2348.22,288.726 2347.99,288.186 2347.27,287.466 C2346.82,287.061 2346.64,286.746 2346.64,286.431 C2346.64,285.351 2348.89,284.226 2351.01,284.226 C2354.02,284.226 2355.82,285.891 2355.82,288.681 C2355.82,292.686 2352.99,296.466 2349.97,296.466 C2349.84,296.466 2349.43,296.421 2348.94,296.376 C2347.63,296.286 2347.63,296.286 2347.36,296.286 C2346.37,296.286 2345.83,296.736 2345.83,297.546 C2345.83,298.266 2346.33,298.716 2347.14,298.716 C2347.36,298.716 2347.68,298.671 2348.04,298.626 C2348.67,298.491 2349.34,298.446 2349.75,298.446 C2351.86,298.446 2353.3,300.336 2353.3,303.126 C2353.3,307.986 2350.92,312.666 2345.47,312.666 C2342.95,312.666 2340.79,311.406 2340.79,309.966 C2340.79,309.471 2340.97,309.291 2341.69,308.976 C2343,308.391 2343.54,307.581 2343.54,306.366 C2343.54,304.791 2342.28,303.576 2340.66,303.576 C2338.72,303.576 2337.46,305.106 2337.46,307.446 C2337.46,311.811 2340.79,314.556 2346.19,314.556 C2352.99,314.556 2358.16,310.011 2358.16,303.981 C2358.16,300.471 2356,298.491 2352.85,297.501"/>
<path class="Tuplet" d="M2113.64,297.501 C2115.76,296.826 2116.61,296.466 2117.69,295.746 C2119.81,294.351 2121.11,291.876 2121.11,289.356 C2121.11,285.081 2117.69,282.201 2112.65,282.201 C2107.75,282.201 2103.61,285.261 2103.61,288.951 C2103.61,290.796 2104.73,292.056 2106.44,292.056 C2107.93,292.056 2109.01,290.976 2109.01,289.491 C2109.01,288.726 2108.78,288.186 2108.06,287.466 C2107.61,287.061 2107.43,286.746 2107.43,286.431 C2107.43,285.351 2109.68,284.226 2111.8,284.226 C2114.81,284.226 2116.61,285.891 2116.61,288.681 C2116.61,292.686 2113.78,296.466 2110.76,296.466 C2110.63,296.466 2110.22,296.421 2109.73,296.376 C2108.42,296.286 2108.42,296.286 2108.15,296.286 C2107.16,296.286 2106.62,296.736 2106.62,297.546 C2106.62,298.266 2107.12,298.716 2107.93,298.716 C2108.15,298.716 2108.47,298.671 2108.83,298.626 C2109.46,298.491 2110.13,298.446 2110.54,298.446 C2112.65,298.446 2114.09,300.336 2114.09,303.126 C2114.09,307.986 2111.71,312.666 2106.26,312.666 C2103.74,312.666 2101.58,311.406 2101.58,309.966 C2101.58,309.471 2101.76,309.291 2102.48,308.976 C2103.79,308.391 2104.33,307.581 2104.33,306.366 C2104.33,304.791 2103.07,303.576 2101.45,303.576 C2099.51,303.576 2098.25,305.106 2098.25,307.446 C2098.25,311.811 2101.58,314.556 2106.98,314.556 C2113.78,314.556 2118.95,310.011 2118.95,303.981 C2118.95,300.471 2116.79,298.491 2113.64,297.501"/>
<path class="Tuplet" d="M2592.06,297.501 C2594.18,296.826 2595.03,296.466 2596.11,295.746 C2598.23,294.351 2599.53,291.876 2599.53,289.356 C2599.53,285.081 2596.11,282.201 2591.07,282.201 C2586.17,282.201 2582.03,285.261 2582.03,288.951 C2582.03,290.796 2583.15,292.056 2584.86,292.056 C2586.35,292.056 2587.43,290.976 2587.43,289.491 C2587.43,288.726 2587.2,288.186 2586.48,287.466 C2586.03,287.061 2585.85,286.746 2585.85,286.431 C2585.85,285.351 2588.1,284.226 2590.22,284.226 C2593.23,284.226 2595.03,285.891 2595.03,288.681 C2595.03,292.686 2592.2,296.466 2589.18,296.466 C2589.05,296.466 2588.64,296.421 2588.15,296.376 C2586.84,296.286 2586.84,296.286 2586.57,296.286 C2585.58,296.286 2585.04,296.736 2585.04,297.546 C2585.04,298.266 2585.54,298.716 2586.35,298.716 C2586.57,298.716 2586.89,298.671 2587.25,298.626 C2587.88,298.491 2588.55,298.446 2588.96,298.446 C2591.07,298.446 2592.51,300.336 2592.51,303.126 C2592.51,307.986 2590.13,312.666 2584.68,312.666 C2582.16,312.666 2580,311.406 2580,309.966 C2580,309.471 2580.18,309.291 2580.9,308.976 C2582.21,308.391 2582.75,307.581 2582.75,306.366 C2582.75,304.791 2581.49,303.576 2579.87,303.576 C2577.93,303.576 2576.67,305.106 2576.67,307.446 C2576.67,311.811 2580,314.556 2585.4,314.556 C2592.2,314.556 2597.37,310.011 2597.37,303.981 C2597.37,300.471 2595.21,298.491 2592.06,297.501"/>
<path class="Tuplet" d="M1874.43,297.501 C1876.55,296.826 1877.4,296.466 1878.48,295.746 C1880.6,294.351 1881.9,291.876 1881.9,289.356 C1881.9,285.081 1878.48,282.201 1873.44,282.201 C1868.54,282.201 1864.4,285.261 1864.4,288.951 C1864.4,290.796 1865.52,292.056 1867.23,292.056 C1868.72,292.056 1869.8,290.976 1869.8,289.491 C1869.8,288.726 1869.57,288.186 1868.85,287.466 C1868.4,287.061 1868.22,286.746 1868.22,286.431 C1868.22,285.351 1870.47,284.226 1872.59,284.226 C1875.6,284.226 1877.4,285.891 1877.4,288.681 C1877.4,292.686 1874.57,296.466 1871.55,296.466 C1871.42,296.466 1871.01,296.421 1870.52,296.376 C1869.21,296.286 1869.21,296.286 1868.94,296.286 C1867.95,296.286 1867.41,296.736 1867.41,297.546 C1867.41,298.266 1867.91,298.716 1868.72,298.716 C1868.94,298.716 1869.26,298.671 1869.62,298.626 C1870.25,298.491 1870.92,298.446 1871.33,298.446 C1873.44,298.446 1874.88,300.336 1874.88,303.126 C1874.88,307.986 1872.5,312.666 1867.05,312.666 C1864.53,312.666 1862.37,311.406 1862.37,309.966 C1862.37,309.471 1862.55,309.291 1863.27,308.976 C1864.58,308.391 1865.12,307.581 1865.12,306.366 C1865.12,304.791 1863.86,303.576 1862.24,303.576 C1860.3,303.576 1859.04,305.106 1859.04,307.446 C1859.04,311.811 1862.37,314.556 1867.77,314.556 C1874.57,314.556 1879.74,310.011 1879.74,303.981 C1879.74,300.471 1877.58,298.491 1874.43,297.501"/>
<path class="Tuplet" d="M1598.52,297.501 C1600.63,296.826 1601.49,296.466 1602.57,295.746 C1604.68,294.351 1605.99,291.876 1605.99,289.356 C1605.99,285.081 1602.57,282.201 1597.53,282.201 C1592.62,282.201 1588.48,285.261 1588.48,288.951 C1588.48,290.796 1589.61,292.056 1591.32,292.056 C1592.8,292.056 1593.88,290.976 1593.88,289.491 C1593.88,288.726 1593.66,288.186 1592.94,287.466 C1592.49,287.061 1592.31,286.746 1592.31,286.431 C1592.31,285.351 1594.56,284.226 1596.67,284.226 C1599.69,284.226 1601.49,285.891 1601.49,288.681 C1601.49,292.686 1598.65,296.466 1595.64,296.466 C1595.5,296.466 1595.1,296.421 1594.6,296.376 C1593.3,296.286 1593.3,296.286 1593.03,296.286 C1592.04,296.286 1591.5,296.736 1591.5,297.546 C1591.5,298.266 1591.99,298.716 1592.8,298.716 C1593.03,298.716 1593.34,298.671 1593.7,298.626 C1594.33,298.491 1595.01,298.446 1595.41,298.446 C1597.53,298.446 1598.97,300.336 1598.97,303.126 C1598.97,307.986 1596.58,312.666 1591.14,312.666 C1588.62,312.666 1586.46,311.406 1586.46,309.966 C1586.46,309.471 1586.64,309.291 1587.36,308.976 C1588.66,308.391 1589.2,307.581 1589.2,306.366 C1589.2,304.791 1587.94,303.576 1586.32,303.576 C1584.39,303.576 1583.13,305.106 1583.13,307.446 C1583.13,311.811 1586.46,314.556 1591.86,314.556 C1598.65,314.556 1603.83,310.011 1603.83,303.981 C1603.83,300.471 1601.67,298.491 1598.52,297.501"/>
<path class="Tuplet" d="M1359.3,297.501 C1361.42,296.826 1362.27,296.466 1363.35,295.746 C1365.47,294.351 1366.77,291.876 1366.77,289.356 C1366.77,285.081 1363.35,282.201 1358.31,282.201 C1353.41,282.201 1349.27,285.261 1349.27,288.951 C1349.27,290.796 1350.39,292.056 1352.1,292.056 C1353.59,292.056 1354.67,290.976 1354.67,289.491 C1354.67,288.726 1354.44,288.186 1353.72,287.466 C1353.27,287.061 1353.09,286.746 1353.09,286.431 C1353.09,285.351 1355.34,284.226 1357.46,284.226 C1360.47,284.226 1362.27,285.891 1362.27,288.681 C1362.27,292.686 1359.44,296.466 1356.42,296.466 C1356.29,296.466 1355.88,296.421 1355.39,296.376 C1354.08,296.286 1354.08,296.286 1353.81,296.286 C1352.82,296.286 1352.28,296.736 1352.28,297.546 C1352.28,298.266 1352.78,298.716 1353.59,298.716 C1353.81,298.716 1354.13,298.671 1354.49,298.626 C1355.12,298.491 1355.79,298.446 1356.2,298.446 C1358.31,298.446 1359.75,300.336 1359.75,303.126 C1359.75,307.986 1357.37,312.666 1351.92,312.666 C1349.4,312.666 1347.24,311.406 1347.24,309.966 C1347.24,309.471 1347.42,309.291 1348.14,308.976 C1349.45,308.391 1349.99,307.581 1349.99,306.366 C1349.99,304.791 1348.73,303.576 1347.11,303.576 C1345.17,303.576 1343.91,305.106 1343.91,307.446 C1343.91,311.811 1347.24,314.556 1352.64,314.556 C1359.44,314.556 1364.61,310.011 1364.61,303.981 C1364.61,300.471 1362.45,298.491 1359.3,297.501"/>
<path class="Tuplet" d="M1120.09,297.501 C1122.21,296.826 1123.06,296.466 1124.14,295.746 C1126.26,294.351 1127.56,291.876 1127.56,289.356 C1127.56,285.081 1124.14,282.201 1119.1,282.201 C1114.2,282.201 1110.06,285.261 1110.06,288.951 C1110.06,290.796 1111.18,292.056 1112.89,292.056 C1114.38,292.056 1115.46,290.976 1115.46,289.491 C1115.46,288.726 1115.23,288.186 1114.51,287.466 C1114.06,287.061 1113.88,286.746 1113.88,286.431 C1113.88,285.351 1116.13,284.226 1118.25,284.226 C1121.26,284.226 1123.06,285.891 1123.06,288.681 C1123.06,292.686 1120.23,296.466 1117.21,296.466 C1117.08,296.466 1116.67,296.421 1116.18,296.376 C1114.87,296.286 1114.87,296.286 1114.6,296.286 C1113.61,296.286 1113.07,296.736 1113.07,297.546 C1113.07,298.266 1113.57,298.716 1114.38,298.716 C1114.6,298.716 1114.92,298.671 1115.28,298.626 C1115.91,298.491 1116.58,298.446 1116.99,298.446 C1119.1,298.446 1120.54,300.336 1120.54,303.126 C1120.54,307.986 1118.16,312.666 1112.71,312.666 C1110.19,312.666 1108.03,311.406 1108.03,309.966 C1108.03,309.471 1108.21,309.291 1108.93,308.976 C1110.24,308.391 1110.78,307.581 1110.78,306.366 C1110.78,304.791 1109.52,303.576 1107.9,303.576 C1105.96,303.576 1104.7,305.106 1104.7,307.446 C1104.7,311.811 1108.03,314.556 1113.43,314.556 C1120.23,314.556 1125.4,310.011 1125.4,303.981 C1125.4,300.471 1123.24,298.491 1120.09,297.501"/>
<path class="Tuplet" d="M880.881,297.501 C882.996,296.826 883.851,296.466 884.931,295.746 C887.046,294.351 888.351,291.876 888.351,289.356 C888.351,285.081 884.931,282.201 879.891,282.201 C874.986,282.201 870.846,285.261 870.846,288.951 C870.846,290.796 871.971,292.056 873.681,292.056 C875.166,292.056 876.246,290.976 876.246,289.491 C876.246,288.726 876.021,288.186 875.301,287.466 C874.851,287.061 874.671,286.746 874.671,286.431 C874.671,285.351 876.921,284.226 879.036,284.226 C882.051,284.226 883.851,285.891 883.851,288.681 C883.851,292.686 881.016,296.466 878.001,296.466 C877.866,296.466 877.461,296.421 876.966,296.376 C875.661,296.286 875.661,296.286 875.391,296.286 C874.401,296.286 873.861,296.736 873.861,297.546 C873.861,298.266 874.356,298.716 875.166,298.716 C875.391,298.716 875.706,298.671 876.066,298.626 C876.696,298.491 877.371,298.446 877.776,298.446 C879.891,298.446 881.331,300.336 881.331,303.126 C881.331,307.986 878.946,312.666 873.501,312.666 C870.981,312.666 868.821,311.406 868.821,309.966 C868.821,309.471 869.001,309.291 869.721,308.976 C871.026,308.391 871.566,307.581 871.566,306.366 C871.566,304.791 870.306,303.576 868.686,303.576 C866.751,303.576 865.491,305.106 865.491,307.446 C865.491,311.811 868.821,314.556 874.221,314.556 C881.016,314.556 886.191,310.011 886.191,303.981 C886.191,300.471 884.031,298.491 880.881,297.501"/>
<path class="Tempo" d="M2663.34,214.975 L2660.07,214.975 L2660.07,257.248 C2658.98,256.555 2657.6,256.159 2656.01,255.961 C2652.45,255.961 2649.58,256.357 2646.41,258.139 C2642.45,260.218 2638.09,264.574 2638.09,269.425 C2638.09,274.177 2642.35,276.454 2646.71,276.454 C2653.64,276.454 2663.34,270.514 2663.34,262.99 L2663.34,214.975 "/>
<path class="Tempo" d="M2685.59,252.931 L2715.83,252.931 L2715.83,246.031 L2685.59,246.031 L2685.59,252.931 M2685.59,265.291 L2715.83,265.291 L2715.83,258.391 L2685.59,258.391 L2685.59,265.291 M2758.25,251.071 C2758.25,256.771 2758.01,268.531 2749.97,268.531 C2748.71,268.531 2747.99,268.111 2747.99,267.331 C2747.99,266.971 2748.11,266.611 2748.35,266.251 C2749.43,264.511 2749.55,264.151 2749.55,262.831 C2749.55,259.951 2747.51,257.971 2744.51,257.971 C2741.21,257.971 2738.81,260.491 2738.81,263.971 C2738.81,268.651 2743.19,271.651 2749.97,271.651 C2763.59,271.651 2768.81,259.531 2768.81,247.651 C2768.81,242.131 2767.61,238.051 2765.09,234.631 C2762.03,230.551 2757.65,228.331 2752.61,228.331 C2743.91,228.331 2737.61,234.391 2737.61,242.731 C2737.61,249.811 2742.65,255.031 2749.49,255.031 C2753.21,255.031 2755.73,253.891 2758.25,251.071 M2753.09,231.451 C2757.47,231.451 2758.01,238.831 2758.01,241.891 C2758.01,247.171 2756.09,250.531 2753.03,250.531 C2748.29,250.531 2747.99,244.771 2747.99,241.351 C2747.99,234.811 2749.73,231.451 2753.09,231.451 M2787.77,228.331 C2778.77,228.331 2772.17,237.511 2772.17,249.991 C2772.17,262.471 2778.77,271.651 2787.77,271.651 C2796.59,271.651 2803.31,262.471 2803.31,250.291 C2803.31,243.211 2801.69,237.991 2798.15,233.551 C2795.33,230.131 2791.79,228.331 2787.77,228.331 M2787.71,231.451 C2789.51,231.451 2790.95,232.531 2791.61,234.451 C2792.39,236.431 2792.87,242.731 2792.87,250.171 C2792.87,256.351 2792.39,262.831 2791.85,264.871 C2791.19,267.271 2789.75,268.531 2787.71,268.531 C2785.85,268.531 2784.47,267.511 2783.75,265.531 C2782.97,263.551 2782.49,257.191 2782.49,249.991 C2782.49,243.691 2782.97,237.151 2783.51,235.111 C2784.17,232.711 2785.61,231.451 2787.71,231.451"/>
<path class="Tempo" d="M608.787,212.591 L605.52,212.591 L605.52,254.864 C604.431,254.171 603.045,253.775 601.461,253.577 C597.897,253.577 595.026,253.973 591.858,255.755 C587.898,257.834 583.542,262.19 583.542,267.041 C583.542,271.793 587.799,274.07 592.155,274.07 C599.085,274.07 608.787,268.13 608.787,260.606 L608.787,212.591 "/>
<path class="Tempo" d="M631.039,250.547 L661.279,250.547 L661.279,243.647 L631.039,243.647 L631.039,250.547 M631.039,262.907 L661.279,262.907 L661.279,256.007 L631.039,256.007 L631.039,262.907 M693.677,246.767 C693.677,241.787 694.757,229.067 701.597,229.067 C703.097,229.067 704.177,229.607 704.177,230.447 C704.177,230.867 704.117,231.047 703.697,231.587 C702.917,232.607 702.497,233.927 702.497,235.127 C702.497,237.827 704.657,239.747 707.777,239.747 C711.197,239.747 713.357,237.647 713.357,234.347 C713.357,229.187 708.977,225.947 702.137,225.947 C696.377,225.947 691.937,228.167 688.457,232.787 C684.917,237.407 683.297,242.927 683.297,250.067 C683.297,256.067 684.557,260.327 687.377,263.807 C690.317,267.407 694.337,269.267 699.257,269.267 C708.077,269.267 714.497,263.327 714.497,255.047 C714.497,247.847 709.577,242.807 702.437,242.807 C698.537,242.807 696.197,243.887 693.677,246.767 M699.317,247.307 C702.437,247.427 704.057,250.307 704.057,255.707 C704.057,262.667 702.317,266.447 699.137,266.447 C695.897,266.447 694.037,262.967 694.037,256.787 C694.037,254.627 694.217,252.767 694.517,251.387 C695.177,248.807 697.037,247.187 699.317,247.307 M733.215,225.947 C724.215,225.947 717.615,235.127 717.615,247.607 C717.615,260.087 724.215,269.267 733.215,269.267 C742.035,269.267 748.755,260.087 748.755,247.907 C748.755,240.827 747.135,235.607 743.595,231.167 C740.775,227.747 737.235,225.947 733.215,225.947 M733.155,229.067 C734.955,229.067 736.395,230.147 737.055,232.067 C737.835,234.047 738.315,240.347 738.315,247.787 C738.315,253.967 737.835,260.447 737.295,262.487 C736.635,264.887 735.195,266.147 733.155,266.147 C731.295,266.147 729.915,265.127 729.195,263.147 C728.415,261.167 727.935,254.807 727.935,247.607 C727.935,241.307 728.415,234.767 728.955,232.727 C729.615,230.327 731.055,229.067 733.155,229.067"/>
<polyline class="HairpinSegment" fill="none" stroke="#000000" stroke-width="2.98" stroke-linejoin="bevel" points="822.854,494.549 2627.25,480.289 822.854,466.029"/>
<polyline class="HairpinSegment" fill="none" stroke="#000000" stroke-width="2.98" stroke-linejoin="bevel" points="2628.6,689.648 807.818,675.388 2628.6,661.128"/>
<path class="GradualTempoChangeSegment" d="M799.685,242.686 C799.685,238.786 798.965,236.926 796.865,235.186 C794.645,233.446 790.925,232.486 786.185,232.486 C777.905,232.486 772.505,235.546 772.505,240.226 C772.505,242.806 774.545,244.726 777.365,244.726 C780.185,244.726 782.285,243.046 782.285,240.826 C782.285,240.106 781.985,239.266 781.445,238.546 C780.905,237.826 780.905,237.826 780.905,237.526 C780.905,236.506 782.885,235.606 785.285,235.606 C788.945,235.606 790.265,237.106 790.265,241.306 L790.265,244.426 C786.425,245.206 782.525,246.046 778.865,247.306 C773.285,249.166 770.885,251.686 770.885,255.646 C770.885,260.086 774.245,262.666 780.125,262.666 C785.285,262.666 788.405,261.526 791.585,258.406 C792.605,261.106 794.885,262.666 797.945,262.666 C801.365,262.666 804.545,260.266 804.545,257.686 C804.545,257.086 804.245,256.726 803.645,256.726 C803.285,256.726 802.925,256.846 802.445,257.146 C801.905,257.506 801.725,257.566 801.305,257.566 C799.985,257.566 799.685,256.786 799.685,253.246 L799.685,242.686 M790.265,247.666 L790.265,251.026 C790.265,255.646 788.165,258.586 784.745,258.586 C782.405,258.586 780.905,256.966 780.905,254.446 C780.905,251.206 782.765,249.406 787.085,248.386 L790.265,247.666 M833.881,251.146 C832.381,255.166 830.161,258.586 825.301,258.586 C820.381,258.586 817.621,254.386 817.621,246.946 C817.621,239.746 820.261,235.606 824.761,235.606 C826.501,235.606 827.881,236.326 827.881,237.286 C827.881,237.526 827.881,237.526 827.221,238.366 C826.201,239.746 826.021,240.226 826.021,241.366 C826.021,243.946 828.061,245.746 830.941,245.746 C834.181,245.746 836.281,243.766 836.281,240.646 C836.281,235.666 831.601,232.486 824.341,232.486 C814.381,232.486 807.241,238.966 807.241,248.026 C807.241,256.786 813.721,262.666 823.381,262.666 C830.581,262.666 834.901,258.706 837.001,252.166 L833.881,251.146 M867.178,251.146 C865.678,255.166 863.458,258.586 858.598,258.586 C853.678,258.586 850.918,254.386 850.918,246.946 C850.918,239.746 853.558,235.606 858.058,235.606 C859.798,235.606 861.178,236.326 861.178,237.286 C861.178,237.526 861.178,237.526 860.518,238.366 C859.498,239.746 859.318,240.226 859.318,241.366 C859.318,243.946 861.358,245.746 864.238,245.746 C867.478,245.746 869.578,243.766 869.578,240.646 C869.578,235.666 864.898,232.486 857.638,232.486 C847.678,232.486 840.538,238.966 840.538,248.026 C840.538,256.786 847.018,262.666 856.678,262.666 C863.878,262.666 868.198,258.706 870.298,252.166 L867.178,251.146 M904.313,248.086 L904.313,247.126 C904.313,238.186 898.793,232.486 889.973,232.486 C885.113,232.486 881.153,234.046 878.153,237.106 C875.453,239.926 873.833,243.886 873.833,247.846 C873.833,252.166 875.693,256.426 878.693,259.006 C881.453,261.346 885.473,262.666 890.033,262.666 C897.053,262.666 901.673,259.546 904.313,253.126 L901.373,251.926 C898.973,256.606 896.333,258.586 892.373,258.586 C889.613,258.586 887.213,257.266 885.713,254.986 C884.693,253.366 884.273,251.506 884.213,248.086 L904.313,248.086 M884.273,244.786 C884.273,239.086 886.553,235.606 890.153,235.606 C893.273,235.606 894.893,238.126 894.893,242.866 C894.893,244.306 894.473,244.786 893.273,244.786 L884.273,244.786 M920.757,217.546 L906.357,218.446 L906.357,221.506 L907.497,221.506 C911.157,221.506 911.397,221.806 911.337,227.086 L911.337,256.366 C911.277,257.206 911.217,257.566 910.977,257.926 C910.557,258.466 909.417,258.706 906.777,258.706 L906.537,258.706 L906.537,261.766 L925.257,261.766 L925.257,258.706 L924.837,258.706 C921.237,258.586 920.757,258.286 920.757,256.126 L920.757,217.546 M935.081,251.386 C931.961,251.386 929.441,253.906 929.441,257.026 C929.441,260.086 931.961,262.666 935.021,262.666 C938.201,262.666 940.721,260.146 940.721,257.026 C940.721,253.906 938.201,251.386 935.081,251.386"/>
</svg>
